<svg xmlns="http://www.w3.org/2000/svg" xmlns:xlink="http://www.w3.org/1999/xlink" width="163.354" height="136.771" viewBox="0 0 163.354 136.771">
  <defs>
    <clipPath id="clip-path">
      <path id="Path_3040" data-name="Path 3040" d="M-4075.941-260.753l.323-3.05a7.372,7.372,0,0,0,2.218-4.852l10.629.046s-1.248,2.819.74,4.113l-1.894,3.882-6.609,1.663-4.482.046Z" transform="translate(4075.941 268.655)" fill="#f3b58e"/>
    </clipPath>
  </defs>
  <g id="Group_4013" data-name="Group 4013" transform="translate(1564 888.27)">
    <g id="Group_1238" data-name="Group 1238" transform="translate(-1564 -822.87)">
      <path id="Path_3004" data-name="Path 3004" d="M-4298.75,102.5v11.159l9.109-.544-.377-7.3Z" transform="translate(4300.711 -54.879)" fill="#363636"/>
      <path id="Path_3005" data-name="Path 3005" d="M-4210.606-92.136c-3.1,0-16.5-.669-26.214,4.188s-29.126,16.761-30.1,16.761a60.783,60.783,0,0,0-6.145.524c-9.969,1.422-25.031,6.92-27.686,10.1s-2.235,7.036-3.157,8.543-2.262,1.339-2.262,3.852v3.183c0,.712-.125,1.885,1.507,1.885s5.508,3.266,5.508,5.506-1.278,2.115-2.115,2.115h-4.9c-.375,0-.794.67-.5,1.8a4.3,4.3,0,0,0,4.481,3.015h127.851s11.978-3.1,16.248-3.1h9.548c1,0,2.721-2.177,3.643-4.983s1.716-9.045,1.423-9.925-2.931-2.262-2.931-4.063V-68.643c0-.67-12.688-16.332-12.814-16.416s1.215-.88.711-1.34-23.3-5.768-31.093-5.768S-4210.606-92.136-4210.606-92.136Z" transform="translate(4306.77 92.168)" fill="#ffd352"/>
      <path id="Path_3006" data-name="Path 3006" d="M-4303.252,62.685a7.336,7.336,0,0,1-.655,2.267c-.922,1.507-2.262,1.339-2.262,3.852v3.183c0,.712-.125,1.885,1.507,1.885s5.508,3.266,5.508,5.506-1.278,2.115-2.115,2.115h-4.9c-.375,0-.794.67-.5,1.8a4.3,4.3,0,0,0,4.481,3.015h127.851s11.978-3.1,16.248-3.1h9.548c1,0,2.721-2.177,3.643-4.983s1.716-9.045,1.423-9.925-2.931-2.262-2.931-4.062V62.685Z" transform="translate(4306.77 -24.802)" fill="#f7bf45"/>
      <g id="Group_1231" data-name="Group 1231" transform="translate(56.737 17.515)">
        <path id="Path_3007" data-name="Path 3007" d="M-4034.669,20.7h-37.208c-2.334,0-2.973-.639-2.973-2.973v-25.9c0-8.606,5.471-12.359,5.527-12.4l.209.313c-.054.036-5.36,3.686-5.36,12.083v25.9c0,2.135.461,2.6,2.6,2.6h37.208c1.592,0,2.911-.22,2.911-2.931V-7.655a28.24,28.24,0,0,1,1.516-8.683l.359.113a27.9,27.9,0,0,0-1.5,8.571V17.387C-4031.382,20.44-4033.006,20.7-4034.669,20.7Z" transform="translate(4074.851 20.574)" fill="#bdbdbd"/>
      </g>
      <g id="Group_1235" data-name="Group 1235" transform="translate(16.993 42.041)">
        <g id="Group_1232" data-name="Group 1232" transform="translate(0 0)">
          <path id="Path_3008" data-name="Path 3008" d="M-3767.2,79.679a15.232,15.232,0,0,0-15.215,15.215v4.251h4.15s11.978-3.1,16.249-3.1h9.548a1.091,1.091,0,0,0,.483-.14V94.894A15.233,15.233,0,0,0-3767.2,79.679Z" transform="translate(3893.699 -79.679)" fill="#636363"/>
          <path id="Path_3009" data-name="Path 3009" d="M-4206.877,94.894a15.233,15.233,0,0,0-15.216-15.215,15.232,15.232,0,0,0-15.215,15.215v4.251h30.431Z" transform="translate(4237.309 -79.679)" fill="#636363"/>
        </g>
        <g id="Group_1233" data-name="Group 1233" transform="translate(2.189 2.189)">
          <circle id="Ellipse_158" data-name="Ellipse 158" cx="13.026" cy="13.026" r="13.026" fill="#363636"/>
          <path id="Path_3010" data-name="Path 3010" d="M-4196.25,110.611a10.125,10.125,0,0,1-10.125,10.126,10.125,10.125,0,0,1-10.125-10.126,10.124,10.124,0,0,1,10.125-10.125A10.125,10.125,0,0,1-4196.25,110.611Z" transform="translate(4219.402 -97.585)" fill="#2e2e2e"/>
          <path id="Path_3011" data-name="Path 3011" d="M-4194.157,113.709a9.122,9.122,0,0,1-9.122,9.122,9.12,9.12,0,0,1-9.122-9.122,9.119,9.119,0,0,1,9.122-9.121A9.121,9.121,0,0,1-4194.157,113.709Z" transform="translate(4216.304 -100.683)" fill="#c2c2c2"/>
          <circle id="Ellipse_159" data-name="Ellipse 159" cx="7.991" cy="7.991" r="7.991" transform="translate(1.726 13.026) rotate(-45)" fill="#8c8c8c"/>
          <path id="Path_3012" data-name="Path 3012" d="M-4190.089,119.726a7.173,7.173,0,0,1-7.173,7.173,7.173,7.173,0,0,1-7.173-7.173,7.173,7.173,0,0,1,7.173-7.173A7.172,7.172,0,0,1-4190.089,119.726Z" transform="translate(4210.288 -106.7)" fill="#292929"/>
          <path id="Path_3013" data-name="Path 3013" d="M-4178.542,136.8a1.643,1.643,0,0,1-1.643,1.642,1.642,1.642,0,0,1-1.642-1.642,1.642,1.642,0,0,1,1.642-1.642A1.642,1.642,0,0,1-4178.542,136.8Z" transform="translate(4193.21 -123.778)" fill="#c2c2c2"/>
          <path id="Path_3014" data-name="Path 3014" d="M-4178.231,114.686h-2.991l.692-8.155h1.6Z" transform="translate(4192.754 -102.151)" fill="#c2c2c2"/>
          <path id="Path_3015" data-name="Path 3015" d="M-4201.273,129.686l-.925,2.846-7.543-3.178.5-1.527Z" transform="translate(4214.296 -118.236)" fill="#c2c2c2"/>
          <path id="Path_3016" data-name="Path 3016" d="M-4194.315,139.9l2.42,1.758-5.354,6.191-1.3-.944Z" transform="translate(4205.842 -127.354)" fill="#c2c2c2"/>
          <path id="Path_3017" data-name="Path 3017" d="M-4178.891,141.663l2.421-1.759,4.234,7-1.3.944Z" transform="translate(4190.993 -127.36)" fill="#c2c2c2"/>
          <path id="Path_3018" data-name="Path 3018" d="M-4174.17,132.541l-.925-2.846,7.97-1.862.5,1.528Z" transform="translate(4188.126 -118.242)" fill="#c2c2c2"/>
        </g>
        <g id="Group_1234" data-name="Group 1234" transform="translate(113.475 2.189)">
          <path id="Path_3019" data-name="Path 3019" d="M-3747.414,101.653a13.026,13.026,0,0,1-13.027,13.026,13.026,13.026,0,0,1-13.026-13.026,13.026,13.026,0,0,1,13.026-13.026A13.026,13.026,0,0,1-3747.414,101.653Z" transform="translate(3773.468 -88.627)" fill="#363636"/>
          <path id="Path_3020" data-name="Path 3020" d="M-3741.357,110.611a10.125,10.125,0,0,1-10.126,10.126,10.125,10.125,0,0,1-10.125-10.126,10.124,10.124,0,0,1,10.125-10.125A10.125,10.125,0,0,1-3741.357,110.611Z" transform="translate(3764.509 -97.585)" fill="#2e2e2e"/>
          <path id="Path_3021" data-name="Path 3021" d="M-3739.261,113.709a9.121,9.121,0,0,1-9.122,9.122,9.121,9.121,0,0,1-9.121-9.122,9.12,9.12,0,0,1,9.121-9.121A9.12,9.12,0,0,1-3739.261,113.709Z" transform="translate(3761.41 -100.683)" fill="#c2c2c2"/>
          <path id="Path_3022" data-name="Path 3022" d="M-3736.9,117.2a7.99,7.99,0,0,1-7.991,7.991,7.99,7.99,0,0,1-7.99-7.991,7.99,7.99,0,0,1,7.99-7.991A7.99,7.99,0,0,1-3736.9,117.2Z" transform="translate(3757.918 -104.175)" fill="#8c8c8c"/>
          <path id="Path_3023" data-name="Path 3023" d="M-3735.193,119.726a7.173,7.173,0,0,1-7.173,7.173,7.172,7.172,0,0,1-7.172-7.173,7.172,7.172,0,0,1,7.172-7.173A7.173,7.173,0,0,1-3735.193,119.726Z" transform="translate(3755.393 -106.7)" fill="#292929"/>
          <path id="Path_3024" data-name="Path 3024" d="M-3723.647,136.8a1.642,1.642,0,0,1-1.642,1.642,1.642,1.642,0,0,1-1.642-1.642,1.641,1.641,0,0,1,1.642-1.642A1.641,1.641,0,0,1-3723.647,136.8Z" transform="translate(3738.315 -123.778)" fill="#c2c2c2"/>
          <path id="Path_3025" data-name="Path 3025" d="M-3723.335,114.686h-2.992l.692-8.155h1.606Z" transform="translate(3737.859 -102.151)" fill="#c2c2c2"/>
          <path id="Path_3026" data-name="Path 3026" d="M-3746.378,129.686l-.925,2.846-7.542-3.178.5-1.527Z" transform="translate(3759.401 -118.236)" fill="#c2c2c2"/>
          <path id="Path_3027" data-name="Path 3027" d="M-3739.423,139.9l2.421,1.758-5.354,6.191-1.3-.944Z" transform="translate(3750.948 -127.354)" fill="#c2c2c2"/>
          <path id="Path_3028" data-name="Path 3028" d="M-3723.995,141.663l2.421-1.759,4.233,7-1.3.944Z" transform="translate(3736.098 -127.36)" fill="#c2c2c2"/>
          <path id="Path_3029" data-name="Path 3029" d="M-3719.275,132.541l-.925-2.846,7.97-1.862.5,1.528Z" transform="translate(3733.231 -118.242)" fill="#c2c2c2"/>
        </g>
      </g>
      <path id="Path_3030" data-name="Path 3030" d="M-4023.757-57.794h-2.206c-3.1,0-3.476-.5-4.23-1.34s-5.4-9.213-6.49-11.307-.628-2.638.8-2.638h.1C-4033.9-70.789-4025.645-60.551-4023.757-57.794Zm-21.951-12.04c.439-.942.408-2.921-3.769-3.832-2.631-.573-16.847-2.135-33.983-2.135-4.334,0-11.934-.817-21.734,3.015s-18.4,11.181-18.718,12.689-.441,3.392,2.889,3.392h64.008a6.2,6.2,0,0,0,5.9-3.267C-4049.477-62.8-4046.148-68.892-4045.708-69.834Zm-93.972,11.5a7.448,7.448,0,0,0,6.658-1.445c2.449-1.822,11.369-8.48,15.013-10.553s7.286-4.292,8.208-4.711.8-1.507-.754-1.759a16.029,16.029,0,0,0-2.189-.111c-.35.157-.695.319-1.034.489-9.716,4.857-29.127,16.761-30.1,16.761C-4142.218-59.1-4140.532-58.552-4139.68-58.339Z" transform="translate(4183.729 80.649)" fill="#545454"/>
      <path id="Path_3031" data-name="Path 3031" d="M-3916.254-53.249h8.685l2.281-19.028c-1.635-.035-3.31-.057-5.016-.065Z" transform="translate(4011.791 77.192)" fill="#292929"/>
      <path id="Path_3032" data-name="Path 3032" d="M-4260.592,19.8s-12,1.382-15.327,2.952-6.031,5.832-6.219,7.533.691,2.14,2.387,1.387,11.307-5.047,12.626-5.758S-4258.5,19.534-4260.592,19.8Z" transform="translate(4288.183 7.601)" fill="#fff"/>
      <path id="Path_3033" data-name="Path 3033" d="M-4251.7,29.412c3.2-1.442,6.814-3.085,7.585-3.5,1.32-.712,8.629-6.377,6.534-6.114,0,0-4.457.514-8.69,1.27A37.233,37.233,0,0,0-4251.7,29.412Z" transform="translate(4265.173 7.601)" fill="#ff7b4d"/>
      <path id="Path_3034" data-name="Path 3034" d="M-3670.6,5.7a1.64,1.64,0,0,0-1.641,1.639V16a1.64,1.64,0,0,0,1.641,1.64h3.49V5.7Z" transform="translate(3827.473 18.24)" fill="#ff7b4d"/>
      <g id="Group_1236" data-name="Group 1236" transform="translate(139.403 24.634)">
        <path id="Path_3035" data-name="Path 3035" d="M-3732.736,16.944a4.213,4.213,0,0,1-4.209-4.209,4.213,4.213,0,0,1,4.209-4.209,4.213,4.213,0,0,1,4.208,4.209A4.213,4.213,0,0,1-3732.736,16.944Zm0-8.04a3.837,3.837,0,0,0-3.833,3.832,3.837,3.837,0,0,0,3.833,3.832,3.837,3.837,0,0,0,3.832-3.832A3.837,3.837,0,0,0-3732.736,8.9Z" transform="translate(3736.945 -8.527)" fill="#bdbdbd"/>
      </g>
      <g id="Group_1237" data-name="Group 1237" transform="translate(68.563 4.775)">
        <path id="Path_3036" data-name="Path 3036" d="M-4014.749-52.457l9.174-18.837a44,44,0,0,0-10.964,2.755c-.913.357-1.815.745-2.7,1.155l-7.27,14.926Z" transform="translate(4026.511 71.626)" fill="#8a8a8a"/>
        <path id="Path_3037" data-name="Path 3037" d="M-3944.283-72.578c-1.579,0-3.591-.108-5.98-.06l-9.331,19.156h6.01Z" transform="translate(3975.965 72.65)" fill="#8a8a8a"/>
        <path id="Path_3038" data-name="Path 3038" d="M-3825.5-68.034c-2.118-.316-6.058-.753-11.211-1.13l-8.921,18.316h11.761Z" transform="translate(3889.884 70.017)" fill="#8a8a8a"/>
      </g>
    </g>
    <g id="Group_3715" data-name="Group 3715" transform="translate(-1660 -1124.604)">
      <g id="Group_3714" data-name="Group 3714" transform="translate(114.857 236.334)">
        <g id="Group_1240" data-name="Group 1240" transform="translate(64.073 35.781)">
          <path id="Path_3039" data-name="Path 3039" d="M-4075.941-260.753l.323-3.05a7.372,7.372,0,0,0,2.218-4.852l10.629.046s-1.248,2.819.74,4.113l-1.894,3.882-6.609,1.663-4.482.046Z" transform="translate(4075.941 268.655)" fill="#f3b58e"/>
          <g id="Group_1239" data-name="Group 1239" transform="translate(0)" clip-path="url(#clip-path)">
            <ellipse id="Ellipse_160" data-name="Ellipse 160" cx="8.364" cy="5.915" rx="8.364" ry="5.915" transform="translate(-1.155 -8.087)" fill="#dd9f7e"/>
          </g>
        </g>
        <path id="Path_3041" data-name="Path 3041" d="M-4075.869-245.34c-.277-.277-5.545-3.835-5.545-3.835l-3.142,1.525-7.948,2.957-3.234-1.2-1.756-3.05-2.158-.061-5.513,9.118-1.94,7.856.092,6.377,4.066,7.948,3.882,1.571,12.2-9.8,9.057-11.645,2.68-5.268Z" transform="translate(4161.198 291.195)" fill="#e6dfbf"/>
        <path id="Subtraction_52" data-name="Subtraction 52" d="M11.381,37.414H5.836L0,3.465,1.387,0l.064,0c2.7.141,16.155.866,16.155,1.245,0,.41,4.255,3.847,4.3,3.882.006.18.529,16.052,1.075,32.284H17.187L14,10.259,8.6,10.813l2.786,26.6Z" transform="translate(53.306 98.857)" fill="#202d42" stroke="rgba(0,0,0,0)" stroke-width="1"/>
        <path id="Path_3045" data-name="Path 3045" d="M-4038.53-221.029l3.639-2.426s20.044,23.96-14.123,25.334l.563,3.449s20.106,3.318,27.037-9.99-7.9-30.23-7.9-30.23l-3.465,1.109" transform="translate(4121.712 281.486)" fill="#1c758b"/>
        <path id="Path_3046" data-name="Path 3046" d="M-4079.344-253.5l-2.079,1.248,1.109,6.515s3.811-4.367,3.6-4.505S-4079.344-253.5-4079.344-253.5Z" transform="translate(4143.739 294.138)" fill="#efede4"/>
        <path id="Path_3047" data-name="Path 3047" d="M-4066.706-251.718l2.564,5.06,10.19-6.931-1.8-2.079S-4057.765-251.441-4066.706-251.718Z" transform="translate(4133.737 295.609)" fill="#efede4"/>
        <path id="Path_3048" data-name="Path 3048" d="M-4074.356-243.333l-3.6,4.505,2.426,3.466,3.743-2.911Z" transform="translate(4141.387 287.223)" fill="#f34c39"/>
        <path id="Path_3049" data-name="Path 3049" d="M-4091.128-218.443l-9.774,17.19,2.564,6.585,8.249-7.07Z" transform="translate(4156.98 270.305)" fill="#f34c39"/>
        <path id="Path_3050" data-name="Path 3050" d="M-4114-196.644a33.259,33.259,0,0,1,1.838-11.062c-.157-3.8-.18-7.108-.18-8.772-4.3-7.347-3.507-16.764-3.507-16.764l2.865-3.142-1.571-3.05,6.192-9.15-.033-.061-8.932,3.573s-6.376,29.805.693,56.561c0,0,3.6,2.911,6.377-1.8l.083-.894c-1.214-3.975-1.752-10.787-1.987-16.5A33.259,33.259,0,0,0-4114-196.644Z" transform="translate(4169.939 290.834)" fill="#1c758b"/>
        <path id="Path_3051" data-name="Path 3051" d="M-4105.935-240.09l1.571,3.05-2.865,3.142s-.792,9.417,3.507,16.764c0-.729.006-1.145.006-1.145.412-.341.8-.676,1.2-1.013-1.679-5.538-2.415-15.264,3.511-30.317l-.771.309.032.061Z" transform="translate(4161.321 291.489)" fill="#2c697a"/>
        <path id="Union_5" data-name="Union 5" d="M3.152,60.165a8.363,8.363,0,0,1-1.165-2.557C.773,53.633.235,46.821,0,41.109a28.939,28.939,0,0,1,2.48-5.268c.2-.338.407-.674.618-1a8.7,8.7,0,0,0,.886,1.2l-.1,1.073-1.9,20.49,1.9-20.491a15.76,15.76,0,0,0,2.872,1.838,15.76,15.76,0,0,1-2.872-1.838l.1-1.073a8.685,8.685,0,0,1-.886-1.2A32.2,32.2,0,0,1,19.141,22.5l.277-8.318,5.453-.924L22.006,0,34.621,4.575C29.6,8.283,29.076,15.943,29.076,15.943L16.6,37.846l.832,24.121a29.244,29.244,0,0,1-7.347,1.282A8.206,8.206,0,0,1,3.152,60.165Z" transform="translate(57.779 42.019)" fill="#1c758b" stroke="rgba(0,0,0,0)" stroke-width="1"/>
        <path id="Path_3055" data-name="Path 3055" d="M-4073.971-249.176s1.019,11.58-20.978,30.178c-.4.337-.79.673-1.2,1.013,0,0,0,.416-.005,1.145,0,1.664.024,4.974.18,8.772a28.876,28.876,0,0,1,2.481-5.268c.2-.337.406-.674.618-1a32.2,32.2,0,0,1,16.042-12.341l.277-8.318,5.452-.924Z" transform="translate(4153.755 291.195)" fill="#236375"/>
        <path id="Path_3056" data-name="Path 3056" d="M-4203.354-237.489s-17.19,31.7-42.236,18.946l-.937,3.182s21.177,13.73,35.41-1.427c9.734-10.367,10.627-11.367,10.627-11.367Z" transform="translate(4255.968 283.251)" fill="#1c758b"/>
        <g id="Group_1243" data-name="Group 1243" transform="translate(0 67.034)">
          <path id="Path_3057" data-name="Path 3057" d="M-4262.979-162.937a.782.782,0,0,0-.122.317.733.733,0,0,0,.263.688" transform="translate(4267.239 165.541)" fill="none" stroke="#1c1c1c" stroke-miterlimit="10" stroke-width="0.35"/>
          <path id="Path_3058" data-name="Path 3058" d="M-4268.988-160.276c.038.008.075.014.114.02a2.087,2.087,0,0,0,2.087-.967" transform="translate(4271.235 164.376)" fill="none" stroke="#b3b7ac" stroke-miterlimit="10" stroke-width="0.467"/>
          <g id="Group_1241" data-name="Group 1241" transform="translate(0 2.084)">
            <path id="Path_3059" data-name="Path 3059" d="M-4275.723-163.564l-.265,1.765c-.088.593.16,1.28.754,1.368l.093.014h0l1.545.231h0l.178.027c.593.089.946-.508,1.036-1.1l.264-1.765c.089-.593-.09-1.165-.683-1.254l-1.817-.272A1.023,1.023,0,0,0-4275.723-163.564Zm.4.488c.034-.217.255-.489.471-.456l1.892.283c.216.032.349.357.316.574s-.253.488-.469.456L-4275-162.5C-4275.219-162.534-4275.352-162.859-4275.32-163.076Z" transform="translate(4276.004 164.561)" fill="#1c1c1c"/>
            <path id="Path_3060" data-name="Path 3060" d="M-4273.689-154.851l1.39.208c.16.024.236.4.213.558s-.208.5-.368.472l-1.39-.208c-.159-.024-.236-.4-.213-.559S-4273.849-154.874-4273.689-154.851Z" transform="translate(4274.684 157.961)" fill="#354c52"/>
            <path id="Path_3061" data-name="Path 3061" d="M-4275.2-146.393l.515.077.77-5.15.516.077-.771,5.15-1.546-.231.771-5.15.516.077Z" transform="translate(4275.807 155.764)" fill="#d7e2de"/>
            <path id="Path_3062" data-name="Path 3062" d="M-4271.762-151.389h0l-.516-.077h0l-.514-.077h0l-.515-.077h0Z" transform="translate(4274.17 155.764)" fill="#354c52"/>
            <rect id="Rectangle_1026" data-name="Rectangle 1026" width="0.212" height="0.425" transform="translate(1.156 4.084) rotate(-81.487)" fill="#354c52"/>
          </g>
          <g id="Group_1242" data-name="Group 1242" transform="translate(4.084 3.152)">
            <path id="Path_3063" data-name="Path 3063" d="M-4263.224-159.344l.5,2.608a1.6,1.6,0,0,0,1.862,1.25,1.6,1.6,0,0,0,1.267-1.852l-.5-2.607a1.6,1.6,0,0,0-1.863-1.25A1.6,1.6,0,0,0-4263.224-159.344Zm1.861-.169a.519.519,0,0,1-.411.606.518.518,0,0,1-.606-.411.517.517,0,0,1,.411-.606A.519.519,0,0,1-4261.363-159.513Zm-.7,2.554a.637.637,0,0,1,.506-.746.637.637,0,0,1,.745.505.636.636,0,0,1-.5.746A.638.638,0,0,1-4262.062-156.959Z" transform="translate(4263.252 161.225)" fill="#1c1c1c"/>
            <path id="Path_3064" data-name="Path 3064" d="M-4259.944-156.164a.517.517,0,0,1-.606-.411.518.518,0,0,1,.411-.606.518.518,0,0,1,.605.411A.517.517,0,0,1-4259.944-156.164Z" transform="translate(4261.422 158.482)" fill="#354c52"/>
            <path id="Path_3065" data-name="Path 3065" d="M-4259.055-150.257a.638.638,0,0,1,.747.505.638.638,0,0,1-.507.746.638.638,0,0,1-.746-.505A.638.638,0,0,1-4259.055-150.257Z" transform="translate(4260.751 153.778)" fill="#354c52"/>
          </g>
          <path id="Path_3066" data-name="Path 3066" d="M-4270.318-167.915a2.061,2.061,0,0,0,.281-.773,2.078,2.078,0,0,0-1.754-2.357,2.078,2.078,0,0,0-2.368,1.74,2.077,2.077,0,0,0,1.64,2.336" transform="translate(4274.766 171.068)" fill="none" stroke="#b3b7ac" stroke-miterlimit="10" stroke-width="0.467"/>
          <path id="Path_3067" data-name="Path 3067" d="M-4262.557-162.587a.658.658,0,0,0,.311.135.711.711,0,0,0,.791-.619.711.711,0,0,0-.575-.823.687.687,0,0,0-.667.3" transform="translate(4266.958 166.197)" fill="none" stroke="#1c1c1c" stroke-miterlimit="10" stroke-width="0.35"/>
        </g>
        <path id="Path_3068" data-name="Path 3068" d="M-4272.288-185.206l.276,1.223s-1,1.811.216,1.965,1.418-.862,3.473-.42,2.629.554,3.366-.061.846-.276.846-.276l.936-3.182-3.915-3.453a1.1,1.1,0,0,0-.946-.074l-2.938.976a.758.758,0,0,0-.475.466l-.808,2.29A.989.989,0,0,0-4272.288-185.206Zm2.68.582a10.74,10.74,0,0,1-1.111-.106,2.646,2.646,0,0,1,.518-2.2l1.646-.2a1.941,1.941,0,0,1,.345-.357,1.941,1.941,0,0,0-.345.357l.708-.088a3.453,3.453,0,0,1,.447.91,1.182,1.182,0,0,0,.172-.2,1.182,1.182,0,0,1-.172.2,1.141,1.141,0,0,1-.972,1.605.4.4,0,0,0,.292.295.4.4,0,0,1-.292-.295,4.742,4.742,0,0,1-1.235.086.724.724,0,0,0,.271.343A.724.724,0,0,1-4269.608-184.624Zm-2.174,1.078s1.3-.262,1.291.7-1.262.536-1.262.536S-4271.359-182.6-4271.782-183.546Z" transform="translate(4273.553 250.665)" fill="#ffc5b1"/>
        <path id="Path_3069" data-name="Path 3069" d="M-4262.755-182.206l.708-.088a3.454,3.454,0,0,1,.447.911c-.343.369-1.072,1.144-.973,1.605a4.729,4.729,0,0,1-1.233.086C-4264.085-180.412-4263.254-181.612-4262.755-182.206Z" transform="translate(4267.75 245.733)" fill="#c58467"/>
        <path id="Path_3070" data-name="Path 3070" d="M-4266.753-181.815l1.646-.2c-.5.594-1.33,1.794-1.052,2.515a10.687,10.687,0,0,1-1.111-.106A2.646,2.646,0,0,1-4266.753-181.815Z" transform="translate(4270.103 245.547)" fill="#d48f6c"/>
        <path id="Path_3071" data-name="Path 3071" d="M-4269.187-170.168c-.01.965-1.261.536-1.261.536s.393-.29-.03-1.239C-4270.478-170.872-4269.175-171.133-4269.187-170.168Z" transform="translate(4272.248 237.991)" fill="#fdd9c7"/>
        <path id="Path_3072" data-name="Path 3072" d="M-4062.3-340.553s-8.38.085-13.355-2.948c-1.119,3.221-3.8,12.022-2.677,19.559.855,5.737,5.42,6.908,8.858,6.946a9.075,9.075,0,0,0,8.595-5.566,12.549,12.549,0,0,0,.811-3.281l.087-.075-.252-1.743C-4054.362-338.4-4062.3-340.553-4062.3-340.553Z" transform="translate(4141.82 355.311)" fill="#f3b58e"/>
        <path id="Path_3073" data-name="Path 3073" d="M-4060.467-367.107s1.771-8.965-7.567-8.543c-6.72.3-9.54-.217-9.457-3.275s-7.114-1.443-5.792,6.325a7.29,7.29,0,0,0,3.743,4.713c4.975,3.033,13.95,2.267,13.95,2.267s7.934,2.149,2.066,12.892l.252,1.743C-4062.3-351.831-4050.082-360.886-4060.467-367.107Z" transform="translate(4145.116 380.378)" fill="#242422"/>
        <g id="Group_1244" data-name="Group 1244" transform="translate(80.506 24.233)">
          <path id="Path_3074" data-name="Path 3074" d="M-4018.905-299.824c-.845,1.971-2.721,3.059-4.19,2.429s-1.972-2.739-1.126-4.71,2.721-3.059,4.19-2.429S-4018.06-301.795-4018.905-299.824Z" transform="translate(4024.631 304.712)" fill="#f3b58e"/>
          <path id="Path_3075" data-name="Path 3075" d="M-4019.888-295.613s-.6-3.223,1.26-3.776,2.767,1.726,1.768,3.006-1.313.965-1.54-1.02" transform="translate(4021.469 301.152)" fill="none" stroke="#ca845e" stroke-miterlimit="10" stroke-width="0.727"/>
        </g>
        <g id="Group_1245" data-name="Group 1245" transform="translate(68.326 28.542)">
          <path id="Path_3076" data-name="Path 3076" d="M-4062.659-289.587s.784,4.463,4.586,2.81c3.189-1.386,3.5-3.615,3.517-4.3" transform="translate(4062.659 291.134)" fill="#f8f6f5" stroke="#ca845e" stroke-miterlimit="10" stroke-width="0.727"/>
          <path id="Path_3077" data-name="Path 3077" d="M-4054.557-291.2h0a65.865,65.865,0,0,1-8.1,1.489" transform="translate(4062.659 291.258)" fill="none" stroke="#ca845e" stroke-miterlimit="10" stroke-width="0.727"/>
        </g>
        <path id="Path_3078" data-name="Path 3078" d="M-4061.9-316.375s1.271-.93,1.953-.186-1.8,2.541-4.215,1.736-.527-2.665.465-2.293c0,0,2.107-4.556.155-6.694" transform="translate(4132.809 341.929)" fill="none" stroke="#ca845e" stroke-miterlimit="10" stroke-width="0.727"/>
        <path id="Path_3079" data-name="Path 3079" d="M-4068.931-320.49a1.862,1.862,0,0,1-1.736,1.968,1.863,1.863,0,0,1-1.736-1.968,1.863,1.863,0,0,1,1.736-1.968A1.862,1.862,0,0,1-4068.931-320.49Z" transform="translate(4137.608 341.008)" fill="#fff"/>
        <path id="Path_3080" data-name="Path 3080" d="M-4043-319.038a1.863,1.863,0,0,1-1.736,1.968,1.862,1.862,0,0,1-1.735-1.968,1.862,1.862,0,0,1,1.735-1.968A1.862,1.862,0,0,1-4043-319.038Z" transform="translate(4119.979 340.02)" fill="#fff"/>
        <path id="Path_3081" data-name="Path 3081" d="M-4067.751-317.681c0,.608-.327,1.1-.729,1.1s-.729-.493-.729-1.1.325-1.1.729-1.1S-4067.751-318.288-4067.751-317.681Z" transform="translate(4135.438 338.508)" fill="#163f51"/>
        <path id="Path_3082" data-name="Path 3082" d="M-4041.092-315.987c0,.608-.326,1.1-.728,1.1s-.728-.493-.728-1.1.325-1.1.728-1.1S-4041.092-316.594-4041.092-315.987Z" transform="translate(4117.315 337.357)" fill="#163f51"/>
        <path id="Path_3083" data-name="Path 3083" d="M-4070.092-311.394a1.863,1.863,0,0,1-1.735,1.968,1.863,1.863,0,0,1-1.735-1.968,1.863,1.863,0,0,1,1.735-1.968A1.863,1.863,0,0,1-4070.092-311.394Z" transform="translate(4138.397 334.825)" fill="#f3b58e"/>
        <ellipse id="Ellipse_161" data-name="Ellipse 161" cx="1.735" cy="1.968" rx="1.735" ry="1.968" transform="translate(73.698 21.897)" fill="#f3b58e"/>
        <path id="Path_3084" data-name="Path 3084" d="M-4072.595-328.374c.062-.093,1.89-2.324,3.471-.434" transform="translate(4137.739 345.839)" fill="none" stroke="#163f51" stroke-miterlimit="10" stroke-width="0.727"/>
        <path id="Path_3085" data-name="Path 3085" d="M-4045.012-325.988c.095-.059,2.679-1.341,3.343,1.032" transform="translate(4118.991 343.678)" fill="none" stroke="#163f51" stroke-miterlimit="10" stroke-width="0.727"/>
        <path id="Path_4195" data-name="Path 4195" d="M752.164,1688.972h-.443v-.443a.622.622,0,0,0-.627-.627.647.647,0,0,0-.627.627v.443h-.443a.622.622,0,0,0-.627.627.647.647,0,0,0,.627.627h.443v.443a.622.622,0,0,0,.627.627.647.647,0,0,0,.627-.627v-.443h.443a.627.627,0,1,0,0-1.254Z" transform="translate(-715.97 -1634.223)" fill="#0099bf"/>
      </g>
    </g>
    <path id="Path_2179" data-name="Path 2179" d="M708.7,1579.822s12.39-1.777,13.543-14.119c0,0,1.777,13.255,12.966,12.967-.576.865-12.054,1.489-12.678,12.966C722.576,1591.635,722.864,1578.957,708.7,1579.822Z" transform="translate(-2147.476 -2440.803)" fill="#0990b2"/>
    <path id="Path_5333" data-name="Path 5333" d="M754.748,1689.971h-.856v-.856a1.2,1.2,0,0,0-1.213-1.213,1.25,1.25,0,0,0-1.213,1.213v.856h-.856a1.2,1.2,0,0,0-1.213,1.213,1.251,1.251,0,0,0,1.213,1.213h.856v.856a1.2,1.2,0,0,0,1.213,1.213,1.25,1.25,0,0,0,1.213-1.213v-.856h.856a1.213,1.213,0,0,0,0-2.426Z" transform="translate(-2279.726 -2537.194)" fill="#1c758b"/>
  </g>
</svg>
