<svg xmlns="http://www.w3.org/2000/svg" width="138.921" height="185.353" viewBox="0 0 138.921 185.353">
  <g id="Group_4057" data-name="Group 4057" transform="translate(-3338.079 4692.853)">
    <g id="Group_4056" data-name="Group 4056" transform="translate(-669 632)">
      <path id="Path_5569" data-name="Path 5569" d="M550.4,131.463l-24.4,54.359a5.043,5.043,0,0,0,2.481,6.693l3.87,1.712,89.63,39.62a5.108,5.108,0,0,0,6.668-2.646l21.551-48.025,2.847-6.337a5.043,5.043,0,0,0-2.478-6.69l-93.507-41.332A5.111,5.111,0,0,0,550.4,131.463Z" transform="translate(3492.492 -5453.253)" fill="#6b4f30"/>
      <path id="Path_5570" data-name="Path 5570" d="M530.742,199.722,633.393,245.1l12.021-26.784L542.762,172.937Z" transform="translate(3490.23 -5472.665)" fill="#6b4f30"/>
      <path id="Path_5571" data-name="Path 5571" d="M590.174,221.013l64.87,28.675,4.3-9.586-64.87-28.675Z" transform="translate(3464.327 -5489.44)" fill="#dce9ff"/>
      <path id="Path_5572" data-name="Path 5572" d="M547.978,170.969l102.651,45.375,6.413-14.29L554.391,156.68Z" transform="translate(3482.718 -5465.579)" fill="#9e7950"/>
      <path id="Path_5585" data-name="Path 5585" d="M619,338.09s6.864,1.128,4.7-3.479c3.009,0,10.813,1.6,6.676-4.513s-5.359-8.274-2.727-6.676,13.069-.471,9.309-5.172-9.309-14.48-9.309-14.48l-1.6-4.7L582.8,293.333l-6.3,37.611,14.2-4.419Z" transform="translate(3470.286 -5525.138)" fill="#cc814e"/>
      <path id="Path_5581" data-name="Path 5581" d="M519.475,168.668l106.1,13.142a5.246,5.246,0,0,1,4.548,5.834l-7.485,60.429a5.246,5.246,0,0,1-5.833,4.548L510.7,239.479a5.246,5.246,0,0,1-4.548-5.833l7.485-60.43A5.246,5.246,0,0,1,519.475,168.668Z" transform="translate(3500.962 -5470.787)" fill="#b17800"/>
      <rect id="Rectangle_1657" data-name="Rectangle 1657" width="117.375" height="26.487" transform="translate(4124.968 -5233.729) rotate(-172.939)" fill="#965a1a"/>
      <rect id="Rectangle_1659" data-name="Rectangle 1659" width="24.263" height="3.778" transform="translate(4121.294 -5273.052) rotate(-172.939)" fill="#d6aa4d"/>
      <rect id="Rectangle_1660" data-name="Rectangle 1660" width="19.469" height="1.974" transform="matrix(-0.992, -0.123, 0.123, -0.992, 4115.825, -5228.905)" fill="#d6aa4d"/>
      <rect id="Rectangle_1661" data-name="Rectangle 1661" width="25.086" height="1.974" transform="matrix(-0.992, -0.123, 0.123, -0.992, 4115.361, -5225.156)" fill="#d6aa4d"/>
      <g id="Group_4055" data-name="Group 4055" transform="translate(4022.606 -5257.949)">
        <path id="Path_5575" data-name="Path 5575" d="M668.585,269.2l14.539,1.8a2.919,2.919,0,0,0,3.256-2.538h0a2.92,2.92,0,0,0-2.538-3.256l-14.539-1.8a2.919,2.919,0,0,0-3.255,2.538h0A2.919,2.919,0,0,0,668.585,269.2Z" transform="translate(-591.339 -254.138)" fill="#d6aa4d"/>
        <path id="Path_5576" data-name="Path 5576" d="M624.457,263.739l14.539,1.8A2.92,2.92,0,0,0,642.252,263h0a2.919,2.919,0,0,0-2.538-3.255l-14.54-1.8a2.919,2.919,0,0,0-3.256,2.538h0A2.919,2.919,0,0,0,624.457,263.739Z" transform="translate(-572.106 -251.755)" fill="#d6aa4d"/>
        <path id="Path_5577" data-name="Path 5577" d="M580.328,258.273l14.539,1.8a2.918,2.918,0,0,0,3.256-2.538h0a2.919,2.919,0,0,0-2.538-3.256l-14.539-1.8a2.919,2.919,0,0,0-3.255,2.538h0A2.919,2.919,0,0,0,580.328,258.273Z" transform="translate(-552.872 -249.374)" fill="#d6aa4d"/>
        <path id="Path_5578" data-name="Path 5578" d="M536.2,252.807l14.539,1.8A2.919,2.919,0,0,0,554,252.07h0a2.919,2.919,0,0,0-2.538-3.256l-14.54-1.8a2.919,2.919,0,0,0-3.256,2.538h0A2.919,2.919,0,0,0,536.2,252.807Z" transform="translate(-533.639 -246.991)" fill="#d6aa4d"/>
      </g>
      <rect id="Rectangle_1662" data-name="Rectangle 1662" width="17.047" height="11.746" rx="4.103" transform="translate(4118.629 -5251.536) rotate(-172.939)" fill="#d6aa4d"/>
      <path id="Path_5582" data-name="Path 5582" d="M553.314,199.555a7.091,7.091,0,1,1,2.283.684A7.049,7.049,0,0,1,553.314,199.555Zm6.111-12.281a6.641,6.641,0,0,0-9.545,5.13h0a6.633,6.633,0,1,0,9.545-5.13Z" transform="translate(3482.101 -5478.421)" fill="#d6aa4d"/>
      <path id="Path_5583" data-name="Path 5583" d="M530.934,190.2a6.855,6.855,0,1,0,7.645-5.96A6.855,6.855,0,0,0,530.934,190.2Z" transform="translate(3490.169 -5477.57)" fill="#d6aa4d"/>
      <path id="Subtraction_81" data-name="Subtraction 81" d="M62.925,126.191H20.84v-1.833l.045-.016a1.183,1.183,0,0,1,0-.16c.165-3.613-6.713-24.8-12.78-43.5C3.822,67.5.127,56.112.009,54.226c-.146-2.332,1.55-6.891,3-10.306,1.57-3.7,3.192-6.889,3.208-6.92l.07-.2,10.4,1.282L35.477,40.4l.215.027-.264.217-1.382,6.91c0,.071.412,7.2-.47,10.907-2.974,2.881-3.846,7.57-3.855,7.617a.5.5,0,0,1,.047-.054c.82-.9,3.633-3.963,5.406-5.494A68.5,68.5,0,0,1,36.3,52.439c0-.058-.068-5.894-.121-13.353-.092-13.137-.13-29.592.214-33.378C38.045,1.814,40.353,0,43.661,0a20.491,20.491,0,0,1,6.558,1.477c1.287.45,2.4,2.021,3.305,4.668A44.564,44.564,0,0,1,55.3,14.488a111.547,111.547,0,0,1,.846,11.53c.028.242,2.833,24.3,3.949,28.208,11.7,25.176,8.948,37.3,7.471,43.815-.159.7-.308,1.359-.419,1.949-.9,4.785-3.053,18.2-3.937,23.748l-.282,2.452Z" transform="translate(4020.826 -5266.191)" fill="#f8c589" stroke="rgba(0,0,0,0)" stroke-width="1"/>
      <path id="Path_5586" data-name="Path 5586" d="M597.6,236.81s-2.248,9.471,2.247,13.785,12.9,1.263,13.013-4,.118-12.418-5.678-13.575S597.249,235.021,597.6,236.81Z" transform="translate(3461.333 -5498.744)" fill="#ffe5c7"/>
    </g>
  </g>
</svg>
