<svg xmlns="http://www.w3.org/2000/svg" width="106.897" height="91.653" viewBox="0 0 106.897 91.653">
  <g id="Group_3992" data-name="Group 3992" transform="translate(-211.084 -476.24)">
    <path id="Path_4576" data-name="Path 4576" d="M-1939.789-3003.109a7.486,7.486,0,0,1-5.984-5.984c0-.08-.079-.158-.157-.08a.078.078,0,0,0-.079.08,7.487,7.487,0,0,1-5.984,5.984c-.078,0-.157.078-.078.157a.077.077,0,0,0,.078.078,7.485,7.485,0,0,1,5.984,5.984c0,.078.079.157.157.078a.077.077,0,0,0,.079-.078,7.485,7.485,0,0,1,5.984-5.984c.078,0,.157-.078.078-.157C-1939.627-3003.109-1939.706-3003.109-1939.789-3003.109Z" transform="translate(2249.025 3485.445)" fill="#ceab00"/>
    <path id="Path_4577" data-name="Path 4577" d="M2044.061-1676.238h-.528v-.528a.728.728,0,0,0-.735-.735.728.728,0,0,0-.735.735v.528h-.528a.728.728,0,0,0-.735.735.728.728,0,0,0,.735.735h.528v.527a.728.728,0,0,0,.735.735.728.728,0,0,0,.735-.735v-.527h.528a.728.728,0,0,0,.735-.735.728.728,0,0,0-.735-.735Z" transform="translate(-1809.877 2162.529)" fill="#d98c26"/>
    <path id="Path_4574" data-name="Path 4574" d="M-510.225-3090.717a3.278,3.278,0,0,0-3.355-3.2l-25.479.6-20.395,7.092a3.278,3.278,0,0,1-2.594,3.844l9.8,65.954h43.785Z" transform="translate(805.098 3584.315)" fill="#ceab00"/>
    <path id="Path_4575" data-name="Path 4575" d="M-1607.432-3169.728v0a3.277,3.277,0,0,0-3.844-2.592l-48.412,9.413a3.279,3.279,0,0,0-2.594,3.844l12.919,66.457h56.92Z" transform="translate(1873.427 3660.502)" fill="#d98c26"/>
    <path id="Path_1085" data-name="Path 1085" d="M-713.549-2799.2l-4.259-21.905a3.632,3.632,0,0,1,2.87-4.259l12.228-2.376a3.632,3.632,0,0,1,4.259,2.873l4.259,21.905a3.633,3.633,0,0,1-2.873,4.26l-12.228,2.376A3.635,3.635,0,0,1-713.549-2799.2Z" transform="translate(956.398 3325.939)" fill="#beaf89"/>
    <path id="Path_1086" data-name="Path 1086" d="M-687.591-2682.783l.628,3.228-19.357,3.763-.627-3.228Z" transform="translate(945.788 3185.126)" fill="#f7e6a1"/>
    <path id="Path_1087" data-name="Path 1087" d="M-526.323-2551.783l4.39,22.585-3.225.628-4.39-22.585Z" transform="translate(773.542 3057.932)" fill="#f7e6a1"/>
    <path id="Path_1088" data-name="Path 1088" d="M-304.32-2594.883l4.39,22.585-3.228.628-4.39-22.585Z" transform="translate(557.992 3099.78)" fill="#f7e6a1"/>
    <path id="Path_1091" data-name="Path 1091" d="M667.617-2823.476l-.128-6.572a3.284,3.284,0,0,1,3.178-3.393,3.286,3.286,0,0,1,3.393,3.178c0,.03,0,.058,0,.091l.128,6.572a3.285,3.285,0,0,1-3.2,3.37,3.285,3.285,0,0,1-3.37-3.2.235.235,0,0,1,0-.043Z" transform="translate(-388.716 3331.409)" fill="#e2ca50"/>
    <path id="Path_1092" data-name="Path 1092" d="M680.839-2144.278l-.128-6.571a3.287,3.287,0,0,1,3.2-3.376,3.29,3.29,0,0,1,3.376,3.2v.052l.128,6.571a3.284,3.284,0,0,1-3.248,3.324,3.283,3.283,0,0,1-3.324-3.2Z" transform="translate(-401.555 2671.925)" fill="#bfb467"/>
    <path id="Path_1096" data-name="Path 1096" d="M122.7-1605.969l-4.076-20.969a1.645,1.645,0,0,1,1.3-1.928,1.643,1.643,0,0,1,1.928,1.3l4.076,20.969a1.645,1.645,0,0,1-1.3,1.928,1.645,1.645,0,0,1-1.928-1.3Z" transform="translate(144.235 2161.857)" fill="#e9b066"/>
    <path id="Path_1099" data-name="Path 1099" d="M-1114.405-957.043a6.576,6.576,0,0,1-7.708-5.2,6.576,6.576,0,0,1,5.2-7.708,6.576,6.576,0,0,1,7.707,5.2,6.572,6.572,0,0,1-5.2,7.708Z" transform="translate(1349.01 1522.17)" fill="#e9b066"/>
    <path id="Path_1089" data-name="Path 1089" d="M-1397.893-2624.125l-1.255-6.452a3.291,3.291,0,0,1,2.641-3.827,3.287,3.287,0,0,1,3.812,2.571l1.255,6.452a3.291,3.291,0,0,1-2.641,3.827A3.291,3.291,0,0,1-1397.893-2624.125Z" transform="translate(1617.931 3138.205)" fill="#e9b066"/>
    <path id="Path_1090" data-name="Path 1090" d="M-1268.293-1957.825l-1.255-6.452a3.291,3.291,0,0,1,2.641-3.826,3.286,3.286,0,0,1,3.812,2.571l1.255,6.452a3.286,3.286,0,0,1-2.556,3.881,3.286,3.286,0,0,1-3.881-2.557A.457.457,0,0,1-1268.293-1957.825Z" transform="translate(1492.096 2491.262)" fill="#e9b066"/>
    <path id="Path_4579" data-name="Path 4579" d="M1690.619-2968.906a.478.478,0,0,0-.13-.1.252.252,0,0,0-.131-.064.249.249,0,0,0-.163-.032.565.565,0,0,0-.326,0c-.064,0-.1.032-.163.032-.032.032-.1.032-.131.064s-.1.064-.131.1a.842.842,0,0,0,0,1.136.464.464,0,0,0,.131.1,1.181,1.181,0,0,0,.293.131.565.565,0,0,0,.326,0c.064,0,.1-.032.163-.032.064-.031.1-.031.131-.064s.1-.064.13-.1a.857.857,0,0,0,0-1.171Z" transform="translate(-1388.771 3465.149)" fill="#ceab00"/>
    <path id="Path_4582" data-name="Path 4582" d="M-262.633-1529.1l-6.454,1.255,5.983,30.778h6.7Z" transform="translate(520.647 2064.962)" fill="#e9b066"/>
    <path id="Path_2252" data-name="Path 2252" d="M1316.785,119.437a21.484,21.484,0,1,0-7.86,29.348A21.471,21.471,0,0,0,1316.785,119.437Z" transform="translate(-1001.686 399.488)" fill="#63ab46"/>
    <path id="Path_2253" data-name="Path 2253" d="M1290.594,136.635a21.454,21.454,0,0,1,2.843-25.335,21.492,21.492,0,1,0,20.527,35.556A21.51,21.51,0,0,1,1290.594,136.635Z" transform="translate(-1001.686 397.424)" fill="#579a00"/>
    <path id="Path_2254" data-name="Path 2254" d="M1333.294,143.759a15.836,15.836,0,1,0-5.79,21.635A15.848,15.848,0,0,0,1333.294,143.759Z" transform="translate(-1023.087 378.008)" fill="#ecebed"/>
    <path id="Path_5016" data-name="Path 5016" d="M16.423.57l-9.476,8.2L3.836,4.389a2.083,2.083,0,0,0-2.97-.424,2.083,2.083,0,0,0-.424,2.97L4.968,13.3a2.155,2.155,0,0,0,1.556.849h.283a1.816,1.816,0,0,0,1.414-.566L19.393,3.823A2.219,2.219,0,0,0,19.535.712,2.219,2.219,0,0,0,16.423.57Z" transform="matrix(0.998, -0.07, 0.07, 0.998, 286.941, 523.661)" fill="#63ab46"/>
  </g>
</svg>
