<svg xmlns="http://www.w3.org/2000/svg" width="125.4" height="150.011" viewBox="0 0 125.4 150.011">
  <g id="Deposit" transform="translate(-14.4 0.011)">
    <path id="XMLID_335_" d="M132.5,10.5a5.378,5.378,0,0,0-5.4-5.4H19.8a5.378,5.378,0,0,0-5.4,5.4V150h118V10.5Z" fill="#535e4b"/>
    <path id="XMLID_334_" d="M123.6,19.8a1,1,0,0,0-1-1H24.3a1,1,0,0,0-1,1V150H123.6V19.8Z" fill="#424647"/>
    <g id="XMLID_430_">
      <g id="XMLID_1166_">
        <g id="XMLID_1217_">
          <g id="XMLID_1262_">
            <g id="XMLID_1268_">
              <g id="XMLID_1269_">
                <path id="XMLID_333_" d="M26.2,90l-.5-34.7,22.2-1.8.4,34.6Z" fill="#acce81"/>
              </g>
            </g>
            <g id="XMLID_1263_">
              <g id="XMLID_1264_">
                <path id="XMLID_1265_" d="M26.6,56,47,54.3l.4,33.2L27,89.2,26.6,56Zm-1.8-1.3.5,36.1,23.9-2-.5-36.1-23.9,2Z" fill="#789b68"/>
              </g>
            </g>
          </g>
          <g id="XMLID_1259_">
            <g id="XMLID_1260_">
              <path id="XMLID_330_" d="M47.6,87.7a44.739,44.739,0,0,1-5.4.5,5.8,5.8,0,0,1,1.5-2.9,7.551,7.551,0,0,1,4-2.2A14.462,14.462,0,0,1,47.6,87.7Z" fill="#789b68"/>
            </g>
          </g>
          <g id="XMLID_1256_">
            <g id="XMLID_1257_">
              <path id="XMLID_329_" d="M32.6,88.8c-.5.6-3.4,1.1-6.4,1.4,0-2.4.1-5.1.8-5.7h0a5.744,5.744,0,0,1,3.7,1A3.987,3.987,0,0,1,32.6,88.8Z" fill="#789b68"/>
            </g>
          </g>
          <g id="XMLID_1253_">
            <g id="XMLID_1254_">
              <path id="XMLID_328_" d="M47.1,58.7h0a5.3,5.3,0,0,1-3.8-.9,3.936,3.936,0,0,1-1.6-3c.6-.5,3.3-.9,6.2-1.1C47.9,55.7,47.7,58,47.1,58.7Z" fill="#789b68"/>
            </g>
          </g>
          <g id="XMLID_1250_">
            <g id="XMLID_1251_">
              <path id="XMLID_327_" d="M30.8,58.4a7.842,7.842,0,0,1-4.1,2.2,19.861,19.861,0,0,1-.5-4.9,35.377,35.377,0,0,1,6.1-.3A5.058,5.058,0,0,1,30.8,58.4Z" fill="#789b68"/>
            </g>
          </g>
          <g id="XMLID_1236_">
            <g id="XMLID_1247_">
              <g id="XMLID_1248_">
                <path id="XMLID_326_" d="M43.3,72.7a9.938,9.938,0,0,1-6.4,2.7,8.827,8.827,0,0,1-5.6-1.2,2.6,2.6,0,0,1-1.2-2.1,3.688,3.688,0,0,1,1.2-2.6,9.938,9.938,0,0,1,6.4-2.7A8.827,8.827,0,0,1,43.3,68a2.6,2.6,0,0,1,1.2,2.1A3.688,3.688,0,0,1,43.3,72.7Z" fill="#789b68"/>
              </g>
            </g>
            <g id="XMLID_1242_">
              <g id="XMLID_1243_">
                <path id="XMLID_1244_" d="M30.2,68.8l2.2,1.5a9.691,9.691,0,0,1,5.8-2.5,6.639,6.639,0,0,1,4.4.8,1.219,1.219,0,0,1,.6,1.2,3.151,3.151,0,0,1-1,2.2,9.691,9.691,0,0,1-5.8,2.5,6.639,6.639,0,0,1-4.4-.8,1.219,1.219,0,0,1-.6-1.2,3.151,3.151,0,0,1,1-2.2l-2.2-1.5Zm-.1,0a4.265,4.265,0,0,0-1.3,3c.1,2.9,4,5,8.6,4.6a10.317,10.317,0,0,0,6.9-3,4.265,4.265,0,0,0,1.3-3c-.1-2.9-4-5-8.6-4.6a11.9,11.9,0,0,0-6.9,3Z" fill="#acce81"/>
              </g>
            </g>
            <g id="XMLID_1237_">
              <g id="XMLID_1238_">
                <path id="XMLID_1239_" d="M30.2,68.8l1.2.9A9.667,9.667,0,0,1,37.7,67a8.084,8.084,0,0,1,5.4,1.1,2.432,2.432,0,0,1,1.1,2,3.979,3.979,0,0,1-1.1,2.5,9.667,9.667,0,0,1-6.3,2.7,8.084,8.084,0,0,1-5.4-1.1,2.432,2.432,0,0,1-1.1-2,3.979,3.979,0,0,1,1.1-2.5l-1.2-.9Zm-.1,0a4.265,4.265,0,0,0-1.3,3c.1,2.9,4,5,8.6,4.6a10.317,10.317,0,0,0,6.9-3,4.265,4.265,0,0,0,1.3-3c-.1-2.9-4-5-8.6-4.6a11.9,11.9,0,0,0-6.9,3Z" fill="#789b68"/>
              </g>
            </g>
          </g>
          <g id="XMLID_1227_">
            <g id="XMLID_1233_">
              <g id="XMLID_1234_">
                <path id="XMLID_321_" d="M37.1,58.7c1.6-.1,3,.6,3,1.6s-1.3,1.9-3,2c-1.6.1-3-.6-3-1.6S35.5,58.8,37.1,58.7Z" fill="#789b68"/>
              </g>
            </g>
            <g id="XMLID_1228_">
              <g id="XMLID_1229_">
                <path id="XMLID_1230_" d="M35.8,60.6h0a2.738,2.738,0,0,1,1.9-.7,7.721,7.721,0,0,1,1,.1h0a.646.646,0,0,1-.2.5,2.738,2.738,0,0,1-1.9.7,7.721,7.721,0,0,1-1-.1h0c0-.1,0-.2.2-.5Zm-1.2-.8a1.284,1.284,0,0,0-.4,1c0,1,1.4,1.7,3,1.6a4.129,4.129,0,0,0,2.5-1,1.284,1.284,0,0,0,.4-1c0-1-1.4-1.7-3-1.6a3.22,3.22,0,0,0-2.5,1Z" fill="#789b68"/>
              </g>
            </g>
          </g>
          <g id="XMLID_1218_">
            <g id="XMLID_1224_">
              <g id="XMLID_1225_">
                <path id="XMLID_318_" d="M37.5,80.3c1.6-.1,3,.6,3,1.6s-1.3,1.9-3,2c-1.6.1-3-.6-3-1.6S35.8,80.4,37.5,80.3Z" fill="#789b68"/>
              </g>
            </g>
            <g id="XMLID_1219_">
              <g id="XMLID_1220_">
                <path id="XMLID_1221_" d="M36.2,82.2h0a2.738,2.738,0,0,1,1.9-.7,7.721,7.721,0,0,1,1,.1h0a.646.646,0,0,1-.2.5,2.738,2.738,0,0,1-1.9.7,7.721,7.721,0,0,1-1-.1h0a.646.646,0,0,1,.2-.5ZM35,81.3a1.284,1.284,0,0,0-.4,1c0,1,1.4,1.7,3,1.6a4.129,4.129,0,0,0,2.5-1,1.284,1.284,0,0,0,.4-1c0-1-1.4-1.7-3-1.6a4.129,4.129,0,0,0-2.5,1Z" fill="#789b68"/>
              </g>
            </g>
          </g>
        </g>
        <g id="XMLID_1207_">
          <g id="XMLID_1214_">
            <g id="XMLID_1215_">
              <path id="XMLID_315_" d="M49.3,88.7l-.5-35.9,12.1,8.3.5,36Z" fill="#6b825f"/>
            </g>
          </g>
          <g id="XMLID_1208_">
            <g id="XMLID_1209_">
              <g id="XMLID_1210_">
                <path id="XMLID_1211_" d="M48.9,52.9l11.9,8.2.5,35.8L49.4,88.7l-.5-35.8Zm-.2-.2.5,36.1,12.2,8.5L61,61.1,48.7,52.7Z" fill="#6b825f"/>
              </g>
            </g>
          </g>
        </g>
        <g id="XMLID_1200_">
          <g id="XMLID_1205_">
            <path id="XMLID_312_" d="M25.3,90.8l23.9-2,12.2,8.4-23.8,2Z" fill="#72894c"/>
          </g>
          <g id="XMLID_1201_">
            <path id="XMLID_1202_" d="M61.5,97.2h0l-24,2L25.2,90.7h.1l23.9-2Zm-23.9,2,23.8-2L49.3,88.8l-23.8,2Z" fill="#7e9b56"/>
          </g>
        </g>
        <g id="XMLID_1183_" opacity="0.5">
          <g id="XMLID_1198_">
            <path id="XMLID_309_" d="M60.6,96.6l-24.1,2-.3-.5,23.7-2-.5-35.9.7.2Z" fill="#acce81"/>
          </g>
          <g id="XMLID_1196_">
            <path id="XMLID_308_" d="M59,95.5l-24.1,2-.3-.5,23.7-2-.5-35.9.7.2Z" fill="#acce81"/>
          </g>
          <g id="XMLID_1194_">
            <path id="XMLID_307_" d="M57.4,94.5l-24.1,2-.3-.6,23.7-2L56.2,58l.8.2Z" fill="#acce81"/>
          </g>
          <g id="XMLID_1192_">
            <path id="XMLID_306_" d="M55.9,93.4l-24.1,2-.3-.6,23.6-2-.4-35.9.7.2Z" fill="#acce81"/>
          </g>
          <g id="XMLID_1190_">
            <path id="XMLID_305_" d="M54.3,92.3l-24.1,2-.3-.6,23.7-2-.5-35.9.7.2Z" fill="#acce81"/>
          </g>
          <g id="XMLID_1188_">
            <path id="XMLID_304_" d="M52.7,91.2l-24.1,2-.3-.6,23.7-2-.5-35.9.7.2Z" fill="#acce81"/>
          </g>
          <g id="XMLID_1186_">
            <path id="XMLID_303_" d="M51.1,90.1,27,92.1l-.3-.6,23.7-1.9-.5-36,.7.2Z" fill="#acce81"/>
          </g>
          <g id="XMLID_1184_">
            <path id="XMLID_302_" d="M49.5,89,25.4,91l-.3-.6,23.7-1.9-.5-36,.7.2Z" fill="#acce81"/>
          </g>
        </g>
        <g id="XMLID_1173_" opacity="0.2">
          <g id="XMLID_1180_">
            <g id="XMLID_1181_">
              <path id="XMLID_301_" d="M49.6,89l-.4-36,11.7,8.1.5,36Z" fill="#6b825f"/>
            </g>
          </g>
          <g id="XMLID_1174_">
            <g id="XMLID_1175_">
              <g id="XMLID_1176_">
                <path id="XMLID_1177_" d="M49.2,53.2l11.5,8L61.2,97,49.7,89l-.5-35.8Zm-.1-.3L49.6,89l11.9,8.2L61,61.1,49.1,52.9Z" fill="#6b825f"/>
              </g>
            </g>
          </g>
        </g>
        <g id="XMLID_1170_">
          <g id="XMLID_1171_">
            <path id="XMLID_298_" d="M49,66.8v6.3l-24,2,.1-6.3Z" fill="#f0ee9b"/>
          </g>
        </g>
        <g id="XMLID_1167_">
          <g id="XMLID_1168_">
            <path id="XMLID_297_" d="M49,66.8v6.3l12.2,8.5V75.2Z" fill="#b1a178"/>
          </g>
        </g>
      </g>
      <g id="XMLID_1061_">
        <g id="XMLID_1112_">
          <g id="XMLID_1157_">
            <g id="XMLID_1163_">
              <g id="XMLID_1164_">
                <path id="XMLID_296_" d="M64.5,97.5,64,62.9l22.2-1.8.4,34.6Z" fill="#acce81"/>
              </g>
            </g>
            <g id="XMLID_1158_">
              <g id="XMLID_1159_">
                <path id="XMLID_1160_" d="M64.9,63.6l20.4-1.7L85.8,95,65.4,96.7l-.5-33.1Zm-1.8-1.4.5,36.1,23.9-2L87,60.2l-23.9,2Z" fill="#789b68"/>
              </g>
            </g>
          </g>
          <g id="XMLID_1154_">
            <g id="XMLID_1155_">
              <path id="XMLID_293_" d="M85.9,95.2a44.739,44.739,0,0,1-5.4.5A5.8,5.8,0,0,1,82,92.8a7.551,7.551,0,0,1,4-2.2A14.464,14.464,0,0,1,85.9,95.2Z" fill="#789b68"/>
            </g>
          </g>
          <g id="XMLID_1151_">
            <g id="XMLID_1152_">
              <path id="XMLID_292_" d="M71,96.4c-.5.6-3.4,1.1-6.4,1.4,0-2.4.1-5.1.8-5.7h0a5.744,5.744,0,0,1,3.7,1A4.539,4.539,0,0,1,71,96.4Z" fill="#789b68"/>
            </g>
          </g>
          <g id="XMLID_1148_">
            <g id="XMLID_1149_">
              <path id="XMLID_291_" d="M85.4,66.2h0a5.3,5.3,0,0,1-3.8-.9,3.936,3.936,0,0,1-1.6-3c.6-.5,3.3-1,6.2-1.1C86.2,63.3,86,65.6,85.4,66.2Z" fill="#789b68"/>
            </g>
          </g>
          <g id="XMLID_1145_">
            <g id="XMLID_1146_">
              <path id="XMLID_290_" d="M69.1,66A7.842,7.842,0,0,1,65,68.2a19.861,19.861,0,0,1-.5-4.9,35.377,35.377,0,0,1,6.1-.3A5.058,5.058,0,0,1,69.1,66Z" fill="#789b68"/>
            </g>
          </g>
          <g id="XMLID_1131_">
            <g id="XMLID_1142_">
              <g id="XMLID_1143_">
                <path id="XMLID_289_" d="M81.6,80.3A9.938,9.938,0,0,1,75.2,83a8.827,8.827,0,0,1-5.6-1.2,2.6,2.6,0,0,1-1.2-2.1,3.688,3.688,0,0,1,1.2-2.6A9.938,9.938,0,0,1,76,74.4a8.827,8.827,0,0,1,5.6,1.2,2.6,2.6,0,0,1,1.2,2.1A3.688,3.688,0,0,1,81.6,80.3Z" fill="#789b68"/>
              </g>
            </g>
            <g id="XMLID_1137_">
              <g id="XMLID_1138_">
                <path id="XMLID_1139_" d="M70.6,77.9h0a9.691,9.691,0,0,1,5.8-2.5,6.639,6.639,0,0,1,4.4.8,1.219,1.219,0,0,1,.6,1.2,3.151,3.151,0,0,1-1,2.2,9.691,9.691,0,0,1-5.8,2.5,6.639,6.639,0,0,1-4.4-.8,1.219,1.219,0,0,1-.6-1.2,3.646,3.646,0,0,1,1-2.2Zm-2.1-1.5a4.265,4.265,0,0,0-1.3,3c.1,2.9,4,5,8.6,4.6a10.317,10.317,0,0,0,6.9-3A4.265,4.265,0,0,0,84,78c-.1-2.9-4-5-8.6-4.6a11.344,11.344,0,0,0-6.9,3Z" fill="#acce81"/>
              </g>
            </g>
            <g id="XMLID_1132_">
              <g id="XMLID_1133_">
                <path id="XMLID_1134_" d="M69.7,77.3h0A9.667,9.667,0,0,1,76,74.6a8.084,8.084,0,0,1,5.4,1.1,2.432,2.432,0,0,1,1.1,2,3.979,3.979,0,0,1-1.1,2.5,9.667,9.667,0,0,1-6.3,2.7,8.084,8.084,0,0,1-5.4-1.1,2.432,2.432,0,0,1-1.1-2,3.026,3.026,0,0,1,1.1-2.5Zm-1.2-.9a4.265,4.265,0,0,0-1.3,3c.1,2.9,4,5,8.6,4.6a10.317,10.317,0,0,0,6.9-3A4.265,4.265,0,0,0,84,78c-.1-2.9-4-5-8.6-4.6a11.344,11.344,0,0,0-6.9,3Z" fill="#789b68"/>
              </g>
            </g>
          </g>
          <g id="XMLID_1122_">
            <g id="XMLID_1128_">
              <g id="XMLID_1129_">
                <path id="XMLID_284_" d="M75.4,66.3c1.6-.1,3,.6,3,1.6s-1.3,1.9-3,2c-1.6.1-3-.6-3-1.6S73.8,66.4,75.4,66.3Z" fill="#789b68"/>
              </g>
            </g>
            <g id="XMLID_1123_">
              <g id="XMLID_1124_">
                <path id="XMLID_1125_" d="M74.1,68.2h0a2.738,2.738,0,0,1,1.9-.7,7.721,7.721,0,0,1,1,.1h0a.646.646,0,0,1-.2.5,2.738,2.738,0,0,1-1.9.7,7.721,7.721,0,0,1-1-.1h0a.646.646,0,0,1,.2-.5Zm-1.2-.9a1.284,1.284,0,0,0-.4,1c0,1,1.4,1.7,3,1.6a4.129,4.129,0,0,0,2.5-1,1.284,1.284,0,0,0,.4-1c0-1-1.4-1.7-3-1.6a4.129,4.129,0,0,0-2.5,1Z" fill="#789b68"/>
              </g>
            </g>
          </g>
          <g id="XMLID_1113_">
            <g id="XMLID_1119_">
              <g id="XMLID_1120_">
                <path id="XMLID_281_" d="M75.8,87.9c1.6-.1,3,.6,3,1.6s-1.3,1.9-3,2c-1.6.1-3-.6-3-1.6S74.2,88,75.8,87.9Z" fill="#789b68"/>
              </g>
            </g>
            <g id="XMLID_1114_">
              <g id="XMLID_1115_">
                <path id="XMLID_1116_" d="M74.5,89.7h0a2.738,2.738,0,0,1,1.9-.7,7.721,7.721,0,0,1,1,.1h0a.646.646,0,0,1-.2.5,2.738,2.738,0,0,1-1.9.7,7.721,7.721,0,0,1-1-.1h0a1.01,1.01,0,0,1,.2-.5Zm-1.2-.8a1.284,1.284,0,0,0-.4,1c0,1,1.4,1.7,3,1.6a4.129,4.129,0,0,0,2.5-1,1.284,1.284,0,0,0,.4-1c0-1-1.4-1.7-3-1.6a3.22,3.22,0,0,0-2.5,1Z" fill="#789b68"/>
              </g>
            </g>
          </g>
        </g>
        <g id="XMLID_1102_">
          <g id="XMLID_1109_">
            <g id="XMLID_1110_">
              <path id="XMLID_278_" d="M87.6,96.3l-.5-35.9,12.1,8.3.5,35.9Z" fill="#6b825f"/>
            </g>
          </g>
          <g id="XMLID_1103_">
            <g id="XMLID_1104_">
              <g id="XMLID_1105_">
                <path id="XMLID_1106_" d="M87.2,60.5l11.9,8.2.5,35.8L87.7,96.3l-.5-35.8Zm-.1-.3.5,36.1,12.2,8.5-.5-36.1L87.1,60.2Z" fill="#6b825f"/>
              </g>
            </g>
          </g>
        </g>
        <g id="XMLID_1095_">
          <g id="XMLID_1100_">
            <path id="XMLID_275_" d="M63.6,98.3l23.9-1.9,12.3,8.4-23.9,2Z" fill="#72894c"/>
          </g>
          <g id="XMLID_1096_">
            <path id="XMLID_1097_" d="M99.9,104.8h0l-24,2L63.6,98.3h.1l23.9-2Zm-24,1.9,23.8-2L87.6,96.3l-23.8,2Z" fill="#7e9b56"/>
          </g>
        </g>
        <g id="XMLID_1078_" opacity="0.5">
          <g id="XMLID_1093_">
            <path id="XMLID_272_" d="M98.9,104.2l-24.1,2-.3-.5,23.7-2-.5-35.9.7.2Z" fill="#acce81"/>
          </g>
          <g id="XMLID_1091_">
            <path id="XMLID_271_" d="M97.3,103.1l-24.1,2-.3-.5,23.7-2-.5-35.9.8.2Z" fill="#acce81"/>
          </g>
          <g id="XMLID_1089_">
            <path id="XMLID_270_" d="M95.8,102l-24.1,2-.3-.5,23.6-2-.4-35.9.7.2Z" fill="#acce81"/>
          </g>
          <g id="XMLID_1087_">
            <path id="XMLID_269_" d="M94.2,100.9l-24.1,2-.3-.5,23.7-2L93,64.5l.7.2Z" fill="#acce81"/>
          </g>
          <g id="XMLID_1085_">
            <path id="XMLID_268_" d="M92.6,99.8l-24.1,2-.3-.5,23.7-2-.5-35.9.7.2Z" fill="#acce81"/>
          </g>
          <g id="XMLID_1083_">
            <path id="XMLID_267_" d="M91,98.7l-24.1,2-.3-.5,23.7-2-.5-35.9.7.2Z" fill="#acce81"/>
          </g>
          <g id="XMLID_1081_">
            <path id="XMLID_266_" d="M89.4,97.7l-24.1,2-.3-.6,23.7-2-.5-35.9.7.2Z" fill="#acce81"/>
          </g>
          <g id="XMLID_1079_">
            <path id="XMLID_265_" d="M87.8,96.6l-24.1,2-.3-.6,23.7-2-.5-35.9.7.2Z" fill="#acce81"/>
          </g>
        </g>
        <g id="XMLID_1068_" opacity="0.2">
          <g id="XMLID_1075_">
            <g id="XMLID_1076_">
              <path id="XMLID_264_" d="M88,96.5l-.5-35.9,11.7,8.1.5,35.9Z" fill="#6b825f"/>
            </g>
          </g>
          <g id="XMLID_1069_">
            <g id="XMLID_1070_">
              <g id="XMLID_1071_">
                <path id="XMLID_1072_" d="M87.6,60.7l11.5,8,.5,35.8-11.5-8-.5-35.8Zm-.2-.2.5,36.1,11.9,8.2-.5-36.1L87.4,60.5Z" fill="#6b825f"/>
              </g>
            </g>
          </g>
        </g>
        <g id="XMLID_1065_">
          <g id="XMLID_1066_">
            <path id="XMLID_261_" d="M87.3,74.4v6.3l-23.9,2V76.4Z" fill="#f0ee9b"/>
          </g>
        </g>
        <g id="XMLID_1062_">
          <g id="XMLID_1063_">
            <path id="XMLID_260_" d="M87,74.2l-.1,6.3,12.7,8.7-.1-6.4Z" fill="#b1a178"/>
          </g>
        </g>
      </g>
      <g id="XMLID_956_">
        <g id="XMLID_1007_">
          <g id="XMLID_1052_">
            <g id="XMLID_1058_">
              <g id="XMLID_1059_">
                <path id="XMLID_259_" d="M89.2,95.3l-.5-34.6,22.2-1.9.4,34.7Z" fill="#acce81"/>
              </g>
            </g>
            <g id="XMLID_1053_">
              <g id="XMLID_1054_">
                <path id="XMLID_1055_" d="M89.6,61.4,110,59.7l.4,33.2L90,94.6l-.4-33.2ZM87.8,60l.5,36.1,23.9-2L111.7,58,87.8,60Z" fill="#789b68"/>
              </g>
            </g>
          </g>
          <g id="XMLID_1049_">
            <g id="XMLID_1050_">
              <path id="XMLID_256_" d="M110.6,93a44.739,44.739,0,0,1-5.4.5,5.8,5.8,0,0,1,1.5-2.9,7.551,7.551,0,0,1,4-2.2A14.463,14.463,0,0,1,110.6,93Z" fill="#789b68"/>
            </g>
          </g>
          <g id="XMLID_1046_">
            <g id="XMLID_1047_">
              <path id="XMLID_255_" d="M95.6,94.2c-.5.6-3.4,1.1-6.4,1.4,0-2.4.1-5.1.8-5.7h0a5.744,5.744,0,0,1,3.7,1A3.987,3.987,0,0,1,95.6,94.2Z" fill="#789b68"/>
            </g>
          </g>
          <g id="XMLID_1043_">
            <g id="XMLID_1044_">
              <path id="XMLID_254_" d="M110.1,64c0,.1-.1.1,0,0a5.3,5.3,0,0,1-3.8-.9,3.936,3.936,0,0,1-1.6-3c.6-.5,3.3-1,6.2-1.1C110.9,61.1,110.7,63.4,110.1,64Z" fill="#789b68"/>
            </g>
          </g>
          <g id="XMLID_1040_">
            <g id="XMLID_1041_">
              <path id="XMLID_253_" d="M93.8,63.8A7.842,7.842,0,0,1,89.7,66a19.861,19.861,0,0,1-.5-4.9,35.377,35.377,0,0,1,6.1-.3A5.058,5.058,0,0,1,93.8,63.8Z" fill="#789b68"/>
            </g>
          </g>
          <g id="XMLID_1026_">
            <g id="XMLID_1037_">
              <g id="XMLID_1038_">
                <path id="XMLID_252_" d="M106.3,78.1a9.938,9.938,0,0,1-6.4,2.7,8.827,8.827,0,0,1-5.6-1.2,2.6,2.6,0,0,1-1.2-2.1,3.688,3.688,0,0,1,1.2-2.6,9.938,9.938,0,0,1,6.4-2.7,8.827,8.827,0,0,1,5.6,1.2,2.6,2.6,0,0,1,1.2,2.1A3.688,3.688,0,0,1,106.3,78.1Z" fill="#789b68"/>
              </g>
            </g>
            <g id="XMLID_1032_">
              <g id="XMLID_1033_">
                <path id="XMLID_1034_" d="M93.1,74.2l2.2,1.5a9.691,9.691,0,0,1,5.8-2.5,6.639,6.639,0,0,1,4.4.8,1.219,1.219,0,0,1,.6,1.2,3.151,3.151,0,0,1-1,2.2,9.691,9.691,0,0,1-5.8,2.5,6.639,6.639,0,0,1-4.4-.8,1.219,1.219,0,0,1-.6-1.2,3.151,3.151,0,0,1,1-2.2l-2.2-1.5Zm0,0a4.265,4.265,0,0,0-1.3,3c.1,2.9,4,5,8.6,4.6a10.317,10.317,0,0,0,6.9-3,4.265,4.265,0,0,0,1.3-3c-.1-2.9-4-5-8.6-4.6a11.305,11.305,0,0,0-6.9,3Z" fill="#acce81"/>
              </g>
            </g>
            <g id="XMLID_1027_">
              <g id="XMLID_1028_">
                <path id="XMLID_1029_" d="M93.1,74.2l1.2.9a9.667,9.667,0,0,1,6.3-2.7,8.084,8.084,0,0,1,5.4,1.1,2.432,2.432,0,0,1,1.1,2A3.979,3.979,0,0,1,106,78a9.667,9.667,0,0,1-6.3,2.7,8.084,8.084,0,0,1-5.4-1.1,2.432,2.432,0,0,1-1.1-2,3.979,3.979,0,0,1,1.1-2.5l-1.2-.9Zm0,0a4.265,4.265,0,0,0-1.3,3c.1,2.9,4,5,8.6,4.6a10.317,10.317,0,0,0,6.9-3,4.265,4.265,0,0,0,1.3-3c-.1-2.9-4-5-8.6-4.6a11.305,11.305,0,0,0-6.9,3Z" fill="#789b68"/>
              </g>
            </g>
          </g>
          <g id="XMLID_1017_">
            <g id="XMLID_1023_">
              <g id="XMLID_1024_">
                <path id="XMLID_247_" d="M100.1,64.1c1.6-.1,3,.6,3,1.6s-1.3,1.9-3,2c-1.6.1-3-.6-3-1.6S98.5,64.2,100.1,64.1Z" fill="#789b68"/>
              </g>
            </g>
            <g id="XMLID_1018_">
              <g id="XMLID_1019_">
                <path id="XMLID_1020_" d="M98.8,66h0a2.738,2.738,0,0,1,1.9-.7,7.721,7.721,0,0,1,1,.1h0a.646.646,0,0,1-.2.5,2.738,2.738,0,0,1-1.9.7,7.721,7.721,0,0,1-1-.1h0a.646.646,0,0,1,.2-.5Zm-1.2-.9a1.284,1.284,0,0,0-.4,1c0,1,1.4,1.7,3,1.6a4.129,4.129,0,0,0,2.5-1,1.284,1.284,0,0,0,.4-1c0-1-1.4-1.7-3-1.6a4.129,4.129,0,0,0-2.5,1Z" fill="#789b68"/>
              </g>
            </g>
          </g>
          <g id="XMLID_1008_">
            <g id="XMLID_1014_">
              <g id="XMLID_1015_">
                <path id="XMLID_244_" d="M100.5,85.7c1.6-.1,3,.6,3,1.6s-1.3,1.9-3,2c-1.6.1-3-.6-3-1.6S98.8,85.8,100.5,85.7Z" fill="#789b68"/>
              </g>
            </g>
            <g id="XMLID_1009_">
              <g id="XMLID_1010_">
                <path id="XMLID_1011_" d="M99.2,87.5h0a2.738,2.738,0,0,1,1.9-.7,7.721,7.721,0,0,1,1,.1h0a.646.646,0,0,1-.2.5,2.738,2.738,0,0,1-1.9.7,7.721,7.721,0,0,1-1-.1h0a1.01,1.01,0,0,1,.2-.5ZM98,86.7a1.284,1.284,0,0,0-.4,1c0,1,1.4,1.7,3,1.6a4.129,4.129,0,0,0,2.5-1,1.284,1.284,0,0,0,.4-1c0-1-1.4-1.7-3-1.6a3.22,3.22,0,0,0-2.5,1Z" fill="#789b68"/>
              </g>
            </g>
          </g>
        </g>
        <g id="XMLID_997_">
          <g id="XMLID_1004_">
            <g id="XMLID_1005_">
              <path id="XMLID_241_" d="M112.3,94.1l-.5-35.9,12.1,8.3.5,35.9Z" fill="#6b825f"/>
            </g>
          </g>
          <g id="XMLID_998_">
            <g id="XMLID_999_">
              <g id="XMLID_1000_">
                <path id="XMLID_1001_" d="M111.9,58.3l11.9,8.2.5,35.8-11.9-8.2-.5-35.8Zm-.2-.3.5,36.1,12.2,8.5L124,66.5,111.7,58Z" fill="#6b825f"/>
              </g>
            </g>
          </g>
        </g>
        <g id="XMLID_990_">
          <g id="XMLID_995_">
            <path id="XMLID_238_" d="M88.3,96.1l23.9-2,12.2,8.5-23.8,2Z" fill="#72894c"/>
          </g>
          <g id="XMLID_991_">
            <path id="XMLID_992_" d="M124.5,102.6h0l-24,2L88.2,96.1h.1l23.9-2Zm-23.9,1.9,23.8-2-12.1-8.4-23.8,2Z" fill="#7e9b56"/>
          </g>
        </g>
        <g id="XMLID_973_" opacity="0.5">
          <g id="XMLID_988_">
            <path id="XMLID_235_" d="M123.6,102l-24.1,2-.3-.6,23.7-1.9-.5-35.9.7.1Z" fill="#acce81"/>
          </g>
          <g id="XMLID_986_">
            <path id="XMLID_234_" d="M122,100.9l-24.1,2-.3-.5,23.7-2-.5-35.9.7.2Z" fill="#acce81"/>
          </g>
          <g id="XMLID_984_">
            <path id="XMLID_233_" d="M120.4,99.8l-24.1,2-.3-.5,23.7-2-.5-35.9.8.2Z" fill="#acce81"/>
          </g>
          <g id="XMLID_982_">
            <path id="XMLID_232_" d="M118.9,98.7l-24.1,2-.3-.5,23.6-2-.4-35.9.7.2Z" fill="#acce81"/>
          </g>
          <g id="XMLID_980_">
            <path id="XMLID_231_" d="M117.3,97.6l-24.1,2-.3-.5,23.7-2-.5-35.9.7.2Z" fill="#acce81"/>
          </g>
          <g id="XMLID_978_">
            <path id="XMLID_230_" d="M115.7,96.5l-24.1,2-.3-.5L115,96l-.5-35.9.7.2Z" fill="#acce81"/>
          </g>
          <g id="XMLID_976_">
            <path id="XMLID_229_" d="M114.1,95.5,90,97.5l-.3-.6,23.7-2L112.9,59l.7.2Z" fill="#acce81"/>
          </g>
          <g id="XMLID_974_">
            <path id="XMLID_228_" d="M112.5,94.4l-24.1,2-.3-.6,23.7-2-.5-35.9.7.2Z" fill="#acce81"/>
          </g>
        </g>
        <g id="XMLID_963_" opacity="0.2">
          <g id="XMLID_970_">
            <g id="XMLID_971_">
              <path id="XMLID_227_" d="M112.6,94.3l-.4-35.9,11.7,8.1.5,35.9Z" fill="#6b825f"/>
            </g>
          </g>
          <g id="XMLID_964_">
            <g id="XMLID_965_">
              <g id="XMLID_966_">
                <path id="XMLID_967_" d="M112.2,58.5l11.5,8,.5,35.8-11.5-8-.5-35.8Zm-.1-.2.5,36.1,11.9,8.2L124,66.5l-11.9-8.2Z" fill="#6b825f"/>
              </g>
            </g>
          </g>
        </g>
        <g id="XMLID_960_">
          <g id="XMLID_961_">
            <path id="XMLID_224_" d="M112,72.2l-.1,6.3L88,80.5l.1-6.3Z" fill="#f0ee9b"/>
          </g>
        </g>
        <g id="XMLID_957_">
          <g id="XMLID_958_">
            <path id="XMLID_223_" d="M111.7,72l-.1,6.3L124.2,87V80.6Z" fill="#b1a178"/>
          </g>
        </g>
      </g>
      <g id="XMLID_851_">
        <g id="XMLID_902_">
          <g id="XMLID_947_">
            <g id="XMLID_953_">
              <g id="XMLID_954_">
                <path id="XMLID_222_" d="M51.1,88l-.4-34.6,22.1-1.9.5,34.6Z" fill="#acce81"/>
              </g>
            </g>
            <g id="XMLID_948_">
              <g id="XMLID_949_">
                <path id="XMLID_950_" d="M51.5,54l20.4-1.7.4,33.2L52,87.2,51.5,54Zm-1.7-1.3.5,36.1,23.9-2-.5-36.1-23.9,2Z" fill="#789b68"/>
              </g>
            </g>
          </g>
          <g id="XMLID_944_">
            <g id="XMLID_945_">
              <path id="XMLID_219_" d="M72.5,85.7a44.739,44.739,0,0,1-5.4.5,5.8,5.8,0,0,1,1.5-2.9,7.551,7.551,0,0,1,4-2.2A14.463,14.463,0,0,1,72.5,85.7Z" fill="#789b68"/>
            </g>
          </g>
          <g id="XMLID_941_">
            <g id="XMLID_942_">
              <path id="XMLID_218_" d="M57.6,86.8c-.5.6-3.4,1.1-6.4,1.4,0-2.4.1-5.1.8-5.7h0a5.744,5.744,0,0,1,3.7,1A4.729,4.729,0,0,1,57.6,86.8Z" fill="#789b68"/>
            </g>
          </g>
          <g id="XMLID_938_">
            <g id="XMLID_939_">
              <path id="XMLID_217_" d="M72,56.7h0a5.3,5.3,0,0,1-3.8-.9,3.936,3.936,0,0,1-1.6-3c.6-.5,3.3-.9,6.2-1.1C72.8,53.8,72.6,56.1,72,56.7Z" fill="#789b68"/>
            </g>
          </g>
          <g id="XMLID_935_">
            <g id="XMLID_936_">
              <path id="XMLID_216_" d="M55.8,56.4a7.842,7.842,0,0,1-4.1,2.2,19.861,19.861,0,0,1-.5-4.9,35.376,35.376,0,0,1,6.1-.3A6.1,6.1,0,0,1,55.8,56.4Z" fill="#789b68"/>
            </g>
          </g>
          <g id="XMLID_921_">
            <g id="XMLID_932_">
              <g id="XMLID_933_">
                <path id="XMLID_215_" d="M68.2,70.8a9.938,9.938,0,0,1-6.4,2.7,8.827,8.827,0,0,1-5.6-1.2A2.467,2.467,0,0,1,55,70.2a3.688,3.688,0,0,1,1.2-2.6,9.938,9.938,0,0,1,6.4-2.7,8.827,8.827,0,0,1,5.6,1.2,2.6,2.6,0,0,1,1.2,2.1A3.688,3.688,0,0,1,68.2,70.8Z" fill="#789b68"/>
              </g>
            </g>
            <g id="XMLID_927_">
              <g id="XMLID_928_">
                <path id="XMLID_929_" d="M57.2,68.4h0A9.691,9.691,0,0,1,63,65.9a6.639,6.639,0,0,1,4.4.8,1.219,1.219,0,0,1,.6,1.2,3.151,3.151,0,0,1-1,2.2,9.691,9.691,0,0,1-5.8,2.5,6.639,6.639,0,0,1-4.4-.8,1.219,1.219,0,0,1-.6-1.2,3.416,3.416,0,0,1,1-2.2Zm-2.1-1.5a4.265,4.265,0,0,0-1.3,3c.1,2.9,4,5,8.6,4.6a10.317,10.317,0,0,0,6.9-3,4.265,4.265,0,0,0,1.3-3c-.1-2.9-4-5-8.6-4.6-2.9.3-5.5,1.4-6.9,3Z" fill="#acce81"/>
              </g>
            </g>
            <g id="XMLID_922_">
              <g id="XMLID_923_">
                <path id="XMLID_924_" d="M56.3,67.7h0A9.667,9.667,0,0,1,62.6,65,8.084,8.084,0,0,1,68,66.1a2.432,2.432,0,0,1,1.1,2A3.979,3.979,0,0,1,68,70.6a9.667,9.667,0,0,1-6.3,2.7,8.084,8.084,0,0,1-5.4-1.1,2.432,2.432,0,0,1-1.1-2,3.979,3.979,0,0,1,1.1-2.5Zm-1.2-.8a4.265,4.265,0,0,0-1.3,3c.1,2.9,4,5,8.6,4.6a10.317,10.317,0,0,0,6.9-3,4.265,4.265,0,0,0,1.3-3c-.1-2.9-4-5-8.6-4.6-2.9.3-5.5,1.4-6.9,3Z" fill="#789b68"/>
              </g>
            </g>
          </g>
          <g id="XMLID_912_">
            <g id="XMLID_918_">
              <g id="XMLID_919_">
                <path id="XMLID_210_" d="M62,56.8c1.6-.1,3,.6,3,1.6s-1.3,1.9-3,2c-1.6.1-3-.6-3-1.6C59.1,57.8,60.4,56.9,62,56.8Z" fill="#789b68"/>
              </g>
            </g>
            <g id="XMLID_913_">
              <g id="XMLID_914_">
                <path id="XMLID_915_" d="M60.7,58.7h0a2.738,2.738,0,0,1,1.9-.7,7.721,7.721,0,0,1,1,.1h0a.646.646,0,0,1-.2.5,2.738,2.738,0,0,1-1.9.7,7.721,7.721,0,0,1-1-.1h0a.646.646,0,0,1,.2-.5Zm-1.2-.9a1.284,1.284,0,0,0-.4,1c0,1,1.4,1.7,3,1.6a4.129,4.129,0,0,0,2.5-1,1.284,1.284,0,0,0,.4-1c0-1-1.4-1.7-3-1.6a4.411,4.411,0,0,0-2.5,1Z" fill="#789b68"/>
              </g>
            </g>
          </g>
          <g id="XMLID_903_">
            <g id="XMLID_909_">
              <g id="XMLID_910_">
                <path id="XMLID_207_" d="M62.4,78.3c1.6-.1,3,.6,3,1.6s-1.3,1.9-3,2c-1.6.1-3-.6-3-1.6S60.8,78.4,62.4,78.3Z" fill="#789b68"/>
              </g>
            </g>
            <g id="XMLID_904_">
              <g id="XMLID_905_">
                <path id="XMLID_906_" d="M61.1,80.2h0a2.738,2.738,0,0,1,1.9-.7,7.721,7.721,0,0,1,1,.1h0a.646.646,0,0,1-.2.5,2.738,2.738,0,0,1-1.9.7,7.721,7.721,0,0,1-1-.1h0c0-.1,0-.2.2-.5Zm-1.2-.8a1.284,1.284,0,0,0-.4,1c0,1,1.4,1.7,3,1.6A4.129,4.129,0,0,0,65,81a1.284,1.284,0,0,0,.4-1c0-1-1.4-1.7-3-1.6a3.22,3.22,0,0,0-2.5,1Z" fill="#789b68"/>
              </g>
            </g>
          </g>
        </g>
        <g id="XMLID_892_">
          <g id="XMLID_899_">
            <g id="XMLID_900_">
              <path id="XMLID_204_" d="M74.2,86.8l-.4-35.9,12,8.3.5,35.9Z" fill="#6b825f"/>
            </g>
          </g>
          <g id="XMLID_893_">
            <g id="XMLID_894_">
              <g id="XMLID_895_">
                <path id="XMLID_896_" d="M73.9,51l11.9,8.2L86.2,95,74.3,86.8,73.9,51Zm-.2-.3.5,36.1,12.2,8.5-.5-36.1L73.7,50.7Z" fill="#6b825f"/>
              </g>
            </g>
          </g>
        </g>
        <g id="XMLID_885_">
          <g id="XMLID_890_">
            <path id="XMLID_201_" d="M50.2,88.8l23.9-2,12.3,8.5L62.5,97.2Z" fill="#72894c"/>
          </g>
          <g id="XMLID_886_">
            <path id="XMLID_887_" d="M86.5,95.3h0l-24,2L50.2,88.8h.1l23.9-2Zm-24,1.9,23.8-2L74.2,86.8l-23.8,2Z" fill="#7e9b56"/>
          </g>
        </g>
        <g id="XMLID_868_" opacity="0.5">
          <g id="XMLID_883_">
            <path id="XMLID_198_" d="M85.5,94.7l-24.1,2-.3-.6,23.7-1.9-.5-36,.8.2Z" fill="#acce81"/>
          </g>
          <g id="XMLID_881_">
            <path id="XMLID_197_" d="M84,93.6l-24.1,2-.3-.6,23.6-1.9-.4-35.9.7.1Z" fill="#acce81"/>
          </g>
          <g id="XMLID_879_">
            <path id="XMLID_196_" d="M82.4,92.5l-24.1,2-.3-.6L81.7,92l-.5-35.9.7.1Z" fill="#acce81"/>
          </g>
          <g id="XMLID_877_">
            <path id="XMLID_195_" d="M80.8,91.4l-24.1,2-.3-.6,23.7-1.9L79.6,55l.7.2Z" fill="#acce81"/>
          </g>
          <g id="XMLID_875_">
            <path id="XMLID_194_" d="M79.2,90.3l-24.1,2-.3-.5,23.7-2L78,53.9l.7.2Z" fill="#acce81"/>
          </g>
          <g id="XMLID_873_">
            <path id="XMLID_193_" d="M77.6,89.2l-24.1,2-.3-.5,23.7-2-.5-35.9.7.2Z" fill="#acce81"/>
          </g>
          <g id="XMLID_871_">
            <path id="XMLID_192_" d="M76,88.1l-24.1,2-.3-.5,23.7-2-.5-35.9.7.2Z" fill="#acce81"/>
          </g>
          <g id="XMLID_869_">
            <path id="XMLID_191_" d="M74.4,87,50.3,89l-.3-.5,23.7-2-.5-35.9.8.2Z" fill="#acce81"/>
          </g>
        </g>
        <g id="XMLID_858_" opacity="0.2">
          <g id="XMLID_865_">
            <g id="XMLID_866_">
              <path id="XMLID_190_" d="M74.6,87l-.5-35.9,11.7,8.1.5,35.9Z" fill="#6b825f"/>
            </g>
          </g>
          <g id="XMLID_859_">
            <g id="XMLID_860_">
              <g id="XMLID_861_">
                <path id="XMLID_862_" d="M74.2,51.2l11.5,8L86.2,95,74.7,87l-.5-35.8Zm-.2-.3L74.5,87l11.9,8.2-.5-36.1L74,50.9Z" fill="#6b825f"/>
              </g>
            </g>
          </g>
        </g>
        <g id="XMLID_855_">
          <g id="XMLID_856_">
            <path id="XMLID_187_" d="M73.9,64.9v6.3L50,73.2V66.9Z" fill="#f0ee9b"/>
          </g>
        </g>
        <g id="XMLID_852_">
          <g id="XMLID_853_">
            <path id="XMLID_186_" d="M73.9,64.8l-.1,6.3,12.4,8.5-.1-6.4Z" fill="#b1a178"/>
          </g>
        </g>
      </g>
      <g id="XMLID_746_">
        <g id="XMLID_797_">
          <g id="XMLID_842_">
            <g id="XMLID_848_">
              <g id="XMLID_849_">
                <path id="XMLID_185_" d="M76.3,85.8l-.5-34.6L98,49.4,98.4,84Z" fill="#acce81"/>
              </g>
            </g>
            <g id="XMLID_843_">
              <g id="XMLID_844_">
                <path id="XMLID_845_" d="M76.7,51.9l20.4-1.7.4,33.2L77.2,85l-.5-33.1Zm-1.8-1.4.5,36.1,23.9-2-.5-36.1-23.9,2Z" fill="#789b68"/>
              </g>
            </g>
          </g>
          <g id="XMLID_839_">
            <g id="XMLID_840_">
              <path id="XMLID_182_" d="M97.7,83.5a44.739,44.739,0,0,1-5.4.5,5.8,5.8,0,0,1,1.5-2.9,7.551,7.551,0,0,1,4-2.2A14.463,14.463,0,0,1,97.7,83.5Z" fill="#789b68"/>
            </g>
          </g>
          <g id="XMLID_836_">
            <g id="XMLID_837_">
              <path id="XMLID_181_" d="M82.7,84.7c-.5.6-3.4,1.1-6.4,1.4,0-2.4.1-5.1.8-5.7h0a5.744,5.744,0,0,1,3.7,1A3.987,3.987,0,0,1,82.7,84.7Z" fill="#789b68"/>
            </g>
          </g>
          <g id="XMLID_833_">
            <g id="XMLID_834_">
              <path id="XMLID_180_" d="M97.2,54.5h0a5.3,5.3,0,0,1-3.8-.9,3.936,3.936,0,0,1-1.6-3c.6-.5,3.3-1,6.2-1.1C98,51.6,97.8,53.9,97.2,54.5Z" fill="#789b68"/>
            </g>
          </g>
          <g id="XMLID_830_">
            <g id="XMLID_831_">
              <path id="XMLID_179_" d="M80.9,54.3a7.842,7.842,0,0,1-4.1,2.2,19.861,19.861,0,0,1-.5-4.9,35.377,35.377,0,0,1,6.1-.3A5.058,5.058,0,0,1,80.9,54.3Z" fill="#789b68"/>
            </g>
          </g>
          <g id="XMLID_816_">
            <g id="XMLID_827_">
              <g id="XMLID_828_">
                <path id="XMLID_178_" d="M93.4,68.6A9.938,9.938,0,0,1,87,71.3a8.827,8.827,0,0,1-5.6-1.2A2.6,2.6,0,0,1,80.2,68a3.688,3.688,0,0,1,1.2-2.6,9.938,9.938,0,0,1,6.4-2.7,8.826,8.826,0,0,1,5.6,1.2A2.6,2.6,0,0,1,94.6,66,3.688,3.688,0,0,1,93.4,68.6Z" fill="#789b68"/>
              </g>
            </g>
            <g id="XMLID_822_">
              <g id="XMLID_823_">
                <path id="XMLID_824_" d="M82.4,66.2h0a9.691,9.691,0,0,1,5.8-2.5,6.639,6.639,0,0,1,4.4.8,1.219,1.219,0,0,1,.6,1.2,3.151,3.151,0,0,1-1,2.2,9.691,9.691,0,0,1-5.8,2.5,6.639,6.639,0,0,1-4.4-.8,1.219,1.219,0,0,1-.6-1.2,3.646,3.646,0,0,1,1-2.2Zm-2.2-1.5a4.265,4.265,0,0,0-1.3,3c.1,2.9,4,5,8.6,4.6a10.317,10.317,0,0,0,6.9-3,4.265,4.265,0,0,0,1.3-3c-.1-2.9-4-5-8.6-4.6a11.9,11.9,0,0,0-6.9,3Z" fill="#acce81"/>
              </g>
            </g>
            <g id="XMLID_817_">
              <g id="XMLID_818_">
                <path id="XMLID_819_" d="M81.5,65.6h0a9.667,9.667,0,0,1,6.3-2.7A8.084,8.084,0,0,1,93.2,64a2.432,2.432,0,0,1,1.1,2,3.979,3.979,0,0,1-1.1,2.5,9.667,9.667,0,0,1-6.3,2.7,8.084,8.084,0,0,1-5.4-1.1,2.432,2.432,0,0,1-1.1-2,3.026,3.026,0,0,1,1.1-2.5Zm-1.3-.9a4.265,4.265,0,0,0-1.3,3c.1,2.9,4,5,8.6,4.6a10.317,10.317,0,0,0,6.9-3,4.265,4.265,0,0,0,1.3-3c-.1-2.9-4-5-8.6-4.6a11.9,11.9,0,0,0-6.9,3Z" fill="#789b68"/>
              </g>
            </g>
          </g>
          <g id="XMLID_807_">
            <g id="XMLID_813_">
              <g id="XMLID_814_">
                <path id="XMLID_173_" d="M87.2,54.6c1.6-.1,3,.6,3,1.6s-1.3,1.9-3,2c-1.6.1-3-.6-3-1.6S85.6,54.7,87.2,54.6Z" fill="#789b68"/>
              </g>
            </g>
            <g id="XMLID_808_">
              <g id="XMLID_809_">
                <path id="XMLID_810_" d="M85.9,56.5h0a2.738,2.738,0,0,1,1.9-.7,7.721,7.721,0,0,1,1,.1h0a.646.646,0,0,1-.2.5,2.738,2.738,0,0,1-1.9.7,7.721,7.721,0,0,1-1-.1h0a.646.646,0,0,1,.2-.5Zm-1.2-.9a1.284,1.284,0,0,0-.4,1c0,1,1.4,1.7,3,1.6a4.129,4.129,0,0,0,2.5-1,1.284,1.284,0,0,0,.4-1c0-1-1.4-1.7-3-1.6a4.129,4.129,0,0,0-2.5,1Z" fill="#789b68"/>
              </g>
            </g>
          </g>
          <g id="XMLID_798_">
            <g id="XMLID_804_">
              <g id="XMLID_805_">
                <path id="XMLID_170_" d="M87.6,76.2c1.6-.1,3,.6,3,1.6s-1.3,1.9-3,2c-1.6.1-3-.6-3-1.6S85.9,76.3,87.6,76.2Z" fill="#789b68"/>
              </g>
            </g>
            <g id="XMLID_799_">
              <g id="XMLID_800_">
                <path id="XMLID_801_" d="M86.3,78h0a2.738,2.738,0,0,1,1.9-.7,7.721,7.721,0,0,1,1,.1h0a.646.646,0,0,1-.2.5,2.738,2.738,0,0,1-1.9.7,7.721,7.721,0,0,1-1-.1h0c-.1,0,0-.2.2-.5Zm-1.2-.8a1.284,1.284,0,0,0-.4,1c0,1,1.4,1.7,3,1.6a4.129,4.129,0,0,0,2.5-1,1.284,1.284,0,0,0,.4-1c0-1-1.4-1.7-3-1.6a3.22,3.22,0,0,0-2.5,1Z" fill="#789b68"/>
              </g>
            </g>
          </g>
        </g>
        <g id="XMLID_787_">
          <g id="XMLID_794_">
            <g id="XMLID_795_">
              <path id="XMLID_167_" d="M99.4,84.6l-.5-35.9L111,57l.5,35.9Z" fill="#6b825f"/>
            </g>
          </g>
          <g id="XMLID_788_">
            <g id="XMLID_789_">
              <g id="XMLID_790_">
                <path id="XMLID_791_" d="M99,48.8,110.9,57l.5,35.8L99.5,84.6,99,48.8Zm-.2-.3.5,36.1,12.2,8.5L111.1,57,98.8,48.5Z" fill="#6b825f"/>
              </g>
            </g>
          </g>
        </g>
        <g id="XMLID_780_">
          <g id="XMLID_785_">
            <path id="XMLID_164_" d="M75.4,86.6l23.9-2,12.2,8.5-23.9,2Z" fill="#72894c"/>
          </g>
          <g id="XMLID_781_">
            <path id="XMLID_782_" d="M111.6,93.1h0l-24,2L75.3,86.6h.1l23.9-2ZM87.6,95l23.8-2L99.3,84.6l-23.8,2Z" fill="#7e9b56"/>
          </g>
        </g>
        <g id="XMLID_763_" opacity="0.5">
          <g id="XMLID_778_">
            <path id="XMLID_161_" d="M110.7,92.5l-24.1,2-.3-.6L110,92l-.5-35.9.7.2Z" fill="#acce81"/>
          </g>
          <g id="XMLID_776_">
            <path id="XMLID_160_" d="M109.1,91.4,85,93.4l-.3-.5,23.7-2L107.9,55l.7.2Z" fill="#acce81"/>
          </g>
          <g id="XMLID_774_">
            <path id="XMLID_159_" d="M107.5,90.3l-24.1,2-.3-.5,23.7-2-.5-35.9.8.2Z" fill="#acce81"/>
          </g>
          <g id="XMLID_772_">
            <path id="XMLID_158_" d="M106,89.2l-24.1,2-.3-.5,23.6-2-.4-35.9.7.2Z" fill="#acce81"/>
          </g>
          <g id="XMLID_770_">
            <path id="XMLID_157_" d="M104.4,88.1l-24.1,2-.3-.5,23.7-2-.5-35.9.7.2Z" fill="#acce81"/>
          </g>
          <g id="XMLID_768_">
            <path id="XMLID_156_" d="M102.8,87,78.7,89l-.3-.5,23.7-2-.5-35.9.7.2Z" fill="#acce81"/>
          </g>
          <g id="XMLID_766_">
            <path id="XMLID_155_" d="M101.2,86,77.1,88l-.3-.6,23.7-2L100,49.5l.7.2Z" fill="#acce81"/>
          </g>
          <g id="XMLID_764_">
            <path id="XMLID_154_" d="M99.6,84.9l-24.1,2-.3-.6,23.7-2-.5-35.9.7.2Z" fill="#acce81"/>
          </g>
        </g>
        <g id="XMLID_753_" opacity="0.2">
          <g id="XMLID_760_">
            <g id="XMLID_761_">
              <path id="XMLID_153_" d="M99.7,84.8l-.4-35.9L111,57l.5,35.9Z" fill="#6b825f"/>
            </g>
          </g>
          <g id="XMLID_754_">
            <g id="XMLID_755_">
              <g id="XMLID_756_">
                <path id="XMLID_757_" d="M99.3,49l11.5,8,.5,35.8-11.5-8L99.3,49Zm-.1-.2.5,36.1,11.9,8.2L111.1,57,99.2,48.8Z" fill="#6b825f"/>
              </g>
            </g>
          </g>
        </g>
        <g id="XMLID_750_">
          <g id="XMLID_751_">
            <path id="XMLID_150_" d="M99.1,62.7,99,69,75.1,71l.1-6.3Z" fill="#f0ee9b"/>
          </g>
        </g>
        <g id="XMLID_747_">
          <g id="XMLID_748_">
            <path id="XMLID_149_" d="M99.1,62.7V69l12.2,8.5V71.1Z" fill="#b1a178"/>
          </g>
        </g>
      </g>
      <g id="XMLID_641_">
        <g id="XMLID_692_">
          <g id="XMLID_737_">
            <g id="XMLID_743_">
              <g id="XMLID_744_">
                <path id="XMLID_148_" d="M26.5,127.6,26,93l22.1-1.8.5,34.6Z" fill="#acce81"/>
              </g>
            </g>
            <g id="XMLID_738_">
              <g id="XMLID_739_">
                <path id="XMLID_740_" d="M26.9,93.7,47.3,92l.4,33.2-20.4,1.7-.4-33.2Zm-1.8-1.4.5,36.1,23.9-2L49,90.3l-23.9,2Z" fill="#789b68"/>
              </g>
            </g>
          </g>
          <g id="XMLID_734_">
            <g id="XMLID_735_">
              <path id="XMLID_145_" d="M47.9,125.3a44.739,44.739,0,0,1-5.4.5,5.8,5.8,0,0,1,1.5-2.9,7.551,7.551,0,0,1,4-2.2A18.2,18.2,0,0,1,47.9,125.3Z" fill="#789b68"/>
            </g>
          </g>
          <g id="XMLID_731_">
            <g id="XMLID_732_">
              <path id="XMLID_144_" d="M32.9,126.5c-.5.6-3.4,1.1-6.4,1.4,0-2.4.1-5.1.8-5.7h0a5.744,5.744,0,0,1,3.7,1A3.987,3.987,0,0,1,32.9,126.5Z" fill="#789b68"/>
            </g>
          </g>
          <g id="XMLID_728_">
            <g id="XMLID_729_">
              <path id="XMLID_143_" d="M47.4,96.3h0a5.3,5.3,0,0,1-3.8-.9,3.936,3.936,0,0,1-1.6-3c.6-.5,3.3-.9,6.2-1.1C48.2,93.4,48,95.7,47.4,96.3Z" fill="#789b68"/>
            </g>
          </g>
          <g id="XMLID_725_">
            <g id="XMLID_726_">
              <path id="XMLID_142_" d="M31.1,96.1A7.842,7.842,0,0,1,27,98.3a19.861,19.861,0,0,1-.5-4.9,35.377,35.377,0,0,1,6.1-.3A5.058,5.058,0,0,1,31.1,96.1Z" fill="#789b68"/>
            </g>
          </g>
          <g id="XMLID_711_">
            <g id="XMLID_722_">
              <g id="XMLID_723_">
                <path id="XMLID_141_" d="M43.6,110.4a9.938,9.938,0,0,1-6.4,2.7,8.827,8.827,0,0,1-5.6-1.2,2.6,2.6,0,0,1-1.2-2.1,3.688,3.688,0,0,1,1.2-2.6,9.938,9.938,0,0,1,6.4-2.7,8.827,8.827,0,0,1,5.6,1.2,2.6,2.6,0,0,1,1.2,2.1A4.761,4.761,0,0,1,43.6,110.4Z" fill="#789b68"/>
              </g>
            </g>
            <g id="XMLID_717_">
              <g id="XMLID_718_">
                <path id="XMLID_719_" d="M32.6,108h0a9.691,9.691,0,0,1,5.8-2.5,6.639,6.639,0,0,1,4.4.8,1.219,1.219,0,0,1,.6,1.2,3.151,3.151,0,0,1-1,2.2,9.691,9.691,0,0,1-5.8,2.5,6.639,6.639,0,0,1-4.4-.8,1.219,1.219,0,0,1-.6-1.2,3.151,3.151,0,0,1,1-2.2Zm-2.2-1.5a4.265,4.265,0,0,0-1.3,3c.1,2.9,4,5,8.6,4.6a10.317,10.317,0,0,0,6.9-3,4.265,4.265,0,0,0,1.3-3c-.1-2.9-4-5-8.6-4.6a11.618,11.618,0,0,0-6.9,3Z" fill="#acce81"/>
              </g>
            </g>
            <g id="XMLID_712_">
              <g id="XMLID_713_">
                <path id="XMLID_714_" d="M31.7,107.4h0a9.667,9.667,0,0,1,6.3-2.7,8.084,8.084,0,0,1,5.4,1.1,2.432,2.432,0,0,1,1.1,2,3.979,3.979,0,0,1-1.1,2.5,9.667,9.667,0,0,1-6.3,2.7,8.084,8.084,0,0,1-5.4-1.1,2.432,2.432,0,0,1-1.1-2,3.026,3.026,0,0,1,1.1-2.5Zm-1.3-.9a4.265,4.265,0,0,0-1.3,3c.1,2.9,4,5,8.6,4.6a10.317,10.317,0,0,0,6.9-3,4.265,4.265,0,0,0,1.3-3c-.1-2.9-4-5-8.6-4.6a11.618,11.618,0,0,0-6.9,3Z" fill="#789b68"/>
              </g>
            </g>
          </g>
          <g id="XMLID_702_">
            <g id="XMLID_708_">
              <g id="XMLID_709_">
                <path id="XMLID_136_" d="M37.4,96.4c1.6-.1,3,.6,3,1.6s-1.3,1.9-3,2-3-.6-3-1.6S35.7,96.5,37.4,96.4Z" fill="#789b68"/>
              </g>
            </g>
            <g id="XMLID_703_">
              <g id="XMLID_704_">
                <path id="XMLID_705_" d="M36.1,98.3h0a2.738,2.738,0,0,1,1.9-.7,7.721,7.721,0,0,1,1,.1h0a.646.646,0,0,1-.2.5,2.738,2.738,0,0,1-1.9.7,7.721,7.721,0,0,1-1-.1h0c-.1-.1,0-.3.2-.5Zm-1.2-.9a1.284,1.284,0,0,0-.4,1c0,1,1.4,1.7,3,1.6A4.129,4.129,0,0,0,40,99a1.284,1.284,0,0,0,.4-1c0-1-1.4-1.7-3-1.6a4.129,4.129,0,0,0-2.5,1Z" fill="#789b68"/>
              </g>
            </g>
          </g>
          <g id="XMLID_693_">
            <g id="XMLID_699_">
              <g id="XMLID_700_">
                <path id="XMLID_133_" d="M37.8,118c1.6-.1,3,.6,3,1.6s-1.3,1.9-3,2c-1.6.1-3-.6-3-1.6S36.1,118.1,37.8,118Z" fill="#789b68"/>
              </g>
            </g>
            <g id="XMLID_694_">
              <g id="XMLID_695_">
                <path id="XMLID_696_" d="M36.5,119.8h0a2.738,2.738,0,0,1,1.9-.7,7.721,7.721,0,0,1,1,.1h0a.646.646,0,0,1-.2.5,2.738,2.738,0,0,1-1.9.7,7.721,7.721,0,0,1-1-.1h0c-.1,0,0-.2.2-.5Zm-1.3-.8a1.284,1.284,0,0,0-.4,1c0,1,1.4,1.7,3,1.6a4.129,4.129,0,0,0,2.5-1,1.284,1.284,0,0,0,.4-1c0-1-1.4-1.7-3-1.6a3.552,3.552,0,0,0-2.5,1Z" fill="#789b68"/>
              </g>
            </g>
          </g>
        </g>
        <g id="XMLID_682_">
          <g id="XMLID_689_">
            <g id="XMLID_690_">
              <path id="XMLID_130_" d="M49.6,126.4l-.5-35.9,12.1,8.3.4,35.9Z" fill="#6b825f"/>
            </g>
          </g>
          <g id="XMLID_683_">
            <g id="XMLID_684_">
              <g id="XMLID_685_">
                <path id="XMLID_686_" d="M49.2,90.6l11.9,8.2.5,35.8-11.9-8.2-.5-35.8Zm-.2-.3.5,36.1,12.2,8.5-.5-36.1L49,90.3Z" fill="#6b825f"/>
              </g>
            </g>
          </g>
        </g>
        <g id="XMLID_675_">
          <g id="XMLID_680_">
            <path id="XMLID_127_" d="M25.6,128.4l23.9-2,12.2,8.5-23.9,2Z" fill="#72894c"/>
          </g>
          <g id="XMLID_676_">
            <path id="XMLID_677_" d="M61.8,134.9h0l-24,2-12.3-8.5h.1l23.9-2Zm-24,1.9,23.8-2-12.1-8.4-23.8,2Z" fill="#7e9b56"/>
          </g>
        </g>
        <g id="XMLID_658_" opacity="0.5">
          <g id="XMLID_673_">
            <path id="XMLID_124_" d="M60.9,134.3l-24.1,2-.3-.6,23.7-1.9-.5-35.9.7.2Z" fill="#acce81"/>
          </g>
          <g id="XMLID_671_">
            <path id="XMLID_123_" d="M59.3,133.2l-24.1,2-.3-.5,23.7-2-.5-35.9.7.2Z" fill="#acce81"/>
          </g>
          <g id="XMLID_669_">
            <path id="XMLID_122_" d="M57.7,132.1l-24.1,2-.3-.5,23.7-2-.5-35.9.7.2Z" fill="#acce81"/>
          </g>
          <g id="XMLID_667_">
            <path id="XMLID_121_" d="M56.1,131,32,133l-.3-.5,23.7-2-.5-35.9.8.2Z" fill="#acce81"/>
          </g>
          <g id="XMLID_665_">
            <path id="XMLID_120_" d="M54.6,129.9l-24.1,2-.3-.5,23.6-2-.4-35.9.7.2Z" fill="#acce81"/>
          </g>
          <g id="XMLID_663_">
            <path id="XMLID_119_" d="M53,128.8l-24.1,2-.3-.5,23.7-2-.5-35.9.7.2Z" fill="#acce81"/>
          </g>
          <g id="XMLID_661_">
            <path id="XMLID_118_" d="M51.4,127.8l-24.1,2-.3-.6,23.7-2-.5-35.9.7.2Z" fill="#acce81"/>
          </g>
          <g id="XMLID_659_">
            <path id="XMLID_117_" d="M49.8,126.7l-24.1,2-.3-.6,23.7-2-.5-35.9.7.2Z" fill="#acce81"/>
          </g>
        </g>
        <g id="XMLID_648_" opacity="0.2">
          <g id="XMLID_655_">
            <g id="XMLID_656_">
              <path id="XMLID_116_" d="M49.9,126.6l-.5-35.9,11.8,8.1.4,35.9Z" fill="#6b825f"/>
            </g>
          </g>
          <g id="XMLID_649_">
            <g id="XMLID_650_">
              <g id="XMLID_651_">
                <path id="XMLID_652_" d="M49.5,90.8l11.5,8,.5,35.8-11.5-8-.5-35.8Zm-.2-.2.5,36.1,11.9,8.2-.5-36.1L49.3,90.6Z" fill="#6b825f"/>
              </g>
            </g>
          </g>
        </g>
        <g id="XMLID_645_">
          <g id="XMLID_646_">
            <path id="XMLID_113_" d="M49.3,104.5l-.1,6.3-23.9,2,.1-6.3Z" fill="#f0ee9b"/>
          </g>
        </g>
        <g id="XMLID_642_">
          <g id="XMLID_643_">
            <path id="XMLID_112_" d="M49,104.3l-.1,6.3,12.6,8.7v-6.4Z" fill="#b1a178"/>
          </g>
        </g>
      </g>
      <g id="XMLID_536_">
        <g id="XMLID_587_">
          <g id="XMLID_632_">
            <g id="XMLID_638_">
              <g id="XMLID_639_">
                <path id="XMLID_111_" d="M53.7,128.1l-.5-34.6,22.1-1.8.5,34.6Z" fill="#acce81"/>
              </g>
            </g>
            <g id="XMLID_633_">
              <g id="XMLID_634_">
                <path id="XMLID_635_" d="M54.1,94.2l20.4-1.7.4,33.2-20.4,1.7-.4-33.2Zm-1.8-1.3.5,36.1,23.9-2-.5-36.1-23.9,2Z" fill="#789b68"/>
              </g>
            </g>
          </g>
          <g id="XMLID_629_">
            <g id="XMLID_630_">
              <path id="XMLID_108_" d="M75.1,125.9a44.739,44.739,0,0,1-5.4.5,5.8,5.8,0,0,1,1.5-2.9,7.551,7.551,0,0,1,4-2.2A18.221,18.221,0,0,1,75.1,125.9Z" fill="#789b68"/>
            </g>
          </g>
          <g id="XMLID_626_">
            <g id="XMLID_627_">
              <path id="XMLID_107_" d="M60.1,127c-.5.6-3.4,1.1-6.4,1.4,0-2.4.1-5.1.8-5.7h0a5.744,5.744,0,0,1,3.7,1A3.987,3.987,0,0,1,60.1,127Z" fill="#789b68"/>
            </g>
          </g>
          <g id="XMLID_623_">
            <g id="XMLID_624_">
              <path id="XMLID_106_" d="M74.5,96.9h0a5.4,5.4,0,0,1-3.7-.9,3.936,3.936,0,0,1-1.6-3c.6-.5,3.3-.9,6.2-1.1C75.4,93.9,75.2,96.2,74.5,96.9Z" fill="#789b68"/>
            </g>
          </g>
          <g id="XMLID_620_">
            <g id="XMLID_621_">
              <path id="XMLID_105_" d="M58.3,96.6a7.842,7.842,0,0,1-4.1,2.2,19.861,19.861,0,0,1-.5-4.9,35.377,35.377,0,0,1,6.1-.3A5.7,5.7,0,0,1,58.3,96.6Z" fill="#789b68"/>
            </g>
          </g>
          <g id="XMLID_606_">
            <g id="XMLID_617_">
              <g id="XMLID_618_">
                <path id="XMLID_104_" d="M70.8,110.9a9.938,9.938,0,0,1-6.4,2.7,8.827,8.827,0,0,1-5.6-1.2,2.6,2.6,0,0,1-1.2-2.1,3.688,3.688,0,0,1,1.2-2.6,9.938,9.938,0,0,1,6.4-2.7,8.827,8.827,0,0,1,5.6,1.2,2.6,2.6,0,0,1,1.2,2.1A4.761,4.761,0,0,1,70.8,110.9Z" fill="#789b68"/>
              </g>
            </g>
            <g id="XMLID_612_">
              <g id="XMLID_613_">
                <path id="XMLID_614_" d="M59.8,108.5h0a9.691,9.691,0,0,1,5.8-2.5,6.639,6.639,0,0,1,4.4.8,1.219,1.219,0,0,1,.6,1.2,3.151,3.151,0,0,1-1,2.2,9.691,9.691,0,0,1-5.8,2.5,6.639,6.639,0,0,1-4.4-.8,1.219,1.219,0,0,1-.6-1.2,3.151,3.151,0,0,1,1-2.2ZM57.6,107a4.265,4.265,0,0,0-1.3,3c.1,2.9,4,5,8.6,4.6a10.317,10.317,0,0,0,6.9-3,4.265,4.265,0,0,0,1.3-3c-.1-2.9-4-5-8.6-4.6a11.618,11.618,0,0,0-6.9,3Z" fill="#acce81"/>
              </g>
            </g>
            <g id="XMLID_607_">
              <g id="XMLID_608_">
                <path id="XMLID_609_" d="M58.9,107.9h0a9.667,9.667,0,0,1,6.3-2.7,8.084,8.084,0,0,1,5.4,1.1,2.432,2.432,0,0,1,1.1,2,3.979,3.979,0,0,1-1.1,2.5,9.667,9.667,0,0,1-6.3,2.7,8.084,8.084,0,0,1-5.4-1.1,2.432,2.432,0,0,1-1.1-2,3.146,3.146,0,0,1,1.1-2.5Zm-1.3-.9a4.265,4.265,0,0,0-1.3,3c.1,2.9,4,5,8.6,4.6a10.317,10.317,0,0,0,6.9-3,4.265,4.265,0,0,0,1.3-3c-.1-2.9-4-5-8.6-4.6a11.618,11.618,0,0,0-6.9,3Z" fill="#789b68"/>
              </g>
            </g>
          </g>
          <g id="XMLID_597_">
            <g id="XMLID_603_">
              <g id="XMLID_604_">
                <path id="XMLID_99_" d="M64.6,96.9c1.6-.1,3,.6,3,1.6s-1.3,1.9-3,2c-1.6.1-3-.6-3-1.6S62.9,97,64.6,96.9Z" fill="#789b68"/>
              </g>
            </g>
            <g id="XMLID_598_">
              <g id="XMLID_599_">
                <path id="XMLID_600_" d="M63.3,98.8h0a2.738,2.738,0,0,1,1.9-.7,7.721,7.721,0,0,1,1,.1h0a.646.646,0,0,1-.2.5,2.738,2.738,0,0,1-1.9.7,7.721,7.721,0,0,1-1-.1h0c-.1-.1,0-.3.2-.5ZM62.1,98a1.284,1.284,0,0,0-.4,1c0,1,1.4,1.7,3,1.6a4.129,4.129,0,0,0,2.5-1,1.284,1.284,0,0,0,.4-1c0-1-1.4-1.7-3-1.6a3.22,3.22,0,0,0-2.5,1Z" fill="#789b68"/>
              </g>
            </g>
          </g>
          <g id="XMLID_588_">
            <g id="XMLID_594_">
              <g id="XMLID_595_">
                <path id="XMLID_96_" d="M65,118.5c1.6-.1,3,.6,3,1.6s-1.3,1.9-3,2c-1.6.1-3-.6-3-1.6S63.3,118.6,65,118.5Z" fill="#789b68"/>
              </g>
            </g>
            <g id="XMLID_589_">
              <g id="XMLID_590_">
                <path id="XMLID_591_" d="M63.7,120.4h0a2.738,2.738,0,0,1,1.9-.7,7.721,7.721,0,0,1,1,.1h0a.646.646,0,0,1-.2.5,2.738,2.738,0,0,1-1.9.7,7.721,7.721,0,0,1-1-.1h0c-.1-.1,0-.3.2-.5Zm-1.3-.9a1.284,1.284,0,0,0-.4,1c0,1,1.4,1.7,3,1.6a4.129,4.129,0,0,0,2.5-1,1.284,1.284,0,0,0,.4-1c0-1-1.4-1.7-3-1.6a4.728,4.728,0,0,0-2.5,1Z" fill="#789b68"/>
              </g>
            </g>
          </g>
        </g>
        <g id="XMLID_577_">
          <g id="XMLID_584_">
            <g id="XMLID_585_">
              <path id="XMLID_93_" d="M76.8,126.9,76.3,91l12,8.3.5,36Z" fill="#6b825f"/>
            </g>
          </g>
          <g id="XMLID_578_">
            <g id="XMLID_579_">
              <g id="XMLID_580_">
                <path id="XMLID_581_" d="M76.4,91.1l11.9,8.2.5,35.8-11.9-8.2-.5-35.8Zm-.2-.2.5,36.1,12.2,8.5-.5-36.1L76.2,90.9Z" fill="#6b825f"/>
              </g>
            </g>
          </g>
        </g>
        <g id="XMLID_570_">
          <g id="XMLID_575_">
            <path id="XMLID_90_" d="M52.8,129l23.9-2,12.2,8.4-23.9,2Z" fill="#72894c"/>
          </g>
          <g id="XMLID_571_">
            <path id="XMLID_572_" d="M89,135.4l-24,2-12.3-8.5h.1l23.9-2Zm-24,1.9,23.8-2L76.7,127l-23.8,2Z" fill="#7e9b56"/>
          </g>
        </g>
        <g id="XMLID_553_" opacity="0.5">
          <g id="XMLID_568_">
            <path id="XMLID_87_" d="M88.1,134.8l-24.1,2-.3-.5,23.7-2-.5-35.9.7.2Z" fill="#acce81"/>
          </g>
          <g id="XMLID_566_">
            <path id="XMLID_86_" d="M86.5,133.7l-24.1,2-.3-.5,23.7-2-.5-35.9.7.2Z" fill="#acce81"/>
          </g>
          <g id="XMLID_564_">
            <path id="XMLID_85_" d="M84.9,132.6l-24.1,2-.3-.5,23.7-2-.5-35.9.7.2Z" fill="#acce81"/>
          </g>
          <g id="XMLID_562_">
            <path id="XMLID_84_" d="M83.3,131.6l-24.1,2-.3-.6,23.7-2-.5-35.9.7.2Z" fill="#acce81"/>
          </g>
          <g id="XMLID_560_">
            <path id="XMLID_83_" d="M81.7,130.5l-24.1,2-.3-.6,23.7-2L80.5,94l.8.2Z" fill="#acce81"/>
          </g>
          <g id="XMLID_558_">
            <path id="XMLID_82_" d="M80.2,129.4l-24.1,2-.3-.6,23.6-2L79,92.9l.7.2Z" fill="#acce81"/>
          </g>
          <g id="XMLID_556_">
            <path id="XMLID_81_" d="M78.6,128.3l-24.1,2-.3-.6,23.7-2-.5-35.9.7.2Z" fill="#acce81"/>
          </g>
          <g id="XMLID_554_">
            <path id="XMLID_80_" d="M77,127.2l-24.1,2-.3-.6,23.7-1.9-.5-36,.7.2Z" fill="#acce81"/>
          </g>
        </g>
        <g id="XMLID_543_" opacity="0.2">
          <g id="XMLID_550_">
            <g id="XMLID_551_">
              <path id="XMLID_79_" d="M77.1,127.2l-.5-36,11.7,8.1.5,36Z" fill="#6b825f"/>
            </g>
          </g>
          <g id="XMLID_544_">
            <g id="XMLID_545_">
              <g id="XMLID_546_">
                <path id="XMLID_547_" d="M76.7,91.4l11.5,8,.5,35.8-11.5-8-.5-35.8Zm-.2-.3.5,36.1,11.9,8.2-.5-36.1L76.5,91.1Z" fill="#6b825f"/>
              </g>
            </g>
          </g>
        </g>
        <g id="XMLID_540_">
          <g id="XMLID_541_">
            <path id="XMLID_76_" d="M76.5,105l-.1,6.3-23.9,2,.1-6.3Z" fill="#f0ee9b"/>
          </g>
        </g>
        <g id="XMLID_537_">
          <g id="XMLID_538_">
            <path id="XMLID_75_" d="M76.2,104.8l-.1,6.3,12.6,8.7v-6.4Z" fill="#b1a178"/>
          </g>
        </g>
      </g>
      <g id="XMLID_431_">
        <g id="XMLID_482_">
          <g id="XMLID_527_">
            <g id="XMLID_533_">
              <g id="XMLID_534_">
                <path id="XMLID_74_" d="M88.2,132.7l-.5-34.6,22.1-1.9.5,34.7Z" fill="#acce81"/>
              </g>
            </g>
            <g id="XMLID_528_">
              <g id="XMLID_529_">
                <path id="XMLID_530_" d="M88.6,98.8,109,97l.4,33.2L89,131.9l-.4-33.1Zm-1.8-1.4.5,36.1,23.9-2-.5-36.1-23.9,2Z" fill="#789b68"/>
              </g>
            </g>
          </g>
          <g id="XMLID_524_">
            <g id="XMLID_525_">
              <path id="XMLID_71_" d="M109.6,130.4a44.739,44.739,0,0,1-5.4.5,5.8,5.8,0,0,1,1.5-2.9,7.551,7.551,0,0,1,4-2.2A18.2,18.2,0,0,1,109.6,130.4Z" fill="#789b68"/>
            </g>
          </g>
          <g id="XMLID_521_">
            <g id="XMLID_522_">
              <path id="XMLID_70_" d="M94.6,131.5c-.5.6-3.4,1.1-6.4,1.4,0-2.4.1-5.1.8-5.7h0a5.744,5.744,0,0,1,3.7,1A4.123,4.123,0,0,1,94.6,131.5Z" fill="#789b68"/>
            </g>
          </g>
          <g id="XMLID_518_">
            <g id="XMLID_519_">
              <path id="XMLID_69_" d="M109.1,101.4c-.1,0-.1.1,0,0a5.3,5.3,0,0,1-3.8-.9,3.936,3.936,0,0,1-1.6-3c.6-.5,3.3-1,6.2-1.1C109.9,98.5,109.7,100.8,109.1,101.4Z" fill="#789b68"/>
            </g>
          </g>
          <g id="XMLID_515_">
            <g id="XMLID_516_">
              <path id="XMLID_68_" d="M92.8,101.1a7.842,7.842,0,0,1-4.1,2.2,19.861,19.861,0,0,1-.5-4.9,35.377,35.377,0,0,1,6.1-.3A4.8,4.8,0,0,1,92.8,101.1Z" fill="#789b68"/>
            </g>
          </g>
          <g id="XMLID_501_">
            <g id="XMLID_512_">
              <g id="XMLID_513_">
                <path id="XMLID_67_" d="M105.3,115.5a9.938,9.938,0,0,1-6.4,2.7,8.827,8.827,0,0,1-5.6-1.2,2.6,2.6,0,0,1-1.2-2.1,3.688,3.688,0,0,1,1.2-2.6,9.938,9.938,0,0,1,6.4-2.7,8.827,8.827,0,0,1,5.6,1.2,2.6,2.6,0,0,1,1.2,2.1A4.151,4.151,0,0,1,105.3,115.5Z" fill="#789b68"/>
              </g>
            </g>
            <g id="XMLID_507_">
              <g id="XMLID_508_">
                <path id="XMLID_509_" d="M94.3,113.1h0a9.691,9.691,0,0,1,5.8-2.5,6.639,6.639,0,0,1,4.4.8,1.219,1.219,0,0,1,.6,1.2,3.151,3.151,0,0,1-1,2.2,9.691,9.691,0,0,1-5.8,2.5,6.639,6.639,0,0,1-4.4-.8,1.219,1.219,0,0,1-.6-1.2,2.986,2.986,0,0,1,1-2.2Zm-2.2-1.5a4.265,4.265,0,0,0-1.3,3c.1,2.9,4,5,8.6,4.6a10.317,10.317,0,0,0,6.9-3,4.265,4.265,0,0,0,1.3-3c-.1-2.9-4-5-8.6-4.6a11.305,11.305,0,0,0-6.9,3Z" fill="#acce81"/>
              </g>
            </g>
            <g id="XMLID_502_">
              <g id="XMLID_503_">
                <path id="XMLID_504_" d="M93.4,112.4h0a9.667,9.667,0,0,1,6.3-2.7,8.084,8.084,0,0,1,5.4,1.1,2.432,2.432,0,0,1,1.1,2,3.979,3.979,0,0,1-1.1,2.5,9.667,9.667,0,0,1-6.3,2.7,8.084,8.084,0,0,1-5.4-1.1,2.432,2.432,0,0,1-1.1-2,3.276,3.276,0,0,1,1.1-2.5Zm-1.3-.8a4.265,4.265,0,0,0-1.3,3c.1,2.9,4,5,8.6,4.6a10.317,10.317,0,0,0,6.9-3,4.265,4.265,0,0,0,1.3-3c-.1-2.9-4-5-8.6-4.6a11.305,11.305,0,0,0-6.9,3Z" fill="#789b68"/>
              </g>
            </g>
          </g>
          <g id="XMLID_492_">
            <g id="XMLID_498_">
              <g id="XMLID_499_">
                <path id="XMLID_62_" d="M99.1,101.5c1.6-.1,3,.6,3,1.6s-1.3,1.9-3,2c-1.6.1-3-.6-3-1.6S97.4,101.6,99.1,101.5Z" fill="#789b68"/>
              </g>
            </g>
            <g id="XMLID_493_">
              <g id="XMLID_494_">
                <path id="XMLID_495_" d="M97.8,103.4h0a2.738,2.738,0,0,1,1.9-.7,7.721,7.721,0,0,1,1,.1h0a.646.646,0,0,1-.2.5,2.738,2.738,0,0,1-1.9.7,7.721,7.721,0,0,1-1-.1h0c-.1-.1,0-.3.2-.5Zm-1.2-.9a1.284,1.284,0,0,0-.4,1c0,1,1.4,1.7,3,1.6a4.129,4.129,0,0,0,2.5-1,1.284,1.284,0,0,0,.4-1c0-1-1.4-1.7-3-1.6a4.129,4.129,0,0,0-2.5,1Z" fill="#789b68"/>
              </g>
            </g>
          </g>
          <g id="XMLID_483_">
            <g id="XMLID_489_">
              <g id="XMLID_490_">
                <path id="XMLID_59_" d="M99.5,123c1.6-.1,3,.6,3,1.6s-1.3,1.9-3,2c-1.6.1-3-.6-3-1.6C96.5,124.1,97.8,123.2,99.5,123Z" fill="#789b68"/>
              </g>
            </g>
            <g id="XMLID_484_">
              <g id="XMLID_485_">
                <path id="XMLID_486_" d="M98.2,124.9h0a2.738,2.738,0,0,1,1.9-.7,7.721,7.721,0,0,1,1,.1h0a.646.646,0,0,1-.2.5,2.738,2.738,0,0,1-1.9.7,7.721,7.721,0,0,1-1-.1h0c-.1-.1,0-.2.2-.5Zm-1.3-.8a1.284,1.284,0,0,0-.4,1c0,1,1.4,1.7,3,1.6a4.129,4.129,0,0,0,2.5-1,1.284,1.284,0,0,0,.4-1c0-1-1.4-1.7-3-1.6a3.552,3.552,0,0,0-2.5,1Z" fill="#789b68"/>
              </g>
            </g>
          </g>
        </g>
        <g id="XMLID_472_">
          <g id="XMLID_479_">
            <g id="XMLID_480_">
              <path id="XMLID_56_" d="M111.3,131.5l-.5-35.9,12.1,8.3.4,35.9Z" fill="#6b825f"/>
            </g>
          </g>
          <g id="XMLID_473_">
            <g id="XMLID_474_">
              <g id="XMLID_475_">
                <path id="XMLID_476_" d="M110.9,95.7l11.9,8.2.5,35.8-11.9-8.2-.5-35.8Zm-.2-.3.5,36.1,12.2,8.5-.5-36.1-12.2-8.5Z" fill="#6b825f"/>
              </g>
            </g>
          </g>
        </g>
        <g id="XMLID_465_">
          <g id="XMLID_470_">
            <path id="XMLID_53_" d="M87.3,133.5l23.9-2,12.2,8.5-23.9,1.9Z" fill="#72894c"/>
          </g>
          <g id="XMLID_466_">
            <path id="XMLID_467_" d="M123.5,140h0l-24,2-12.3-8.5,24-2Zm-24,1.9,23.8-2-12.1-8.4-23.8,2Z" fill="#7e9b56"/>
          </g>
        </g>
        <g id="XMLID_448_" opacity="0.5">
          <g id="XMLID_463_">
            <path id="XMLID_50_" d="M122.6,139.4l-24.1,2-.3-.6,23.7-1.9-.5-35.9.7.1Z" fill="#acce81"/>
          </g>
          <g id="XMLID_461_">
            <path id="XMLID_49_" d="M121,138.3l-24.1,2-.3-.6,23.7-1.9-.5-35.9.7.1Z" fill="#acce81"/>
          </g>
          <g id="XMLID_459_">
            <path id="XMLID_48_" d="M119.4,137.2l-24.1,2-.3-.6,23.7-1.9-.5-35.9.7.2Z" fill="#acce81"/>
          </g>
          <g id="XMLID_457_">
            <path id="XMLID_47_" d="M117.8,136.1l-24.1,2-.3-.5,23.7-2-.5-35.9.8.2Z" fill="#acce81"/>
          </g>
          <g id="XMLID_455_">
            <path id="XMLID_46_" d="M116.3,135l-24.1,2-.3-.5,23.6-2-.4-35.9.7.2Z" fill="#acce81"/>
          </g>
          <g id="XMLID_453_">
            <path id="XMLID_45_" d="M114.7,133.9l-24.1,2-.3-.5,23.7-2-.5-35.9.7.2Z" fill="#acce81"/>
          </g>
          <g id="XMLID_451_">
            <path id="XMLID_44_" d="M113.1,132.8l-24.1,2-.3-.5,23.7-2-.5-35.9.7.2Z" fill="#acce81"/>
          </g>
          <g id="XMLID_449_">
            <path id="XMLID_43_" d="M111.5,131.7l-24.1,2-.3-.5,23.7-2-.5-35.9.7.2Z" fill="#acce81"/>
          </g>
        </g>
        <g id="XMLID_438_" opacity="0.2">
          <g id="XMLID_445_">
            <g id="XMLID_446_">
              <path id="XMLID_42_" d="M111.6,131.7l-.5-35.9,11.8,8.1.4,35.9Z" fill="#6b825f"/>
            </g>
          </g>
          <g id="XMLID_439_">
            <g id="XMLID_440_">
              <g id="XMLID_441_">
                <path id="XMLID_442_" d="M111.2,95.9l11.5,8,.5,35.8-11.5-8-.5-35.8Zm-.2-.2.5,36.1,11.9,8.2-.5-36.1L111,95.7Z" fill="#6b825f"/>
              </g>
            </g>
          </g>
        </g>
        <g id="XMLID_435_">
          <g id="XMLID_436_">
            <path id="XMLID_39_" d="M111,109.6l-.1,6.3-23.9,2,.1-6.3Z" fill="#f0ee9b"/>
          </g>
        </g>
        <g id="XMLID_432_">
          <g id="XMLID_433_">
            <path id="XMLID_38_" d="M110.7,109.3l-.1,6.4,12.6,8.7v-6.5Z" fill="#b1a178"/>
          </g>
        </g>
      </g>
    </g>
    <g id="XMLID_374_">
      <g id="KVv2qU_1_">
        <g id="XMLID_381_">
          <g id="XMLID_427_">
            <g id="XMLID_428_">
              <path id="XMLID_37_" d="M94.2,43.7a20.944,20.944,0,0,0-2.3-.8,2.217,2.217,0,0,0-2.5.6c.4.3.9.2,1.3.3,2,.6,3.9,1.5,5.9,2.3,1.9.8,3.9,1.7,5.8,2.5,3.3,1.4,6.5,2.9,9.7,4.4,5.9,2.8,11.7,5.8,17.3,9.1,2,1.1,3.9,2.3,5.9,3.4a16.439,16.439,0,0,0,1.9.8l2.6-15.8S130,42.3,94.1,27.1c-.8-.2-1.4-.7-2.3-.6-.2.3-.5.6-.7.9-.3.5,0,.6.3.8a4.179,4.179,0,0,0,1,.4,105.823,105.823,0,0,1,11.8,4.5c4,1.7,7.9,3.7,11.8,5.6,5.5,2.7,10.8,5.8,16.1,9,.8.5.3,1.6.5,2.7.5,1.8,2.7,2.6,4,3.7a1.565,1.565,0,0,1,.6,1.8c-.2,1.1-.4,2.3-.6,3.4-.1.5-.5-.8-1-1a6.185,6.185,0,0,0-4.8.3c-.6.3-.2,1.5-.7,1.3-3-1.7-6-3.4-9.1-5-4.6-2.3-9.2-4.6-14-6.8-3.3-1.5-6.6-2.8-9.8-4.3-.5-.2-1.1-.8-1.7-.1l.3.3a1.344,1.344,0,0,0,.7.6c.3.1.5.3.8.4a4.348,4.348,0,0,0,.7.4,4.874,4.874,0,0,1,1.1.4,3.582,3.582,0,0,0-1.1-.4,4.347,4.347,0,0,1-.7-.4,3.88,3.88,0,0,1-1.1-.6A11.765,11.765,0,0,1,94.2,43.7Z" fill="#779a68" fill-rule="evenodd"/>
            </g>
          </g>
          <g id="XMLID_424_">
            <g id="XMLID_425_">
              <path id="XMLID_36_" d="M95.5,43.7a2.623,2.623,0,0,1,1.9.5c2.2.9,4.3,1.8,6.5,2.8l7.8,3.6,7.5,3.6c3,1.5,5.9,3.1,8.8,4.8.7.4,2.3,1.3,2.3,1.3a4.041,4.041,0,0,1,2.8-1.5,6.55,6.55,0,0,1,3.8,1s.5-3,.7-4.5a5.951,5.951,0,0,0,.1-.8,6.736,6.736,0,0,1-3.3-2.6,7.075,7.075,0,0,1-.9-3.5s-2.1-1.3-2.6-1.6c-3.5-2-7-4-10.5-5.9-3.3-1.9-6.8-3.4-10.2-5.1-2.5-1.2-5-2.3-7.6-3.4-3.5-1.5-7.2-2.8-10.8-4.1-.3-.1-.8,0-.8-.7-.6.9-.6,1.1.3,1.8l.2.2a2.947,2.947,0,0,1,1.3.5,7.458,7.458,0,0,1,1.2.7c1.5.7,2.9,1.7,4.4,2.3.2.2.5.2.7.3.4.5.1.7-.3,1a14.245,14.245,0,0,0-2.9,3.1,2.186,2.186,0,0,1-.3.5,8.073,8.073,0,0,0-2,4.5h0c.4.5,1,.6,1.5.9A1.38,1.38,0,0,1,95.5,43.7Z" fill="#accd80" fill-rule="evenodd"/>
            </g>
          </g>
          <g id="XMLID_421_">
            <g id="XMLID_422_">
              <path id="XMLID_35_" d="M134,70.5l3-4.1s-9-5.3-12.4-7.2c-2.5-1.4-5.1-2.8-7.6-4-2.1-1-4.1-2.1-6.2-3.1-1.2-.6-2.4-1.1-3.6-1.7l-8.1-3.6a26.042,26.042,0,0,0-2.5-1c-2-.7-3.9-1.7-5.9-2.3a1.928,1.928,0,0,0-1.3,0,3.356,3.356,0,0,0-1.1,2.3,1.548,1.548,0,0,0,1.1,1.9,141.558,141.558,0,0,1,18.4,7.9C115.4,59.3,134,70.5,134,70.5Z" fill="#5f7653" fill-rule="evenodd"/>
            </g>
          </g>
          <g id="XMLID_418_">
            <g id="XMLID_419_">
              <path id="XMLID_34_" d="M93.7,42.4c.4-.2.5-.4.5-.9a3.188,3.188,0,0,1,1-2.6,5.6,5.6,0,0,0,1-1.5c-.2-.3-.4-.7-.9-.7-.6,1-1.6,1.5-2,2.7C92.9,40.7,92.9,41.6,93.7,42.4Z" fill="#adcd82" fill-rule="evenodd"/>
            </g>
          </g>
          <g id="XMLID_415_">
            <g id="XMLID_416_">
              <path id="XMLID_33_" d="M95.3,36.7c.2.3.5.7.9.7a11.111,11.111,0,0,1,3-3.1c.7-.4.5-.7.1-1.1-.1.1-.2,0-.2.1A24.887,24.887,0,0,0,95.3,36.7Z" fill="#b0ce84" fill-rule="evenodd"/>
            </g>
          </g>
          <g id="XMLID_412_">
            <g id="XMLID_413_">
              <path id="XMLID_32_" d="M98.5,33A19.854,19.854,0,0,0,94,30.5c-.4.7,0,1.1.4,1.5.3.1.6.3.9.2.1,0,.2.1.3.1a7.619,7.619,0,0,1,2,.6C97.9,32.9,98.1,33.1,98.5,33Z" fill="#b8d492" fill-rule="evenodd"/>
            </g>
          </g>
          <g id="XMLID_409_">
            <g id="XMLID_410_">
              <path id="XMLID_31_" d="M95.3,32.2a4.179,4.179,0,0,1-1-.4,2.407,2.407,0,0,0-.8-.6c-.4-.2-.8-.4-.8-.9a1.021,1.021,0,0,0-1.1-1c-.5.5.1.8.2,1.2A4.9,4.9,0,0,0,95.3,32.2Z" fill="#c1d9a0" fill-rule="evenodd"/>
            </g>
          </g>
          <g id="XMLID_406_">
            <g id="XMLID_407_">
              <path id="XMLID_30_" d="M98.5,33c-1-.2-1.8-.8-2.9-.7,1.1.4,2.3.8,3.4,1.2a.349.349,0,0,0,.2-.1A2.506,2.506,0,0,0,98.5,33Z" fill="#bcd799" fill-rule="evenodd"/>
            </g>
          </g>
          <g id="XMLID_403_">
            <g id="XMLID_404_">
              <path id="XMLID_29_" d="M95.2,43.3a7.459,7.459,0,0,0-1.5-.9C94,43.2,94.7,43.1,95.2,43.3Z" fill="#adcd82" fill-rule="evenodd"/>
            </g>
          </g>
          <g id="XMLID_400_">
            <g id="XMLID_401_">
              <path id="XMLID_28_" d="M91.8,30.6c0-.4-.3-.7-.2-1.1,0-.1-.1-.1-.2-.1h-.2A1.743,1.743,0,0,0,91.8,30.6Z" fill="#cce1b2" fill-rule="evenodd"/>
            </g>
          </g>
          <g id="XMLID_397_">
            <g id="XMLID_398_">
              <path id="XMLID_27_" d="M112.2,43.9c-1.1,3.6.6,6.4,3.7,7.1,2.8.7,5.8-3.1,4.8-6.7-.6-2.3-2-3.8-4.2-4.1C114.8,40,112.9,41.3,112.2,43.9Z" fill="#779a68" fill-rule="evenodd"/>
            </g>
          </g>
          <g id="XMLID_394_">
            <g id="XMLID_395_">
              <path id="XMLID_26_" d="M123.4,48.8c-.4,1.4,0,2.7,1.1,3.1.8.3,1.6-.3,2-1.3.4-1.3-.1-3-1-3.3C124.5,47,123.7,47.5,123.4,48.8Z" fill="#789b68" fill-rule="evenodd"/>
            </g>
          </g>
          <g id="XMLID_391_">
            <g id="XMLID_392_">
              <path id="XMLID_25_" d="M105.9,40.6a1.574,1.574,0,0,0,.8,1.9c.9.3,2.4-.8,2.8-2.2a1.589,1.589,0,0,0-.9-2.1C107.6,37.8,106.3,39,105.9,40.6Z" fill="#789b68" fill-rule="evenodd"/>
            </g>
          </g>
          <g id="XMLID_388_">
            <g id="XMLID_389_">
              <path id="XMLID_24_" d="M93.3,31.5c.3.1.7.2,1,.3,0-.5-.5-.8-.3-1.3a1.974,1.974,0,0,0-1.2-.6C92.5,30.6,93.1,30.9,93.3,31.5Z" fill="#bcd799" fill-rule="evenodd"/>
            </g>
          </g>
          <g id="XMLID_385_">
            <g id="XMLID_386_">
              <path id="XMLID_23_" d="M93.3,31.5c-.2-.5-.4-1.1-.6-1.6a1.3,1.3,0,0,0-1.3-.5c.1,0,.1,0,.2.1.5.1.8.3.8,1C92.5,31,92.9,31.2,93.3,31.5Z" fill="#bdd89a" fill-rule="evenodd"/>
            </g>
          </g>
          <g id="XMLID_382_">
            <g id="XMLID_383_">
              <path id="XMLID_22_" d="M105.5,37.3a.67.67,0,0,0-.7.4c-.1.1.1.3.2.3a1.012,1.012,0,0,0,.7-.4C105.7,37.4,105.6,37.3,105.5,37.3Z" fill="#b1cf86" fill-rule="evenodd"/>
            </g>
          </g>
        </g>
      </g>
      <g id="XMLID_378_">
        <g id="XMLID_379_">
          <path id="XMLID_21_" d="M112.3,51.6s3.1-11.8,3.9-14.8l6.1,3.5s-2.4,11.5-3.7,14.5Z" fill="#f0ee9b" fill-rule="evenodd"/>
        </g>
      </g>
      <g id="XMLID_375_">
        <g id="XMLID_376_">
          <path id="XMLID_20_" d="M116,60.5l2.7-5.7-6.2-3.7-2,5.4Z" fill="#b1a178" fill-rule="evenodd"/>
        </g>
      </g>
    </g>
    <path id="XMLID_19_" d="M110.6,1.4c0-.9-.5-1.5-1.1-1.4l-85,18.9c-.4.1-.7.7-.7,1.4V150h86.7V1.4Z" fill="#6c7c61"/>
    <path id="XMLID_18_" d="M112.2.5a.472.472,0,0,0-.5-.5h-2.2V150h2.7Z" fill="#828f74"/>
    <g id="XMLID_338_">
      <g id="XMLID_346_">
        <g id="XMLID_370_">
          <path id="XMLID_17_" d="M86.7,83.5c0,16.7-10.7,29.3-23,28.2-11.5-1-20.2-13.6-20.2-28.2s8.7-27.3,20.2-28.2C76,54.2,86.7,66.9,86.7,83.5Z" fill="#535e4b"/>
        </g>
        <path id="XMLID_16_" d="M81.1,83.5c0,12.6-8,22.3-17.4,21.7-8.9-.6-15.8-10.3-15.8-21.7s6.9-21.2,15.8-21.7C73.1,61.2,81.1,70.9,81.1,83.5Z" fill="#b8b79b"/>
        <path id="XMLID_15_" d="M69.6,83.5c0,4.3-2.7,7.7-5.9,7.6C60.6,91,58,87.6,58,83.5s2.5-7.5,5.7-7.6C67,75.8,69.6,79.2,69.6,83.5Z" fill="#606060"/>
        <path id="XMLID_14_" d="M68.4,78.7a9.7,9.7,0,0,1,.8,3.9c0,4.3-2.7,7.7-5.9,7.6a5.32,5.32,0,0,1-4.4-2.9c1,2.2,2.8,3.8,4.9,3.8,3.2.1,5.9-3.3,5.9-7.6A9.284,9.284,0,0,0,68.4,78.7Z" fill="#fff" opacity="0.11"/>
        <g id="XMLID_362_">
          <g id="XMLID_365_">
            <path id="XMLID_13_" d="M64.2,104.8V100c0-.7-.8-.7-.8,0v4.8c0,.7.8.7.8,0Z" fill="#3e3c3c"/>
          </g>
          <g id="XMLID_363_">
            <path id="XMLID_12_" d="M64.2,67V62.2c0-.7-.8-.6-.8,0V67c0,.7.8.7.8,0Z" fill="#3e3c3c"/>
          </g>
        </g>
        <g id="XMLID_357_">
          <g id="XMLID_360_">
            <path id="XMLID_11_" d="M48.2,84.2h3.4c.5,0,.5-1,0-1H48.2c-.4,0-.4,1,0,1Z" fill="#3e3c3c"/>
          </g>
          <g id="XMLID_358_">
            <path id="XMLID_10_" d="M76.8,84.1h4c.6,0,.6-1.1,0-1.1h-4c-.6,0-.6,1.1,0,1.1Z" fill="#3e3c3c"/>
          </g>
        </g>
        <g id="XMLID_352_">
          <g id="XMLID_355_">
            <path id="XMLID_9_" d="M53.1,98.9l2.4-3.3c.3-.5-.2-1.2-.5-.7l-2.4,3.3c-.3.4.2,1.1.5.7Z" fill="#3e3c3c"/>
          </g>
          <g id="XMLID_353_">
            <path id="XMLID_8_" d="M72.9,71.7c.9-1.2,1.8-2.5,2.7-3.7.4-.5-.2-1.2-.6-.7-.9,1.2-1.8,2.5-2.7,3.7-.3.5.3,1.2.6.7Z" fill="#3e3c3c"/>
          </g>
        </g>
        <g id="XMLID_347_">
          <g id="XMLID_350_">
            <path id="XMLID_7_" d="M53.2,68.3c.8,1.1,1.5,2.3,2.3,3.5.3.5.9-.2.6-.7-.8-1.2-1.5-2.3-2.3-3.5-.4-.4-.9.2-.6.7Z" fill="#3e3c3c"/>
          </g>
          <g id="XMLID_348_">
            <path id="XMLID_6_" d="M71.8,96.7c.8,1.3,1.7,2.6,2.5,3.9.4.5,1-.1.6-.7-.9-1.3-1.7-2.6-2.5-3.9-.3-.5-.9.2-.6.7Z" fill="#3e3c3c"/>
          </g>
        </g>
      </g>
      <path id="XMLID_5_" d="M98,102.6h0a1.746,1.746,0,0,1-1.5-1.8V57.9A1.687,1.687,0,0,1,98,56.1h0a1.59,1.59,0,0,1,1.5,1.7V101A1.631,1.631,0,0,1,98,102.6Z" fill="#9ba692"/>
      <g id="XMLID_342_">
        <path id="XMLID_4_" d="M27.7,44.7V37.5a3.4,3.4,0,1,0-6.8,0v7.2Z" fill="#9ba692"/>
        <path id="XMLID_3_" d="M21,45.6v7.2a3.4,3.4,0,1,0,6.8,0V45.6Z" fill="#9ba692"/>
      </g>
      <g id="XMLID_339_">
        <path id="XMLID_2_" d="M26.9,124.3v-7.2a3.4,3.4,0,1,0-6.8,0v7.2Z" fill="#9ba692"/>
        <path id="XMLID_1_" d="M20.2,125.3v7.2a3.4,3.4,0,0,0,6.8,0v-7.2Z" fill="#9ba692"/>
      </g>
    </g>
  </g>
</svg>
