<svg xmlns="http://www.w3.org/2000/svg" width="88.079" height="91.8" viewBox="0 0 88.079 91.8">
  <g id="Group_3987" data-name="Group 3987" transform="translate(-52.921 -475.258)">
    <path id="Path_5020" data-name="Path 5020" d="M1690.286-2968.958a.359.359,0,0,0-.1-.075.187.187,0,0,0-.1-.049.19.19,0,0,0-.124-.024.425.425,0,0,0-.248,0c-.049,0-.075.024-.124.024-.024.024-.075.024-.1.049s-.075.048-.1.075a.642.642,0,0,0,0,.865.361.361,0,0,0,.1.075.881.881,0,0,0,.223.1.421.421,0,0,0,.248,0c.049,0,.075-.024.124-.024.048-.024.075-.024.1-.048s.075-.049.1-.075a.653.653,0,0,0,0-.892Z" transform="translate(-1604.485 3470.972)" fill="#54acd4"/>
    <path id="Path_4584" data-name="Path 4584" d="M704.537,8.913V-35.066a10.923,10.923,0,0,0-10.911-10.911H639.911A10.923,10.923,0,0,0,629-35.066V8.913a10.921,10.921,0,0,0,.107,1.507h75.324A10.949,10.949,0,0,0,704.537,8.913Z" transform="translate(-574.165 556.637)" fill="#f7fcf5"/>
    <path id="Path_4585" data-name="Path 4585" d="M742.1,101.13H719.943A3.943,3.943,0,0,1,716,97.188V89.966a3.943,3.943,0,0,1,3.943-3.943H742.1a3.943,3.943,0,0,1,3.943,3.943v7.222A3.943,3.943,0,0,1,742.1,101.13Z" transform="translate(-646.561 446.795)" fill="#e5bd4b"/>
    <path id="Path_4586" data-name="Path 4586" d="M743.275,207.773H718.268A2.268,2.268,0,0,1,716,205.505v-7.214a2.268,2.268,0,0,1,2.268-2.268h25.007a2.268,2.268,0,0,1,2.268,2.268v7.214A2.268,2.268,0,0,1,743.275,207.773Z" transform="translate(-646.561 355.26)" fill="#f8c961"/>
    <path id="Path_4587" data-name="Path 4587" d="M717.874,156.095H691.348A2.348,2.348,0,0,1,689,153.747v-5.375a2.348,2.348,0,0,1,2.348-2.348h26.526a2.348,2.348,0,0,1,2.348,2.348v5.375A2.348,2.348,0,0,1,717.874,156.095Z" transform="translate(-624.093 396.867)" fill="#d39c39"/>
    <path id="Path_4588" data-name="Path 4588" d="M744.394-136.82H689v-27.4h55.394Z" transform="translate(-624.093 652.812)" fill="#bdccb6"/>
    <path id="Path_4590" data-name="Path 4590" d="M724.466-10.1a5.882,5.882,0,0,0-5.875-5.875H664.875A5.882,5.882,0,0,0,659-10.1V33.878a5.864,5.864,0,0,0,.2,1.507h65.072a5.866,5.866,0,0,0,.2-1.507Z" transform="translate(-599.129 531.673)" fill="none"/>
    <path id="Path_4591" data-name="Path 4591" d="M634.036,8.913V-35.066a5.882,5.882,0,0,1,5.875-5.875h53.715a5.882,5.882,0,0,1,5.875,5.875V8.913a5.861,5.861,0,0,1-.2,1.507h5.126a10.949,10.949,0,0,0,.107-1.507V-35.066a10.923,10.923,0,0,0-10.911-10.911H639.911A10.923,10.923,0,0,0,629-35.066V8.913a10.921,10.921,0,0,0,.107,1.507h5.126A5.866,5.866,0,0,1,634.036,8.913Z" transform="translate(-574.165 556.637)" fill="#bdccb6"/>
    <path id="Path_4592" data-name="Path 4592" d="M780.772,30.566a14.772,14.772,0,1,1,14.772-14.772A14.789,14.789,0,0,1,780.772,30.566Z" transform="translate(-688.168 517.527)" fill="#f2b64d"/>
    <path id="Path_4593" data-name="Path 4593" d="M850.585,20.023v23.5c6.8,0,12.323-5.271,12.323-11.749S857.38,20.023,850.585,20.023Z" transform="translate(-758.555 501.716)" fill="#ffd577"/>
    <path id="Path_4594" data-name="Path 4594" d="M794.323,43.522v-23.5c-6.8,0-12.324,5.271-12.324,11.749S787.528,43.522,794.323,43.522Z" transform="translate(-701.482 501.716)" fill="#ffd577"/>
    <g id="Group_2498" data-name="Group 2498" transform="translate(87.492 526.775)">
      <path id="Path_4595" data-name="Path 4595" d="M833.582,59.043a5.625,5.625,0,0,1-3.547,3.461,3.063,3.063,0,0,1-3.576-1.057,1.746,1.746,0,0,1-.435-1.144q.014-.869.014-2.621V56.509q-.724,0-1.071-.014a.4.4,0,0,1-.319-.13q-.261-.246-.782-.811l-.319-.319h2.49V52.817a.984.984,0,0,0-.333-.782.357.357,0,0,0-.109-.072.33.33,0,0,0-.08-.029.284.284,0,0,1-.13-.029l-.159-.014-.912-.029a5.019,5.019,0,0,1-.087-.927,4.8,4.8,0,0,1,.087-.912H825.6a1.791,1.791,0,0,1,.275.029,1.292,1.292,0,0,1,.855.492,2.54,2.54,0,0,1,.579,1.318,1.884,1.884,0,0,1,.043.42q.029.666.015,1.984v.941a.663.663,0,0,0,.13.015,1.043,1.043,0,0,1,1.071.463q.145.174.478.507l.318.318h-2v3.446a1.132,1.132,0,0,0,1.187,1.26A1.817,1.817,0,0,0,829.6,61a4.237,4.237,0,0,0,2.128-2.534,1.216,1.216,0,0,0,.043-.261l.029-.159h-.42a1.626,1.626,0,0,1-1.129-.4,1.571,1.571,0,0,1-.449-1.093,1.913,1.913,0,0,1,.043-.709,1.367,1.367,0,0,1,.47-.825,1.512,1.512,0,0,1,.9-.333,2.236,2.236,0,0,1,1.528.42,2.674,2.674,0,0,1,.934,1.39A3.673,3.673,0,0,1,833.582,59.043Z" transform="translate(-823.548 -50.023)" fill="#ba8735"/>
    </g>
    <path id="Path_4596" data-name="Path 4596" d="M863.272,117.566a14.772,14.772,0,1,1,14.772-14.772A14.789,14.789,0,0,1,863.272,117.566Z" transform="translate(-756.819 445.131)" fill="#f4a61f"/>
    <path id="Path_4597" data-name="Path 4597" d="M934.085,105.012v23.5c6.795,0,12.323-5.271,12.323-11.749S940.88,105.012,934.085,105.012Z" transform="translate(-828.038 430.993)" fill="#ffd577"/>
    <path id="Path_4598" data-name="Path 4598" d="M877.823,128.51v-23.5c-6.8,0-12.324,5.271-12.324,11.749S871.028,128.51,877.823,128.51Z" transform="translate(-770.966 430.993)" fill="#ffd577"/>
    <g id="Group_2500" data-name="Group 2500" transform="translate(101.977 541.757)">
      <path id="Path_4599" data-name="Path 4599" d="M919.336,147.808a5.322,5.322,0,0,1-3.356,3.274,2.9,2.9,0,0,1-3.384-1,1.653,1.653,0,0,1-.411-1.082q.014-.822.014-2.48v-1.11q-.685,0-1.014-.014a.382.382,0,0,1-.3-.123q-.247-.233-.74-.767l-.3-.3H912.2v-2.288a.931.931,0,0,0-.315-.74.338.338,0,0,0-.1-.069.31.31,0,0,0-.075-.027.269.269,0,0,1-.123-.027l-.151-.014-.863-.027a4.754,4.754,0,0,1-.082-.877,4.541,4.541,0,0,1,.082-.863h1.219a1.7,1.7,0,0,1,.26.027,1.221,1.221,0,0,1,.808.466,2.4,2.4,0,0,1,.548,1.247,1.769,1.769,0,0,1,.041.4q.027.63.014,1.877v.89a.628.628,0,0,0,.123.014.987.987,0,0,1,1.014.438q.136.164.452.479l.3.3h-1.891v3.261a1.071,1.071,0,0,0,1.124,1.192,1.72,1.72,0,0,0,.986-.205,4.008,4.008,0,0,0,2.014-2.4,1.127,1.127,0,0,0,.041-.247l.027-.151h-.4a1.538,1.538,0,0,1-1.069-.377,1.487,1.487,0,0,1-.425-1.034,1.813,1.813,0,0,1,.041-.671,1.292,1.292,0,0,1,.445-.781,1.43,1.43,0,0,1,.856-.315,2.115,2.115,0,0,1,1.445.4,2.531,2.531,0,0,1,.884,1.315A3.475,3.475,0,0,1,919.336,147.808Z" transform="translate(-909.842 -139.273)" fill="#ba8735"/>
    </g>
    <path id="Path_5340" data-name="Path 5340" d="M-1940.648-3003.534a6.964,6.964,0,0,1-5.567-5.567c0-.074-.073-.146-.146-.074a.072.072,0,0,0-.073.074,6.965,6.965,0,0,1-5.567,5.567c-.073,0-.146.073-.073.146a.071.071,0,0,0,.073.073,6.963,6.963,0,0,1,5.567,5.567c0,.073.073.146.146.073a.071.071,0,0,0,.073-.073,6.963,6.963,0,0,1,5.567-5.567c.073,0,.146-.073.073-.146C-1940.5-3003.534-1940.571-3003.534-1940.648-3003.534Z" transform="translate(2005.025 3484.5)" fill="#80ae6e"/>
    <path id="Path_5341" data-name="Path 5341" d="M2045.8-1675.565h-.809v-.809a1.115,1.115,0,0,0-1.126-1.127,1.116,1.116,0,0,0-1.127,1.127v.809h-.809a1.116,1.116,0,0,0-1.127,1.127,1.116,1.116,0,0,0,1.127,1.127h.809v.809a1.116,1.116,0,0,0,1.127,1.127,1.116,1.116,0,0,0,1.126-1.127v-.809h.809a1.116,1.116,0,0,0,1.127-1.127,1.116,1.116,0,0,0-1.127-1.127Z" transform="translate(-1913.272 2167.948)" fill="#8dce74"/>
    <path id="Path_5342" data-name="Path 5342" d="M1690.521-2968.922a.44.44,0,0,0-.121-.092.234.234,0,0,0-.122-.06.233.233,0,0,0-.151-.029.525.525,0,0,0-.3,0c-.059,0-.092.029-.151.029-.03.03-.092.03-.121.06s-.092.059-.122.092a.784.784,0,0,0,0,1.057.431.431,0,0,0,.122.092,1.1,1.1,0,0,0,.273.122.525.525,0,0,0,.3,0c.06,0,.092-.03.151-.03.059-.029.092-.029.122-.06s.092-.059.121-.092a.8.8,0,0,0,0-1.089Z" transform="translate(-1572.691 3444.383)" fill="#fbde69"/>
    <path id="Path_4271" data-name="Path 4271" d="M36.221,193.831H.143A.145.145,0,0,1,0,193.685V169H36.364v24.685A.145.145,0,0,1,36.221,193.831Z" transform="translate(104.636 362.098)" fill="#9bb591"/>
    <path id="Path_4272" data-name="Path 4272" d="M34.847,56.4H1.518A1.518,1.518,0,0,0,0,57.918V64.46H36.364V57.918A1.518,1.518,0,0,0,34.847,56.4Z" transform="translate(104.636 466.637)" fill="#80ae6e"/>
    <g id="Group_1888" data-name="Group 1888" transform="translate(107.213 534.655)">
      <rect id="Rectangle_1241" data-name="Rectangle 1241" width="5.118" height="5.118" transform="translate(0 0)" fill="#edf2f3"/>
      <rect id="Rectangle_1242" data-name="Rectangle 1242" width="5.118" height="5.118" transform="translate(0 13.042)" fill="#edf2f3"/>
      <rect id="Rectangle_1243" data-name="Rectangle 1243" width="5.118" height="5.118" transform="translate(0 6.521)" fill="#edf2f3"/>
      <rect id="Rectangle_1244" data-name="Rectangle 1244" width="5.118" height="5.118" transform="translate(6.521 0)" fill="#edf2f3"/>
      <rect id="Rectangle_1245" data-name="Rectangle 1245" width="5.118" height="5.118" transform="translate(6.521 13.042)" fill="#edf2f3"/>
      <rect id="Rectangle_1246" data-name="Rectangle 1246" width="5.118" height="5.118" transform="translate(6.521 6.521)" fill="#edf2f3"/>
      <rect id="Rectangle_1247" data-name="Rectangle 1247" width="5.118" height="5.118" transform="translate(13.042 0)" fill="#edf2f3"/>
      <rect id="Rectangle_1248" data-name="Rectangle 1248" width="5.118" height="5.118" transform="translate(13.042 13.042)" fill="#edf2f3"/>
      <rect id="Rectangle_1249" data-name="Rectangle 1249" width="5.118" height="5.118" transform="translate(13.042 6.521)" fill="#edf2f3"/>
      <rect id="Rectangle_1250" data-name="Rectangle 1250" width="5.118" height="5.118" transform="translate(19.564 0)" fill="#edf2f3"/>
      <rect id="Rectangle_1251" data-name="Rectangle 1251" width="5.118" height="5.118" transform="translate(19.564 13.042)" fill="#edf2f3"/>
    </g>
    <rect id="Rectangle_1252" data-name="Rectangle 1252" width="5.118" height="5.118" transform="translate(126.776 541.176)" fill="#548242"/>
    <g id="Group_1889" data-name="Group 1889" transform="translate(133.298 534.655)">
      <rect id="Rectangle_1253" data-name="Rectangle 1253" width="5.118" height="5.118" transform="translate(0 0)" fill="#edf2f3"/>
      <rect id="Rectangle_1254" data-name="Rectangle 1254" width="5.118" height="5.118" transform="translate(0 13.042)" fill="#edf2f3"/>
      <rect id="Rectangle_1255" data-name="Rectangle 1255" width="5.118" height="5.118" transform="translate(0 6.521)" fill="#edf2f3"/>
    </g>
    <rect id="Rectangle_1256" data-name="Rectangle 1256" width="4.08" height="8.089" rx="2.04" transform="translate(110.577 519)" fill="#548242"/>
    <rect id="Rectangle_1257" data-name="Rectangle 1257" width="4.08" height="8.089" rx="2.04" transform="translate(130.978 519)" fill="#548242"/>
  </g>
</svg>
