<svg xmlns="http://www.w3.org/2000/svg" width="35.474" height="38.313" viewBox="0 0 35.474 38.313">
  <g id="Group_1226" data-name="Group 1226" transform="translate(0)">
    <path id="Path_2973" data-name="Path 2973" d="M88.846,16.664S79.71,11.624,82.065,2.131,95.98-5.6,96.907-5.655s7.14,4.793,7.233,9.334S104.554,11,96.7,16.42v1.024l-7.12.689" transform="translate(-75.366 12.355)" fill="#e5bf23"/>
    <path id="Path_2974" data-name="Path 2974" d="M92.968-6.875a12.059,12.059,0,0,0-4.257,23.342v6.456a.709.709,0,0,0,.709.71h.709v1.419a.709.709,0,0,0,.71.709H95.1a.709.709,0,0,0,.71-.709V23.633h.709a.709.709,0,0,0,.71-.71V16.467A12.059,12.059,0,0,0,92.968-6.875ZM95.1,22.214a.709.709,0,0,0-.709.709v1.419H91.549V22.923a.709.709,0,0,0-.709-.709h-.71V18.667h5.676v3.547Zm1.2-6.923a.71.71,0,0,0-.488.674v1.283H90.13V15.965a.709.709,0,0,0-.488-.674,10.643,10.643,0,1,1,6.652,0Z" transform="translate(-75.231 12.551)" fill="#bcac68"/>
    <path id="Path_2975" data-name="Path 2975" d="M95.367-9.494a.709.709,0,0,0,.71-.71v-2.837a.709.709,0,0,0-.71-.71.709.709,0,0,0-.709.71V-10.2A.709.709,0,0,0,95.367-9.494Z" transform="translate(-77.63 13.751)" fill="#bcac68"/>
    <path id="Path_2976" data-name="Path 2976" d="M115.393,6.875h-2.837a.71.71,0,1,0,0,1.419h2.837a.71.71,0,1,0,0-1.419Z" transform="translate(-80.629 10.153)" fill="#bcac68"/>
    <path id="Path_2977" data-name="Path 2977" d="M77.579,6.875H74.741a.71.71,0,0,0,0,1.419h2.838a.71.71,0,0,0,0-1.419Z" transform="translate(-74.032 10.153)" fill="#bcac68"/>
    <path id="Path_2978" data-name="Path 2978" d="M109.027-7.5,107.02-5.5a.71.71,0,0,0,0,1,.71.71,0,0,0,.5.207.71.71,0,0,0,.5-.207L110.03-6.5a.709.709,0,0,0,0-1A.709.709,0,0,0,109.027-7.5Z" transform="translate(-79.751 12.697)" fill="#bcac68"/>
    <path id="Path_2979" data-name="Path 2979" d="M82.287,19.238,80.28,21.245a.709.709,0,1,0,1,1l2.007-2.007a.709.709,0,1,0-1-1Z" transform="translate(-75.086 8.032)" fill="#bcac68"/>
    <path id="Path_2980" data-name="Path 2980" d="M108.024,19.238a.71.71,0,1,0-1,1l2.007,2.007a.709.709,0,0,0,1-1Z" transform="translate(-79.751 8.032)" fill="#bcac68"/>
    <path id="Path_2981" data-name="Path 2981" d="M82.287-4.492a.707.707,0,0,0,.5.207.71.71,0,0,0,.5-.207.71.71,0,0,0,0-1L81.283-7.5a.709.709,0,0,0-1,0,.709.709,0,0,0,0,1Z" transform="translate(-75.086 12.697)" fill="#bcac68"/>
  </g>
</svg>
