<svg xmlns="http://www.w3.org/2000/svg" width="33.967" height="25.974" viewBox="0 0 33.967 25.974">
  <g id="Group_1227" data-name="Group 1227" transform="translate(0 0)">
    <path id="Path_2949" data-name="Path 2949" d="M880.167,202.492H868.093v-1a8.956,8.956,0,1,0-17.912,0v1H846.2v-1a16.984,16.984,0,1,1,33.967,0Z" transform="translate(-846.2 -184.513)" fill="#ffce2e"/>
    <path id="Path_2950" data-name="Path 2950" d="M889.7,189.487a16.984,16.984,0,0,0-24.019,0c-.236.236-.463.478-.683.725l3.773,3.773a8.951,8.951,0,0,1,13.5,5.119l12.383,1.667A16.861,16.861,0,0,0,889.7,189.487Z" transform="translate(-860.708 -184.513)" fill="#f90"/>
    <path id="Path_2951" data-name="Path 2951" d="M925.509,201.5v1h12.074v-1A16.984,16.984,0,0,0,920.6,184.513v9A8.966,8.966,0,0,1,925.509,201.5Z" transform="translate(-903.616 -184.513)" fill="#dd6140"/>
    <path id="Path_2952" data-name="Path 2952" d="M923.35,206.31l-15.276,13.937a1.327,1.327,0,0,0-.044,1.918l3.731,3.73a1.327,1.327,0,0,0,1.92-.046l13.9-15.307V206.31Z" transform="translate(-893.616 -201.334)" fill="#b7e4f8"/>
    <path id="Path_2953" data-name="Path 2953" d="M919.375,225.9a1.327,1.327,0,0,0,1.921-.046l13.9-15.307V206.31l-17.689,17.719Z" transform="translate(-901.23 -201.334)" fill="#6fc8f1"/>
    <path id="Path_2954" data-name="Path 2954" d="M907.148,271.38a3.981,3.981,0,1,1,2.815-1.166A3.954,3.954,0,0,1,907.148,271.38Z" transform="translate(-890.165 -245.407)" fill="#388cb3"/>
    <path id="Path_2955" data-name="Path 2955" d="M913.9,268.526l-5.63,5.629a3.981,3.981,0,0,0,5.63-5.629Z" transform="translate(-894.1 -249.348)" fill="#265d77"/>
  </g>
</svg>
