<svg xmlns="http://www.w3.org/2000/svg" width="87.238" height="97.246" viewBox="0 0 87.238 97.246">
  <g id="Group_3988" data-name="Group 3988" transform="translate(-220.535 -469.754)">
    <path id="Path_4161" data-name="Path 4161" d="M755.15,172.632h1.758v-.126C756.325,172.556,755.738,172.6,755.15,172.632Z" transform="translate(-494.453 345.991)" fill="#ebebeb"/>
    <path id="Path_4164" data-name="Path 4164" d="M757.837,172.506v0Z" transform="translate(-495.382 345.991)" fill="#fff"/>
    <path id="Path_4584" data-name="Path 4584" d="M707,10.7V-34.71a11.28,11.28,0,0,0-11.267-11.267H640.267A11.279,11.279,0,0,0,629-34.71V10.7a11.283,11.283,0,0,0,.11,1.556h77.78A11.3,11.3,0,0,0,707,10.7Z" transform="translate(-404 554.741)" fill="#f7fcf5"/>
    <path id="Path_4585" data-name="Path 4585" d="M742.955,101.623H720.071A4.071,4.071,0,0,1,716,97.552V90.094a4.071,4.071,0,0,1,4.071-4.071h22.884a4.071,4.071,0,0,1,4.071,4.071v7.457A4.071,4.071,0,0,1,742.955,101.623Z" transform="translate(-475.92 445.621)" fill="#e5bd4b"/>
    <path id="Path_4587" data-name="Path 4587" d="M718.815,156.423H691.425A2.425,2.425,0,0,1,689,154v-5.551a2.425,2.425,0,0,1,2.425-2.425h27.391a2.425,2.425,0,0,1,2.425,2.425V154A2.425,2.425,0,0,1,718.815,156.423Z" transform="translate(-453.6 396.021)" fill="#d39c39"/>
    <path id="Path_4588" data-name="Path 4588" d="M746.2-138.215H689v-26h57.2Z" transform="translate(-453.6 652.485)" fill="#bdccb6"/>
    <path id="Path_4590" data-name="Path 4590" d="M726.6-9.91a6.074,6.074,0,0,0-6.067-6.067H665.067A6.074,6.074,0,0,0,659-9.91V35.5a6.053,6.053,0,0,0,.2,1.556H726.4a6.058,6.058,0,0,0,.2-1.556Z" transform="translate(-428.8 529.941)" fill="none"/>
    <path id="Path_4591" data-name="Path 4591" d="M634.2,10.7V-34.71a6.074,6.074,0,0,1,6.067-6.067h55.467A6.074,6.074,0,0,1,701.8-34.71V10.7a6.053,6.053,0,0,1-.2,1.556h5.293A11.3,11.3,0,0,0,707,10.7V-34.71a11.28,11.28,0,0,0-11.267-11.267H640.267A11.279,11.279,0,0,0,629-34.71V10.7a11.283,11.283,0,0,0,.11,1.556H634.4A6.058,6.058,0,0,1,634.2,10.7Z" transform="translate(-404 554.741)" fill="#bdccb6"/>
    <path id="Path_4592" data-name="Path 4592" d="M781.253,31.53a15.253,15.253,0,1,1,15.253-15.253A15.271,15.271,0,0,1,781.253,31.53Z" transform="translate(-517.253 515.888)" fill="#f2b64d"/>
    <path id="Path_4593" data-name="Path 4593" d="M850.585,20.023V44.288c7.017,0,12.725-5.443,12.725-12.132S857.6,20.023,850.585,20.023Z" transform="translate(-587.177 500.181)" fill="#ffd577"/>
    <path id="Path_4594" data-name="Path 4594" d="M794.725,44.288V20.023c-7.017,0-12.725,5.443-12.725,12.132S787.708,44.288,794.725,44.288Z" transform="translate(-530.48 500.181)" fill="#ffd577"/>
    <rect id="Rectangle_1283" data-name="Rectangle 1283" width="64.451" height="13.867" rx="6" transform="translate(231.601 485.707)" fill="#80ae6e"/>
    <g id="Group_2498" data-name="Group 2498" transform="translate(258.722 525.404)">
      <path id="Path_4595" data-name="Path 4595" d="M833.909,59.337a5.808,5.808,0,0,1-3.663,3.573,3.163,3.163,0,0,1-3.693-1.091,1.8,1.8,0,0,1-.449-1.181q.015-.9.015-2.706V56.721q-.748,0-1.106-.015a.417.417,0,0,1-.329-.135q-.269-.254-.807-.837l-.329-.329h2.571v-2.5a1.016,1.016,0,0,0-.344-.807.371.371,0,0,0-.112-.075.341.341,0,0,0-.082-.03.293.293,0,0,1-.135-.03l-.164-.015-.942-.03a5.172,5.172,0,0,1-.09-.957,4.941,4.941,0,0,1,.09-.942h1.331a1.851,1.851,0,0,1,.284.03,1.334,1.334,0,0,1,.882.508,2.621,2.621,0,0,1,.6,1.36,1.939,1.939,0,0,1,.045.434q.03.688.015,2.048v.972a.684.684,0,0,0,.135.015,1.077,1.077,0,0,1,1.106.478q.149.179.493.523l.329.329H827.5v3.558a1.169,1.169,0,0,0,1.226,1.3,1.876,1.876,0,0,0,1.077-.224,4.376,4.376,0,0,0,2.2-2.616,1.248,1.248,0,0,0,.045-.269l.03-.164h-.433a1.679,1.679,0,0,1-1.166-.411,1.623,1.623,0,0,1-.463-1.129,1.974,1.974,0,0,1,.045-.733,1.411,1.411,0,0,1,.486-.852,1.561,1.561,0,0,1,.934-.344,2.309,2.309,0,0,1,1.578.434,2.762,2.762,0,0,1,.964,1.435A3.794,3.794,0,0,1,833.909,59.337Z" transform="translate(-823.548 -50.023)" fill="#ba8735"/>
    </g>
    <path id="Path_4596" data-name="Path 4596" d="M863.753,118.53a15.253,15.253,0,1,1,15.253-15.253A15.271,15.271,0,0,1,863.753,118.53Z" transform="translate(-585.453 443.968)" fill="#f4a61f"/>
    <path id="Path_4597" data-name="Path 4597" d="M934.085,105.012v24.265c7.017,0,12.725-5.443,12.725-12.132S941.1,105.012,934.085,105.012Z" transform="translate(-656.204 429.924)" fill="#ffd577"/>
    <path id="Path_4598" data-name="Path 4598" d="M878.225,129.277V105.012c-7.017,0-12.725,5.442-12.725,12.132S871.209,129.277,878.225,129.277Z" transform="translate(-599.507 429.924)" fill="#ffd577"/>
    <g id="Group_2500" data-name="Group 2500" transform="translate(273.679 540.874)">
      <path id="Path_4599" data-name="Path 4599" d="M919.646,148.086a5.5,5.5,0,0,1-3.466,3.381,2.993,2.993,0,0,1-3.494-1.033,1.707,1.707,0,0,1-.424-1.118q.014-.849.014-2.56v-1.146q-.707,0-1.047-.014a.4.4,0,0,1-.311-.127q-.255-.241-.764-.792l-.311-.311h2.433V142a.961.961,0,0,0-.325-.764.349.349,0,0,0-.106-.071.319.319,0,0,0-.078-.028.278.278,0,0,1-.127-.028l-.156-.014-.891-.028a4.916,4.916,0,0,1-.085-.905,4.7,4.7,0,0,1,.085-.891h1.259a1.753,1.753,0,0,1,.269.028,1.261,1.261,0,0,1,.835.481,2.476,2.476,0,0,1,.566,1.287,1.829,1.829,0,0,1,.042.41q.028.651.014,1.938v.919a.649.649,0,0,0,.127.014,1.019,1.019,0,0,1,1.047.453q.141.17.467.5l.311.311h-1.952v3.367a1.106,1.106,0,0,0,1.16,1.231,1.776,1.776,0,0,0,1.019-.212,4.139,4.139,0,0,0,2.079-2.476,1.16,1.16,0,0,0,.043-.255l.028-.156h-.41a1.588,1.588,0,0,1-1.1-.389,1.536,1.536,0,0,1-.439-1.068,1.872,1.872,0,0,1,.042-.693,1.334,1.334,0,0,1,.46-.806,1.476,1.476,0,0,1,.884-.325,2.184,2.184,0,0,1,1.493.41,2.614,2.614,0,0,1,.912,1.358A3.589,3.589,0,0,1,919.646,148.086Z" transform="translate(-909.842 -139.273)" fill="#ba8735"/>
    </g>
    <rect id="Rectangle_1284" data-name="Rectangle 1284" width="1.213" height="9.88" rx="0.607" transform="translate(235.227 488.006)" fill="#548242"/>
    <rect id="Rectangle_1285" data-name="Rectangle 1285" width="1.213" height="8.728" rx="0.607" transform="translate(232.742 488.006)" fill="#548242"/>
    <rect id="Rectangle_1286" data-name="Rectangle 1286" width="1.213" height="9.88" rx="0.607" transform="translate(238.173 488.006)" fill="#548242"/>
    <rect id="Rectangle_1287" data-name="Rectangle 1287" width="1.213" height="9.88" rx="0.607" transform="translate(241.12 488.006)" fill="#548242"/>
    <rect id="Rectangle_1288" data-name="Rectangle 1288" width="1.213" height="9.88" rx="0.607" transform="translate(244.067 488.006)" fill="#548242"/>
    <rect id="Rectangle_1289" data-name="Rectangle 1289" width="1.213" height="9.88" rx="0.607" transform="translate(247.013 488.006)" fill="#548242"/>
    <rect id="Rectangle_1290" data-name="Rectangle 1290" width="1.213" height="9.88" rx="0.607" transform="translate(249.96 488.006)" fill="#548242"/>
    <rect id="Rectangle_1291" data-name="Rectangle 1291" width="1.213" height="9.88" rx="0.607" transform="translate(252.907 488.006)" fill="#548242"/>
    <rect id="Rectangle_1292" data-name="Rectangle 1292" width="1.213" height="9.88" rx="0.607" transform="translate(255.853 488.006)" fill="#548242"/>
    <rect id="Rectangle_1293" data-name="Rectangle 1293" width="1.213" height="9.88" rx="0.607" transform="translate(258.8 488.006)" fill="#548242"/>
    <rect id="Rectangle_1294" data-name="Rectangle 1294" width="1.213" height="9.88" rx="0.607" transform="translate(261.747 488.006)" fill="#548242"/>
    <rect id="Rectangle_1295" data-name="Rectangle 1295" width="1.213" height="9.88" rx="0.607" transform="translate(264.693 488.006)" fill="#548242"/>
    <rect id="Rectangle_1296" data-name="Rectangle 1296" width="1.213" height="9.88" rx="0.607" transform="translate(267.64 488.006)" fill="#548242"/>
    <rect id="Rectangle_1297" data-name="Rectangle 1297" width="1.213" height="9.88" rx="0.607" transform="translate(270.587 488.006)" fill="#548242"/>
    <rect id="Rectangle_1298" data-name="Rectangle 1298" width="1.213" height="9.88" rx="0.607" transform="translate(273.533 488.006)" fill="#548242"/>
    <rect id="Rectangle_1299" data-name="Rectangle 1299" width="1.213" height="9.88" rx="0.607" transform="translate(276.48 488.006)" fill="#548242"/>
    <rect id="Rectangle_1300" data-name="Rectangle 1300" width="1.213" height="9.88" rx="0.607" transform="translate(279.427 488.006)" fill="#548242"/>
    <rect id="Rectangle_1301" data-name="Rectangle 1301" width="1.213" height="9.88" rx="0.607" transform="translate(282.373 488.006)" fill="#548242"/>
    <rect id="Rectangle_1302" data-name="Rectangle 1302" width="1.213" height="9.88" rx="0.607" transform="translate(285.32 488.006)" fill="#548242"/>
    <rect id="Rectangle_1303" data-name="Rectangle 1303" width="1.213" height="9.88" rx="0.607" transform="translate(288.267 488.006)" fill="#548242"/>
    <rect id="Rectangle_1304" data-name="Rectangle 1304" width="1.213" height="9.88" rx="0.607" transform="translate(291.213 488.006)" fill="#548242"/>
    <rect id="Rectangle_1305" data-name="Rectangle 1305" width="1.213" height="8.728" rx="0.607" transform="translate(293.553 488.159)" fill="#548242"/>
    <path id="Path_5343" data-name="Path 5343" d="M-1943.334-3004.863a5.331,5.331,0,0,1-4.262-4.262c0-.057-.056-.112-.112-.057a.055.055,0,0,0-.056.057,5.332,5.332,0,0,1-4.262,4.262c-.056,0-.112.056-.056.112a.055.055,0,0,0,.056.056,5.33,5.33,0,0,1,4.262,4.262c0,.056.056.112.112.056a.055.055,0,0,0,.056-.056,5.33,5.33,0,0,1,4.262-4.262c.056,0,.112-.056.056-.112C-1943.218-3004.863-1943.274-3004.863-1943.334-3004.863Z" transform="translate(2251.025 3504.21)" fill="#8dce74"/>
    <path id="Path_5345" data-name="Path 5345" d="M2044.94-1675.9h-.67v-.67a.924.924,0,0,0-.933-.933.924.924,0,0,0-.933.933v.67h-.67a.924.924,0,0,0-.933.933.924.924,0,0,0,.933.933h.67v.669a.924.924,0,0,0,.933.934.924.924,0,0,0,.933-.934v-.669h.67a.924.924,0,0,0,.933-.933.924.924,0,0,0-.933-.933Z" transform="translate(-1818.272 2147.254)" fill="#80ae6e"/>
    <path id="Path_5344" data-name="Path 5344" d="M1690.521-2968.922a.44.44,0,0,0-.121-.092.234.234,0,0,0-.122-.06.233.233,0,0,0-.151-.029.525.525,0,0,0-.3,0c-.059,0-.092.029-.151.029-.03.03-.092.03-.121.06s-.092.059-.122.092a.784.784,0,0,0,0,1.057.431.431,0,0,0,.122.092,1.1,1.1,0,0,0,.273.122.525.525,0,0,0,.3,0c.06,0,.092-.03.151-.03.059-.029.092-.029.122-.06s.092-.059.121-.092a.8.8,0,0,0,0-1.089Z" transform="translate(-1468.691 3467.383)" fill="#ffd577"/>
  </g>
</svg>
