<svg xmlns="http://www.w3.org/2000/svg" width="103.432" height="96.461" viewBox="0 0 103.432 96.461">
  <g id="Group_3978" data-name="Group 3978" transform="translate(-220.94 -481.258)">
    <path id="Path_5515" data-name="Path 5515" d="M755.15,172.645H757.1v-.139C756.449,172.561,755.8,172.609,755.15,172.645Z" transform="translate(-490.281 351.055)" fill="#ebebeb"/>
    <path id="Path_5516" data-name="Path 5516" d="M757.837,172.506v0Z" transform="translate(-491.023 351.055)" fill="#fff"/>
    <ellipse id="Ellipse_152" data-name="Ellipse 152" cx="1.094" cy="1.094" rx="1.094" ry="1.094" transform="translate(234.211 511.884)" fill="#3abaf4"/>
    <g id="Group_3977" data-name="Group 3977" transform="translate(223.166 525.102)">
      <path id="Path_5509" data-name="Path 5509" d="M-1035.25-104.479a6.007,6.007,0,0,0-.574-8.488,5.958,5.958,0,0,0-3.987-1.48c-.106,0-.212.03-.317.03a6.379,6.379,0,0,0,.317-1.843,6.039,6.039,0,0,0-6.041-6.041,6.039,6.039,0,0,0-6.041,6.041,6.284,6.284,0,0,0,.317,1.843c-.106,0-.211-.03-.317-.03a6.007,6.007,0,0,0-6.041,5.981,6.035,6.035,0,0,0,1.48,3.987,5.991,5.991,0,0,0,.242,8.155,6.039,6.039,0,0,0,.091,8.548,6.053,6.053,0,0,0,4.229,1.722h12.082a6.049,6.049,0,0,0,6.041-6.041,6.054,6.054,0,0,0-1.722-4.229A5.991,5.991,0,0,0-1035.25-104.479Z" transform="translate(1057.94 122.3)" fill="#a7cf5c"/>
      <g id="Group_3973" data-name="Group 3973" transform="translate(6.053 8.457)">
        <path id="Path_4177" data-name="Path 4177" d="M-984.692-27.638a1.212,1.212,0,0,1-1.208-1.208V-65.092a1.212,1.212,0,0,1,1.208-1.208,1.212,1.212,0,0,1,1.208,1.208v36.246A1.212,1.212,0,0,1-984.692-27.638Z" transform="translate(990.727 66.3)" fill="#618c20"/>
        <path id="Path_4178" data-name="Path 4178" d="M-1011.828-26.923a1.224,1.224,0,0,1-.861-.347l-4.833-4.833a1.2,1.2,0,0,1,.03-1.707,1.2,1.2,0,0,1,1.676,0l4.833,4.833a1.212,1.212,0,0,1,0,1.707,1.225,1.225,0,0,1-.845.347Z" transform="translate(1017.864 39.005)" fill="#618c20"/>
        <path id="Path_4179" data-name="Path 4179" d="M-1011.828,45.077a1.224,1.224,0,0,1-.861-.347l-4.833-4.833a1.2,1.2,0,0,1,.03-1.707,1.2,1.2,0,0,1,1.676,0l4.833,4.833a1.212,1.212,0,0,1,0,1.707A1.225,1.225,0,0,1-1011.828,45.077Z" transform="translate(1017.864 -22.121)" fill="#618c20"/>
      </g>
    </g>
    <path id="Path_5519" data-name="Path 5519" d="M-1939.431-3002.931a7.7,7.7,0,0,1-6.158-6.158c0-.082-.081-.162-.162-.082a.08.08,0,0,0-.081.082,7.7,7.7,0,0,1-6.158,6.158c-.081,0-.162.08-.081.162a.079.079,0,0,0,.081.081,7.7,7.7,0,0,1,6.158,6.158c0,.081.081.162.162.081a.079.079,0,0,0,.081-.081,7.7,7.7,0,0,1,6.158-6.158c.081,0,.162-.081.081-.162C-1939.264-3002.931-1939.345-3002.931-1939.431-3002.931Z" transform="translate(2263.685 3496.036)" fill="#2594af"/>
    <path id="Path_5517" data-name="Path 5517" d="M2044.156-1676.2h-.543v-.543a.749.749,0,0,0-.756-.756.749.749,0,0,0-.757.756v.543h-.543a.749.749,0,0,0-.756.757.749.749,0,0,0,.756.756h.543v.543a.749.749,0,0,0,.757.757.749.749,0,0,0,.756-.757v-.543h.543a.749.749,0,0,0,.757-.756.749.749,0,0,0-.757-.757Z" transform="translate(-1781.649 2185.519)" fill="#8dce74"/>
    <path id="Path_5513" data-name="Path 5513" d="M1690.659-2968.9a.492.492,0,0,0-.134-.1.261.261,0,0,0-.135-.066.259.259,0,0,0-.167-.032.576.576,0,0,0-.335,0c-.066,0-.1.032-.167.032-.033.034-.1.034-.134.066s-.1.065-.135.1a.867.867,0,0,0,0,1.169.473.473,0,0,0,.135.1,1.223,1.223,0,0,0,.3.135.584.584,0,0,0,.335,0c.066,0,.1-.033.167-.033.066-.032.1-.032.135-.066s.1-.065.134-.1a.881.881,0,0,0,0-1.2Z" transform="translate(-1445.555 3450.383)" fill="#fbde69"/>
    <path id="Subtraction_73" data-name="Subtraction 73" d="M21.221,13.091H.258A10.741,10.741,0,1,1,21.479,10.74a10.8,10.8,0,0,1-.258,2.35Z" transform="translate(221.44 564.128)" fill="#8ab43c" stroke="rgba(0,0,0,0)" stroke-width="1"/>
    <path id="Subtraction_74" data-name="Subtraction 74" d="M30.683,26.366H2.965A16.825,16.825,0,0,1,28.72,4.928a16.829,16.829,0,0,1,1.963,21.438Z" transform="translate(286.71 550.853)" fill="#8ab43c" stroke="rgba(0,0,0,0)" stroke-width="1"/>
    <g id="Group_3976" data-name="Group 3976" transform="translate(239.76 493.417)">
      <path id="Path_5525" data-name="Path 5525" d="M79.72,77.017v66.207H19.968V77.017L34.591,80.29l.207-.1,12.988-5.771a5.079,5.079,0,0,1,2.041-.435h.018a5.052,5.052,0,0,1,2.059.435L65,80.235l.1.056Zm0,0" transform="translate(-16.7 -61.871)" fill="#ebe8d5"/>
      <path id="Path_5526" data-name="Path 5526" d="M232.284,77.017v66.207H202.39V73.98h.018a5.051,5.051,0,0,1,2.059.435l13.093,5.819.1.056Zm0,0" transform="translate(-169.264 -61.871)" fill="#d4ceb8"/>
      <path id="Path_5527" data-name="Path 5527" d="M174.84,329.894v24.969H161.379V329.894a5.791,5.791,0,0,1,5.784-5.784h1.892a5.791,5.791,0,0,1,5.784,5.784Zm0,0" transform="translate(-134.965 -271.061)" fill="#2594af"/>
      <path id="Path_5528" data-name="Path 5528" d="M209.139,329.893v24.969h-6.748V324.109h.964A5.791,5.791,0,0,1,209.139,329.893Zm0,0" transform="translate(-169.264 -271.061)" fill="#00728e"/>
      <path id="Path_5529" data-name="Path 5529" d="M66.963,17.061A3.307,3.307,0,0,1,64.3,18.418H5.23A3.3,3.3,0,0,1,2.1,14.1l.036-.1L6.1,3.384A4.963,4.963,0,0,1,10.809,0H58.72a4.963,4.963,0,0,1,4.712,3.385l3.984,10.667.017.052a3.309,3.309,0,0,1-.47,2.957Zm0,0" transform="translate(-1.62 0.001)" fill="#2594af"/>
      <path id="Path_5530" data-name="Path 5530" d="M234.7,17.061a3.307,3.307,0,0,1-2.664,1.357H202.5V0h23.955a4.963,4.963,0,0,1,4.712,3.385l3.984,10.667.017.052a3.309,3.309,0,0,1-.47,2.957Zm0,0" transform="translate(-169.356 0)" fill="#00728e"/>
      <path id="Path_5531" data-name="Path 5531" d="M139.926,80.29h-30.5l.206-.1,12.988-5.771a5.111,5.111,0,0,1,2.023-.435h.036a5.057,5.057,0,0,1,2.059.435l13.092,5.819Zm0,0" transform="translate(-91.512 -61.871)" fill="#ebe8d5"/>
      <path id="Path_5532" data-name="Path 5532" d="M66.289,484.455a2.455,2.455,0,0,1-2.455,2.455H2.455a2.455,2.455,0,0,1,0-4.91H63.834A2.455,2.455,0,0,1,66.289,484.455Zm0,0" transform="translate(0 -403.108)" fill="#00db7e"/>
      <path id="Path_5533" data-name="Path 5533" d="M235.553,484.455a2.455,2.455,0,0,1-2.455,2.455H202.391V482H233.1A2.455,2.455,0,0,1,235.553,484.455Zm0,0" transform="translate(-169.264 -403.108)" fill="#00a863"/>
      <path id="Path_5534" data-name="Path 5534" d="M66.673,139.015v10.991a2.63,2.63,0,0,1-2.629,2.627h-8.2a2.631,2.631,0,0,1-2.628-2.627V139.015A5.791,5.791,0,0,1,59,133.23h1.894a5.791,5.791,0,0,1,5.784,5.784Zm0,0" transform="translate(-44.502 -111.424)" fill="#fff"/>
      <path id="Path_5535" data-name="Path 5535" d="M66.289,275.935a2.455,2.455,0,0,1-2.455,2.455H2.455a2.455,2.455,0,0,1,0-4.91H63.834A2.455,2.455,0,0,1,66.289,275.935Zm0,0" transform="translate(0 -228.718)" fill="#6ab1c4"/>
      <path id="Path_5536" data-name="Path 5536" d="M66.673,139.015v3.033H53.211v-3.033A5.791,5.791,0,0,1,59,133.23h1.894a5.791,5.791,0,0,1,5.784,5.784Zm0,0" transform="translate(-44.502 -111.424)" fill="#6ab1c4"/>
      <path id="Path_5537" data-name="Path 5537" d="M174.841,139.015v10.991a2.63,2.63,0,0,1-2.628,2.627h-8.2a2.632,2.632,0,0,1-2.629-2.627V139.015a5.791,5.791,0,0,1,5.784-5.784h1.894A5.791,5.791,0,0,1,174.841,139.015Zm0,0" transform="translate(-134.965 -111.424)" fill="#fff"/>
      <path id="Path_5538" data-name="Path 5538" d="M209.14,139.015v10.991a2.63,2.63,0,0,1-2.628,2.627h-4.121v-19.4h.965A5.791,5.791,0,0,1,209.14,139.015Zm0,0" transform="translate(-169.264 -111.424)" fill="#d9eeff"/>
      <path id="Path_5539" data-name="Path 5539" d="M174.841,139.015v3.033H161.379v-3.033a5.791,5.791,0,0,1,5.784-5.784h1.894A5.791,5.791,0,0,1,174.841,139.015Zm0,0" transform="translate(-134.965 -111.424)" fill="#6ab1c4"/>
      <path id="Path_5540" data-name="Path 5540" d="M209.14,139.015v3.033h-6.75V133.23h.965A5.791,5.791,0,0,1,209.14,139.015Zm0,0" transform="translate(-169.264 -111.424)" fill="#00add9"/>
      <path id="Path_5541" data-name="Path 5541" d="M281.716,139.015v10.991a2.631,2.631,0,0,1-2.629,2.627h-8.2a2.631,2.631,0,0,1-2.628-2.627V139.015a5.791,5.791,0,0,1,5.784-5.784h1.893A5.791,5.791,0,0,1,281.716,139.015Zm0,0" transform="translate(-224.347 -111.424)" fill="#d9eeff"/>
      <path id="Path_5542" data-name="Path 5542" d="M281.716,139.015v3.033H268.254v-3.033a5.791,5.791,0,0,1,5.784-5.784h1.893A5.791,5.791,0,0,1,281.716,139.015Zm0,0" transform="translate(-224.347 -111.424)" fill="#00add9"/>
      <path id="Path_5543" data-name="Path 5543" d="M235.553,275.935a2.455,2.455,0,0,1-2.455,2.455H202.391v-4.91H233.1A2.455,2.455,0,0,1,235.553,275.935Zm0,0" transform="translate(-169.264 -228.718)" fill="#00728e"/>
      <path id="Path_5544" data-name="Path 5544" d="M66.673,330.976v10.991a2.63,2.63,0,0,1-2.629,2.627h-8.2a2.631,2.631,0,0,1-2.628-2.627V330.976A5.791,5.791,0,0,1,59,325.191h1.894a5.791,5.791,0,0,1,5.784,5.784Zm0,0" transform="translate(-44.502 -271.965)" fill="#fff"/>
      <path id="Path_5545" data-name="Path 5545" d="M66.673,330.976v3.032H53.211v-3.032A5.791,5.791,0,0,1,59,325.191h1.894a5.791,5.791,0,0,1,5.784,5.784Zm0,0" transform="translate(-44.502 -271.965)" fill="#6ab1c4"/>
      <path id="Path_5546" data-name="Path 5546" d="M281.716,329.894v10.991a2.63,2.63,0,0,1-2.629,2.626h-8.2a2.631,2.631,0,0,1-2.628-2.626V329.894a5.791,5.791,0,0,1,5.784-5.784h1.893A5.792,5.792,0,0,1,281.716,329.894Zm0,0" transform="translate(-224.347 -271.061)" fill="#d9eeff"/>
      <path id="Path_5547" data-name="Path 5547" d="M281.716,329.894v3.033H268.254v-3.033a5.791,5.791,0,0,1,5.784-5.784h1.893A5.792,5.792,0,0,1,281.716,329.894Zm0,0" transform="translate(-224.347 -271.061)" fill="#00add9"/>
      <path id="Path_5548" data-name="Path 5548" d="M217.678,80.29H202.391V73.98h.036a5.056,5.056,0,0,1,2.059.435l13.092,5.819Zm0,0" transform="translate(-169.264 -61.871)" fill="#d4ceb8"/>
    </g>
  </g>
</svg>
