<svg xmlns="http://www.w3.org/2000/svg" width="111.6" height="149.95" viewBox="0 0 111.6 149.95">
  <g id="Insurance" transform="translate(-19.4 -0.05)">
    <g id="XMLID_133_">
      <path id="XMLID_44_" d="M95.9,77.9l-3.1,1.9L78.4,97.2l.4,4.9h6.7L97.7,82.9Z" fill="#f8ba56"/>
    </g>
    <path id="XMLID_57_" d="M117.1,132.9c-1.6-8-3.2-16-4.5-24.1-1.8-10.5-4.6-20.7-5.6-31.4-3.7,0-9.4-2.4-11.9,1.4-.1.1-.1.2-.2.3a25.569,25.569,0,0,0-1.1,2.4c-1.3,3.4-2.4,6.8-3.4,10.3-4,13.9-6.1,28.3-10.4,42.1h-.1l-5.4,16h47C120.5,146.2,118.4,138.8,117.1,132.9Z" fill="#f8ba56"/>
    <path id="XMLID_56_" d="M51.6,145.9l.1-.6.1.2.3,4.5H63l1-7.4-.3-28.9-9.2-1.4-3.2-.5-5.2-.3-3-.1-4.2,9.8-.4,27.7-.3,1.1H49.6Z" fill="#195667"/>
    <g id="XMLID_167_">
      <path id="XMLID_55_" d="M77.1,76.8l.4,2.9-1.3,1.9-2-.2L74,78l2.7-1.4Z" fill="#eac5b1"/>
    </g>
    <g id="XMLID_165_">
      <path id="XMLID_54_" d="M55.5,74.5,69.7,93.2l2.7-12.3,5.1,1-3,18.5-4.9,3.4L56.7,95.1Z" fill="#689379"/>
    </g>
    <g id="XMLID_163_">
      <path id="XMLID_53_" d="M107,77.4l4.5,3.3,17.7,24.5-.8,5.8h-8L102.7,87.3Z" fill="#f8ba56"/>
    </g>
    <g id="XMLID_161_">
      <path id="XMLID_52_" d="M55.5,74.5l-11.1-.4s-6.7,5.8-10.1,21c-3.5,15.4.6,37.7.6,37.7s29.8-4,34.7-4.6L62.1,97.7Z" fill="#689379"/>
    </g>
    <g id="XMLID_157_">
      <path id="XMLID_51_" d="M51.5,75.6c-1.3-.1-2.6-.3-3.9-.4,0-1,.1-2.1.2-3.1-1.1-.4-2.3-.9-2.5-2.1a2.079,2.079,0,0,1,.1-1.1c.3-1.5.5-2.9.8-4.4a4.424,4.424,0,0,1,.5-1.5A3.369,3.369,0,0,1,49,61.7a7.884,7.884,0,0,1,6.5,1.6,3.269,3.269,0,0,1,1.1,1.5,4.5,4.5,0,0,1-.2,2.8,23.348,23.348,0,0,1-.7,2.5c-.3,1-.6,2.1-1.6,2.5-.5.2-1.1.1-1.5.4C51.8,73.6,51.9,74.8,51.5,75.6Z" fill="#eac5b1"/>
    </g>
    <g id="XMLID_152_">
      <path id="XMLID_20_" d="M64.2,60.9a15.262,15.262,0,0,0-.3-3c-.3-1.6-2.2-2.3-3.8-2.4-3.5-.2-6.9-1.8-10.3-.6-1.9.7-4.6.9-6.3,1.8a6.173,6.173,0,0,0-1.8,1.8,7.776,7.776,0,0,0,0,8.3,9.832,9.832,0,0,0,1.2,1.5,8.318,8.318,0,0,0,3.3,2.6c0-1.1-1-4.7-.1-5.6,1.4-1.5,4.5-1,6.2-.6,1.9.4,3.5,1.7,5.4,2a8.009,8.009,0,0,0,4.2-1.1A5.825,5.825,0,0,0,64.2,60.9Z" fill="#354657"/>
    </g>
    <g id="XMLID_150_">
      <path id="XMLID_49_" d="M52.4,75.8l11.7,46.8,1,6.1-14.6,1.9s.6-22.4.4-25.4-2.4-9.4-2.7-16.4c-.2-4-1.5-11.3-.6-13.6Z" fill="#cace9f"/>
    </g>
    <g id="XMLID_146_">
      <path id="XMLID_48_" d="M93.1,60.8S91,62.5,92,68.7A37.294,37.294,0,0,1,92.4,79s2.1,1,3.7,0,2.1-1.2,1.6-3.7C97.1,72.8,96,60.7,96,60.7Z" fill="#354657"/>
    </g>
    <g id="XMLID_144_">
      <path id="XMLID_18_" d="M98.3,62.9a6.223,6.223,0,0,0-4.5,5.3,5.764,5.764,0,0,1-1.7-4.8A5.608,5.608,0,0,1,95,59.2a6.613,6.613,0,0,1,3.1,3.7Z" fill="#354657"/>
    </g>
    <g id="XMLID_139_">
      <path id="XMLID_9_" d="M93.4,66c1.2-6.5,9.3-5.3,11.6-.1,1.3,3,1,8.8-2.7,9.8-.1.6-.1,1.6-.6,2s-2,0-2.5-.1a.52.52,0,0,1-.4-.2,1.855,1.855,0,0,1-.2-1,3.079,3.079,0,0,1-1.3-.3,6.376,6.376,0,0,1-3.8-4.2A13.042,13.042,0,0,1,93.4,66Z" fill="#eac5b1"/>
    </g>
    <g id="XMLID_135_">
      <path id="XMLID_45_" d="M95.1,59.1s-.8,3.5,3.7,4.5,7.4,4.5,6.6,8.2-4.1,6.4-2.3,7.4c1.7,1,8.2,0,8.2,0s3.9-13-1.4-18.7S97.1,54.7,95.1,59.1Z" fill="#354657"/>
    </g>
    <g id="XMLID_131_">
      <path id="XMLID_43_" d="M131,94.8c-13.6-2.3-17.7-10.7-18.2-11.9v-.1h-.1c-1.2.5-9.9,3.8-21.4-3.9,0,0-11,21.8-7.3,33.9,3.9,13,9.3,18.6,9.3,18.6s7.8-.2,19.6-7C123.8,118,131,94.8,131,94.8Z" fill="#3a5a45"/>
    </g>
    <g id="XMLID_129_">
      <path id="XMLID_42_" d="M128.2,96.3c-12.4-2.1-16.1-9.6-16.5-10.7v-.1h-.1c-1.1.5-8.9,3.3-19.4-3.6,0,0-9.8,19.4-6.4,30.3,3.6,11.6,8.3,17.2,8.3,17.2s7.3-.7,17.9-6.7C121.9,117.1,128.2,96.3,128.2,96.3Z" fill="#4db57c"/>
    </g>
    <g id="XMLID_126_">
      <g id="XMLID_127_">
        <path id="XMLID_41_" d="M110.8,87.6h0c.1-.1.1,0,0,0,.6,1.1,4.3,8.7,16.7,11.1.8-2.1,1.2-3.4,1.2-3.4-12.4-2.1-16.1-9.6-16.5-10.7v-.1h-.1c-1.1.5-8.9,3.3-19.4-3.6,0,0-.6,1.2-1.5,3.3C101.7,90.9,109.7,88,110.8,87.6Z" fill="#ecf3d4"/>
      </g>
    </g>
    <g id="XMLID_124_">
      <path id="XMLID_40_" d="M122.6,100.6c-9.3-1.6-13.1-7.9-13.4-8.8h0c-.8.4-7.8,2.4-15.7-2.9,0,0-6.5,15.1-4,23.5,2.7,8.9,6.4,12.7,6.4,12.7s5.4-.2,13.4-4.8C116.8,115.9,122.6,100.6,122.6,100.6Z" fill="#ecf3d4"/>
    </g>
    <g id="XMLID_122_">
      <path id="XMLID_39_" d="M44.4,74.1,39.2,77,21.9,102.7l1.5,6.6,9.5-1.2Z" fill="#689379"/>
    </g>
    <g id="XMLID_120_">
      <path id="XMLID_38_" d="M71.6,111.2l-36.8,9.5L28.1,94.8l15.7-15,21.1,5.5Z" fill="#4db57c"/>
    </g>
    <g id="XMLID_118_">
      <path id="XMLID_37_" d="M73.9,82.1c-3.4-.9-6.7-1.7-10.1-2.6-5.4-1.4-10.9-2.8-16.3-4.2-1.3-.3-2.6-.7-4-1a2.257,2.257,0,0,0-2.2.6L40.2,76c-3.7,3.7-7.4,7.3-11.1,11-3,3-6,5.9-9,8.9a.1.1,0,0,1-.1.1,1.98,1.98,0,0,0,2.8,2.8c2.4-2.4,4.9-4.8,7.3-7.2,3.9-3.8,7.7-7.7,11.6-11.5l1.9-1.9c3.1.8,6.1,1.6,9.2,2.4,5.5,1.4,11,2.8,16.5,4.3,1.3.3,2.5.7,3.8,1a1.939,1.939,0,0,0,2.4-1.4A2.412,2.412,0,0,0,73.9,82.1Z" fill="#3a5a45"/>
    </g>
    <g id="XMLID_116_">
      <rect id="XMLID_36_" width="9.3" height="17.8" transform="matrix(0.968, -0.251, 0.251, 0.968, 35.308, 101.257)" fill="#ecf3d4"/>
    </g>
    <g id="XMLID_107_">
      <g id="XMLID_114_">
        <rect id="XMLID_35_" width="5" height="4.3" transform="matrix(0.968, -0.251, 0.251, 0.968, 50.348, 97.406)" fill="#ecf3d4"/>
      </g>
      <g id="XMLID_112_">
        <rect id="XMLID_34_" width="5" height="4.3" transform="matrix(0.968, -0.251, 0.251, 0.968, 56.736, 95.703)" fill="#ecf3d4"/>
      </g>
      <g id="XMLID_110_">
        <rect id="XMLID_33_" width="5" height="4.3" transform="matrix(0.968, -0.251, 0.251, 0.968, 51.85, 103.099)" fill="#ecf3d4"/>
      </g>
      <g id="XMLID_108_">
        <rect id="XMLID_32_" width="5" height="4.3" transform="matrix(0.968, -0.251, 0.251, 0.968, 58.237, 101.397)" fill="#ecf3d4"/>
      </g>
    </g>
    <g id="XMLID_105_">
      <path id="XMLID_31_" d="M21.9,102.7l6.4-2,21.4,11.5L48,116.7l-24.6-7.4Z" fill="#689379"/>
    </g>
    <g id="XMLID_103_">
      <path id="XMLID_28_" d="M49.4,113h3.8l3,3.6-3.4,1.3-4.6-1.7Z" fill="#eac5b1"/>
    </g>
    <g id="XMLID_101_">
      <path id="XMLID_25_" d="M129.2,105.2l-7.2-2.3-16.5,1.7.1,5.1,22.8,2.5Z" fill="#f8ba56"/>
    </g>
    <g id="XMLID_99_">
      <path id="XMLID_13_" d="M105.4,105.3l-3.8-.1-3.9,2.3,1.5,2.2,3.9-.4,2.5-1.1Z" fill="#eac5b1"/>
    </g>
    <g id="XMLID_94_">
      <g id="XMLID_97_">
        <path id="XMLID_12_" d="M80,3.9V2L79.1.2a.75.75,0,0,0-.9,0L77.5,2V3.9c-.7,0-1.8.5-1.8,1.2A1.24,1.24,0,0,0,77,6.3h.6V70.9c0,3.6-1.9,6.7-4.7,6.6-2.1-.1-4-1.9-4.3-4.8a1.3,1.3,0,0,0-1.3-1.2h0A1.283,1.283,0,0,0,66,72.9c.5,4.2,3.9,7.3,7.1,7.3A6.428,6.428,0,0,0,78.8,77c1.5-2.6,1.4-5.4,1.4-8.2V6.5h.4a1.24,1.24,0,0,0,1.3-1.2A2.1,2.1,0,0,0,80,3.9Z" fill="#d3d89a"/>
      </g>
      <g id="XMLID_95_" opacity="0.26">
        <path id="XMLID_11_" d="M80,40.1l-2.5-2.6V33.1H80Z" fill="#1a3151"/>
      </g>
    </g>
    <g id="XMLID_92_">
      <path id="XMLID_10_" d="M97.7,46.1c.1,0,.2.1.3.1s.3-.1.4-.1h-.7Z" fill="none"/>
    </g>
    <g id="XMLID_87_">
      <path id="XMLID_8_" d="M60.2,45.7l.4-2.8A64.034,64.034,0,0,1,71.4,16.3l7-10.1A45.558,45.558,0,0,0,39.7,31.5a43.19,43.19,0,0,0-4.3,14.3,43.937,43.937,0,0,1,12.5-1.7A46.405,46.405,0,0,1,60.2,45.7Z" fill="#2f8a5e"/>
    </g>
    <g id="XMLID_82_">
      <path id="XMLID_15_" d="M96.8,40.2,98,46.1h.4a46.563,46.563,0,0,1,27,0,44.446,44.446,0,0,0-6.2-17.9,45.279,45.279,0,0,0-38.9-22H78.8l5.6,8.2C91.4,22.8,94.5,31.4,96.8,40.2Z" fill="#2f8a5e"/>
    </g>
    <g id="XMLID_77_">
      <path id="XMLID_16_" d="M60.7,43l-.4,2.8h.1c4.7-2.1,11.2-3.3,18.3-3.3,7.5,0,14.3,1.3,19.1,3.6H98l-1.2-5.9c-2.3-8.8-5.4-17.3-12.3-25.8L79,6.2h-.5l-7,10.1A63.657,63.657,0,0,0,60.7,43Z" fill="#4db57c"/>
    </g>
    <g id="XMLID_63_">
      <path id="XMLID_6_" d="M60.2,45.7h0c0,.1.1.1.1,0C60.3,45.8,60.3,45.7,60.2,45.7Z" fill="#fff"/>
    </g>
    <g id="XMLID_30_">
      <path id="XMLID_5_" d="M78.4,97.2l6.3-.4,11.6,12.9-2.5,2.5-15-10.1Z" fill="#f8ba56"/>
    </g>
    <g id="XMLID_21_">
      <path id="XMLID_4_" d="M95.8,110.2l2.5,2,.2,3.7H96.3l-1.8-4.4Z" fill="#eac5b1"/>
    </g>
    <g id="XMLID_19_">
      <path id="XMLID_3_" d="M72.8,80.9l-1.2-2.2V75.3l1.2.4.4,1.7,2.1,2-.6,2Z" fill="#eac5b1"/>
    </g>
    <g id="XMLID_17_">
      <path id="XMLID_2_" d="M72.8,78.1l.3-2.3,2.3-1.7L77,75.3l-.4,1.9Z" fill="#eac5b1"/>
    </g>
    <path id="XMLID_1_" d="M51.7,145.2l-.1.7-2,4.1h2.5l-.3-4.5Z" fill="none"/>
  </g>
</svg>
