<svg xmlns="http://www.w3.org/2000/svg" width="101.1" height="149.762" viewBox="0 0 101.1 149.762">
  <g id="Group_4050" data-name="Group 4050" transform="translate(-2641 4689)">
    <g id="Group_4049" data-name="Group 4049">
      <path id="Path_5567" data-name="Path 5567" d="M2661.25-4603.75l7.25,10.25,2.5-3.25-2.5-21.25,3.5-15.25,17.25-15.5,24.25-23.5s-20.5,0-21.75,2-29.5,38.25-29.5,38.25Z" fill="#127b83"/>
      <path id="Path_5566" data-name="Path 5566" d="M2666.75-4596l27,16.75,14-27.25L2703-4566l6.25-15.5,1.25-28.25-2.75-10.25-3.5-6.75-13-2.25s-9-.25-10.25,0-10,4.5-10,7-1.25,22.75-1.25,22.75Z" fill="#ca7553"/>
      <g id="Loan" transform="translate(2615.8 -4688.938)">
        <path id="XMLID_30_" d="M78.1,28s3.8-7.8,8.5-8,4.8,4.7,1.8,5.6" fill="#127b83" fill-rule="evenodd"/>
        <rect id="XMLID_28_" width="6" height="6.5" transform="translate(102.4 6.7)" fill="#127b83"/>
        <g id="XMLID_29_">
          <g id="_x39_aOmfx_1_">
            <g id="XMLID_39_">
              <path id="XMLID_27_" d="M110.2,6.8c2.7.5,5.4.9,8.2,1.7a24.639,24.639,0,0,1-3.4,2.2,5.483,5.483,0,0,0,1.5.8,22.851,22.851,0,0,0,3.7,1.2c.3.1.5.1.8.2s.5.2.5.5a.634.634,0,0,1-.5.6,19.211,19.211,0,0,0-5,2.9,1.38,1.38,0,0,1-.4.3c2.1.9,4.2,1.7,6.4,2.6.2.1.5.2.7.3s.4.1.4.3c0,.3-.2.4-.4.5-.8.3-1.5.6-2.3.9a11.252,11.252,0,0,0-2.1,1.2c2,.9,3.9,1.7,5.8,2.5l.2.2c.2.2.6.2.6.5,0,.4-.3.6-.7.8-.8.3-1.5.5-2.3.8-1.1.4-2.1.8-3.2,1.2,2.5,1.6,4.9,3.2,7.4,5a14.467,14.467,0,0,1-2.6.7c-4.2,1-21.8,8.8-26,10-3.9,1.1-7.6,2.4-11.4,3.8-2.7,1-5.5,1.9-8.3,2.7a56.156,56.156,0,0,0-5.3,1.9.1.1,0,0,0-.1.1c-.1.1-.1.2-.2.2a10.533,10.533,0,0,0-3.5,1.3,38.246,38.246,0,0,0-6.4,3.2,17.62,17.62,0,0,0-5,4.4,10.239,10.239,0,0,0-1.9,5,46.126,46.126,0,0,0-.1,9.1,21.862,21.862,0,0,0,.3,3.6v.4a10.6,10.6,0,0,0,.5,3.5,50.088,50.088,0,0,0,1.4,5.2c.2.7.1.9-.4,1.2-.7.3-1,.2-1.4-.5a.1.1,0,0,0-.1-.1c-.4,1.7-1.9,1.6-3.1,1.8-.1,0-.1,0-.2-.1s-.1-.2-.2-.3c-.5-2.2-1.1-4.4-1.5-6.6a75.252,75.252,0,0,1-.8-8.3,45.412,45.412,0,0,1,.6-9,33.965,33.965,0,0,1,.8-4.6,53.4,53.4,0,0,1,4.2-10.9,40.716,40.716,0,0,1,6.7-9.3c1.1-1.1,2-2.5,3-3.6a121.484,121.484,0,0,1,9.6-9.4c1.8-1.5,3.6-2.9,5.5-4.2,1.5-1,15.1-10,16.6-11.1,2.6-1.8,6-2.7,8.7-4.3,1.5-.9,2.7-2.1,4.2-3C109.6,6.9,109.8,6.6,110.2,6.8Z" fill="#127b83" fill-rule="evenodd"/>
              <path id="XMLID_26_" d="M54.8,76.5a49.95,49.95,0,0,1-.1-6.7,15.305,15.305,0,0,1,1.2-6,14.54,14.54,0,0,1,3.3-4.1,31.787,31.787,0,0,1,7.5-4.5c1.4-.6,2.7-1.2,4.1-1.8.4-.2.9,0,1.3-.2.6.6,1.4.9,2,1.5a12.557,12.557,0,0,1,2.2,2.4c2.1-3.3,6.7-4.3,9.4-1.9,0,.4-.3.3-.5.3a5.845,5.845,0,0,0-1.9.2,8.331,8.331,0,0,0-1.5.4,3.164,3.164,0,0,0-2,3.2c.1,2.4.4,4.8.6,7.3.1,1.3.2,2.7.3,4v1.8c.1.7.1.8.9.7a6.52,6.52,0,0,0,5-3c1.7-2.3,1.7-4.9,1.5-7.6a45.908,45.908,0,0,0-1-5.1c-.1-.3-.3-.6.1-.9A9.116,9.116,0,0,1,89,60.2a13.365,13.365,0,0,0,1.6,3.9A50.54,50.54,0,0,1,93,69.4c1.6,3.3,1.9,6.8,2.3,10.4.4,3.5.3,7,.4,10.5,0,2.2.3,4.4.4,6.6A48.249,48.249,0,0,1,94.2,110c-.5,1.8-1,3.6-1.6,5.4-1.2,3.7-2.1,7.4-3.1,11.2a.6.6,0,0,1-.1.4c-.3.2-.4.2-.4-.2a7.282,7.282,0,0,1-.4-2.9A62.979,62.979,0,0,1,91.3,111a46.8,46.8,0,0,0,1.6-8.3c.6-5.1,1.1-10.1,1.2-15.2,0-2.9,0-5.8-.2-8.6a18.629,18.629,0,0,0-.7-3.4,67.532,67.532,0,0,0-2.5-7.6c-.2-.5-.5-1.1-.8-1.7-.1,1-.2,1.8-.3,2.7a17.2,17.2,0,0,1-1.6,5c-.1.3-.2.5-.5.6-.5-.1-.6-.6-.9-.9-.3-.4-.5-.5-.9-.2a4.168,4.168,0,0,1-1.8.8,2.021,2.021,0,0,0-1.6,1.7,13.963,13.963,0,0,1-1.5,4.9,9.676,9.676,0,0,1-6.4,5.1.367.367,0,0,0-.3.1c-.9.2-.9.2-.8,1.2,0,.2.1.5.1.7-1,1.6-.9,3.5-1,5.3a63.624,63.624,0,0,1-.8,7.5c-.1.5-.2.9-.3,1.4-.1.4-.3.4-.6.1a2.181,2.181,0,0,1-.4-.5,42.974,42.974,0,0,0-5.5-6.5A20.887,20.887,0,0,0,58.4,91a4.157,4.157,0,0,0-2.2-.2,22.677,22.677,0,0,0-2.5.6,2.263,2.263,0,0,1-1.8-.1,10.884,10.884,0,0,0,2.4-.7c.4-.1.5-.4.6-.7s.1-.6.2-.9c.4.2.4.6.5.8.3.7.8.1,1.1.1s.5-.2.4-.6a34.37,34.37,0,0,1-1.5-5.5,22.038,22.038,0,0,1-.4-3.6.367.367,0,0,1,.1-.3,8.482,8.482,0,0,0,2.4,2.6c3.2,2.4,6.4,1.3,8.5-1.4a4.238,4.238,0,0,0,.7-3.1c-.3-3.4-.2-6.8-.3-10.2,0-.6-.1-1.1-.1-1.7a2.872,2.872,0,0,0-3.1-2.8,5.372,5.372,0,0,0-1.6,1,34.675,34.675,0,0,0-2.9,2.5,10.615,10.615,0,0,0-1.6,2.1,13.127,13.127,0,0,0-2,6.7C55.1,76,55.3,76.4,54.8,76.5Z" fill="#ca7553" fill-rule="evenodd"/>
              <path id="XMLID_25_" d="M87.2,74.7a4.352,4.352,0,0,0,.8-1.5,19.358,19.358,0,0,0,1.5-6.3c0-.2.1-.4.1-.7a2.252,2.252,0,0,1,.8,1.4,51.306,51.306,0,0,1,2.5,7.2c.1.4.3.7.4,1.1a31.952,31.952,0,0,1,.9,8.1,138.329,138.329,0,0,1-.9,17,49.758,49.758,0,0,1-1.4,8.6c-.6,2.4-1.4,4.7-2,7.2a75.367,75.367,0,0,0-1.2,8.1,8.519,8.519,0,0,0,.4,2.3c0,.2.2.1.3,0,.5,3.4.7,6.7.9,10.1.1,1.7.2,3.4.3,5.2,0,.6-.1.6-.6.6h-.9c-1.7,0-3.4-.1-5.1-.1-.5-.1-.5-.6-.5-.9-.3-2.9-.5-5.7-.7-8.6-.1-.8-.1-1.5-.2-2.3a18.943,18.943,0,0,1,1-8.2c.6-2.2,1.6-4.2,2.1-6.5a89.048,89.048,0,0,1,2.4-9.9c.8-2.9,1.2-5.9,1.8-8.8a51.555,51.555,0,0,0,.6-7.9,13.553,13.553,0,0,1,.2-2,16.053,16.053,0,0,0-.9-6.9,37.043,37.043,0,0,0-2.6-6.2C87.2,74.9,87.2,74.8,87.2,74.7Z" fill="#eba170" fill-rule="evenodd"/>
              <path id="XMLID_24_" d="M83.3,55.7a7.487,7.487,0,0,1,2.1-.2c.1,0,.3.1.4-.1a4.061,4.061,0,0,1,1.4,1.5c-.2.2,0,.5,0,.7.3,1.3.7,2.6.9,4a13.825,13.825,0,0,1-.3,7,8.1,8.1,0,0,1-4.2,4.7,6.9,6.9,0,0,1-2.5.4c-.2,0-.5,0-.5-.3a9.638,9.638,0,0,1,0-2.4c1.5.8,3.4-.1,4.4-1.4a4.109,4.109,0,0,0,.9-2.6,41.163,41.163,0,0,0-.9-8.6,5.023,5.023,0,0,0-.5-1.3,1.765,1.765,0,0,0-.8-.9C83.5,56,83.3,55.9,83.3,55.7Z" fill="#eba170" fill-rule="evenodd"/>
              <path id="XMLID_23_" d="M87.2,74.9a18.471,18.471,0,0,1,2.1,4.5c.5,1.4.9,2.8,1.3,4.2a9.555,9.555,0,0,1,.2,4.1c-.2,2.5-.2,5-.5,7.5a83.494,83.494,0,0,1-1.8,10.2c-.6,2.4-1.4,4.8-1.8,7.2a76.979,76.979,0,0,1-3,10.7,17.253,17.253,0,0,0-1,7.1c.2,1.8.4,3.5.5,5.3.1,1.7.2,3.4.4,5.1.1.7-.1,1.5.4,2.2-4.2.1-8.4.1-12.7.3-5,.2-10,.1-15,.3a19.979,19.979,0,0,0-3.5.2,1.887,1.887,0,0,1-1.5-.6,2.092,2.092,0,0,1-.4.6,1.568,1.568,0,0,1-1.7.6,1.726,1.726,0,0,1-1.3-1.3,50.675,50.675,0,0,1-.9-5.4c-.3-2.3-.5-4.5-.8-6.8s-.4-4.6-.6-6.9a4.394,4.394,0,0,0-.7-2.2c-2.1-3.6-4.5-6.9-6.9-10.3a126.67,126.67,0,0,1-7.6-12.3,22.4,22.4,0,0,1-1.1-3.4c-.4-1.8-.8-3.5-1.2-5.3-.7-3.5-1.2-7.1-1.8-10.7a44.794,44.794,0,0,1-1.1-7.2,5.823,5.823,0,0,1,.7-3.4c1.2-1.7,1.7-3.7,2.7-5.5.5-.9,1-1.9,1.5-2.8a3.178,3.178,0,0,0,.3-.9,11.753,11.753,0,0,0,1.2-3.6,5.5,5.5,0,0,1,1.1-3,2.223,2.223,0,0,1,1.3-.8,5.574,5.574,0,0,1,5.5,4.6c.1,1,.5,2,.6,3.1a24.747,24.747,0,0,1-.5,6.1c-.6,2.6-1.3,5.1-2,7.7a1.4,1.4,0,0,0,.3,1.5,10.887,10.887,0,0,1,1.4,2.3,84.113,84.113,0,0,1,5,11q1.2,3.3,2.1,6.6a1.5,1.5,0,0,0,1,.9c2.6,1,5.4,1.5,8,2.4a22.128,22.128,0,0,1,6.2,3.4c1,.8,1.9,1.5,2.9,2.3a8.181,8.181,0,0,1,2,2.5,20.112,20.112,0,0,1,2.5,6.7,36.573,36.573,0,0,1,.5,5.7c0,.1.1,0,.1,0a.1.1,0,0,1-.1-.1,37.463,37.463,0,0,1,.9-8.2c.9-4,1.7-8,2.4-12.1a10.548,10.548,0,0,1,.5-1.9,19.783,19.783,0,0,0,.5-5.4,12.289,12.289,0,0,0-.5-2.5,1.162,1.162,0,0,1,0-1c0-.4.4-.6.7-.7a24.426,24.426,0,0,1,2.4-1,8.183,8.183,0,0,0,4.2-3.1,10.38,10.38,0,0,0,2.1-4.5,1.594,1.594,0,0,1,.9-1.2,8.855,8.855,0,0,0,3-2.4C86.8,75.1,86.9,74.8,87.2,74.9Z" fill="#f6bf92" fill-rule="evenodd"/>
              <path id="XMLID_22_" d="M33,53.5a10.362,10.362,0,0,0-1.1,3.8,9.612,9.612,0,0,1-1.1,2.8h-.1a34.056,34.056,0,0,1,2.7-16.4C38.6,31,47.9,22,49.5,20.4,55.4,13.6,72.8,4.6,78.3.9A2.7,2.7,0,0,1,79.8.6a121.981,121.981,0,0,1,28.9,2c1.7.4,3.5.6,5.2,1a1.689,1.689,0,0,1,.5.2c-1.3.9-2.6,1.7-3.9,2.6a1,1,0,0,0-.5.4,9.233,9.233,0,0,0-2.5,1.5C106.2,9.5,84.4,22,81.9,24c-1.9,1.6-4.2,2.9-6.3,4.7-1.6,1.4-3.3,2.8-4.8,4.3a71.667,71.667,0,0,0-7.1,7.5c-1.8,2.3-3.9,4.3-5.6,6.7a42.368,42.368,0,0,0-4.2,7.5,45.677,45.677,0,0,0-3,8.8,50.117,50.117,0,0,0-1.3,12.2,56.721,56.721,0,0,0,.7,8.2c.4,2.5,1.1,5,1.6,7.5-.4.1-.6-.2-.8-.4-2.1-2.2-4.2-4.3-6.5-6.3a4.9,4.9,0,0,1-1.1-2c-.4-1.1-.8-2.2-1.2-3.2a36.047,36.047,0,0,0-2.6-5.2,1.213,1.213,0,0,1-.1-1.3,37.943,37.943,0,0,0,2.1-7.3,14.571,14.571,0,0,0-.1-5.1A10.907,10.907,0,0,0,40,55.4a6.088,6.088,0,0,0-3.5-2.8c-.3-.1-.6-.1-.7-.4a.829.829,0,0,1,.8-.3A4.965,4.965,0,0,1,40,53.5a11.083,11.083,0,0,1,2.1,4.2c.3,1,.6,1.9.8,2.9a39.174,39.174,0,0,1,1,9.6,9.558,9.558,0,0,0,.8,4.7,21.523,21.523,0,0,1,1,2.7c.1.2.1.4.3.5a.806.806,0,0,0,.9.3c.3-.1.2-.5.2-.7-.1-1.7-.3-3.4-.5-5a30.088,30.088,0,0,1,.1-6,48.678,48.678,0,0,1,4-14.6A46.025,46.025,0,0,1,56,43.4c2.6-3.4,5.4-6.5,8.3-9.6,1.7-1.7,3.6-3.3,5.4-4.8,4.1-3.6,21-14.6,25.3-18.1.6-.5,2,0,2.6-.4.3-.2.4-.4.2-.7-1.2-1.6-.8-3.2.1-4.8.8-1,.8-1-.5-1.2A67.816,67.816,0,0,0,83.2,2.3a1.594,1.594,0,0,0-1.2.4,15.449,15.449,0,0,1-5.6,3.1,1.854,1.854,0,0,1-.7.2,3.719,3.719,0,0,0-2.2,1c-6.9,4.9-26,17.8-31,24.6-1.5,2.1-2.9,4.2-4.3,6.3a32.9,32.9,0,0,0-2.3,4.6,43.331,43.331,0,0,0-2.8,9.3A2.415,2.415,0,0,0,33,53.5Z" fill="#019197" fill-rule="evenodd"/>
              <path id="XMLID_21_" d="M35.8,52.2a6.579,6.579,0,0,1,4,2.5,12.448,12.448,0,0,1,1.7,3.7,18.677,18.677,0,0,1-.6,11.9c-.4,1-.6,2-1.1,3a.616.616,0,0,0,.1.7,47.368,47.368,0,0,1,4.2,9.5,3.805,3.805,0,0,0,.9,1.3c2.2,2,4.3,4,6.2,6.1l.6.6a.1.1,0,0,0,.1.1,5.022,5.022,0,0,0,2.1-.2,7.058,7.058,0,0,1,3.8-.5,6.391,6.391,0,0,1,1.9.8,22.978,22.978,0,0,1,6.9,5.5,46.865,46.865,0,0,1,4.2,5.5,19.332,19.332,0,0,0,.8-3.9c.3-2.7.4-5.5.6-8.2a3.777,3.777,0,0,1,.9-2.4.1.1,0,0,1,.1-.1h.1a1.412,1.412,0,0,0,.1.9,15,15,0,0,1-.1,8.4c-.6,2.2-.8,4.5-1.3,6.7-.3,1.3-.5,2.7-.8,4a71.2,71.2,0,0,0-1.7,11.4,17.853,17.853,0,0,1-.2-2.3,23.364,23.364,0,0,0-2.6-9.7,12.776,12.776,0,0,0-3.8-4.2,39.756,39.756,0,0,0-3.3-2.4,24.964,24.964,0,0,0-6.3-2.7,31.269,31.269,0,0,1-5.2-1.6c-.2-.1-.4-.1-.6-.2a1.278,1.278,0,0,1-1.2-1.1A46.545,46.545,0,0,0,44.2,89c-.7-1.8-1.3-3.6-2.1-5.4-.8-1.9-1.8-3.6-2.7-5.4a11.729,11.729,0,0,0-1.9-3,.778.778,0,0,1-.2-.8c.4-1.5.9-2.9,1.2-4.4a41.323,41.323,0,0,0,1.4-7,22.387,22.387,0,0,0-.5-5.8,5.9,5.9,0,0,0-3.5-4.3c-.6-.3-1.2-.1-1.8-.2A1.574,1.574,0,0,1,35.8,52.2Z" fill="#eba170" fill-rule="evenodd"/>
              <path id="XMLID_20_" d="M63,63.3a3.146,3.146,0,0,1,3.4,2.9c.2,2.9.1,5.8.2,8.7,0,1,.1,2,.2,3,.3,3.3-1.4,5.1-4.4,6.2a4.853,4.853,0,0,1-3.9-.6,9.342,9.342,0,0,1-2.7-2.1,1.974,1.974,0,0,1-.6-1.2,21.862,21.862,0,0,1-.3-3.6,22.753,22.753,0,0,0,.2-2.6A11.322,11.322,0,0,1,57,69c.3.3.1.6.1,1a25.809,25.809,0,0,0-.1,6.2,4.385,4.385,0,0,0,3.2,4A3.078,3.078,0,0,0,63.3,79a1.8,1.8,0,0,0,.2-1A91.842,91.842,0,0,0,63,64.1C63,63.8,62.9,63.5,63,63.3Z" fill="#eba170" fill-rule="evenodd"/>
              <path id="XMLID_19_" d="M55.1,80.4c.2,1.2.3,2.4.4,3.6A10.779,10.779,0,0,1,55.1,80.4Z" fill="#606041" fill-rule="evenodd"/>
              <path id="XMLID_18_" d="M68.3,79.3a76.371,76.371,0,0,1-.5-11.7,8.083,8.083,0,0,0-.1-1.6,3.392,3.392,0,0,1,1-2.6,11.37,11.37,0,0,0,1.5-1.6c1-1.5,2.6-1.7,4.2-1.9a2.462,2.462,0,0,1,1.2.1c.5.2.7.7,1,1.1a9.534,9.534,0,0,1,.8,4c0,3.7.1,7.4.2,11.1a7.064,7.064,0,0,1-1.9,4.6,4.374,4.374,0,0,1-6.9-.5C68.5,79.9,68.3,79.7,68.3,79.3Z" fill="#f1ac6d" fill-rule="evenodd"/>
              <path id="XMLID_17_" d="M63,63.3a34.414,34.414,0,0,1,.5,4.5c.2,2.4.3,4.7.3,7.1,0,1.1-.1,2.2-.1,3.4a1.433,1.433,0,0,1-.5,1.1c-1.8,1.4-3.2,1.3-5.1-.4-1.2-1-1.2-2.3-1.3-3.6a35.333,35.333,0,0,1,.2-6.5C58.5,66.5,60.7,64.9,63,63.3Z" fill="#f1ac6d" fill-rule="evenodd"/>
              <path id="XMLID_16_" d="M83.3,55.7c1.1.3,1.4,1.2,1.7,2.1a33.688,33.688,0,0,1,1,10,3.653,3.653,0,0,1-1.6,2.6,4.064,4.064,0,0,1-3,1c-.3,0-.7,0-.8-.5a32.7,32.7,0,0,1-.4-4.4c-.2-2.1-.3-4.1-.6-6.2a3.69,3.69,0,0,1,3.3-4.5C83,55.8,83.2,55.7,83.3,55.7Z" fill="#f1ac6d" fill-rule="evenodd"/>
              <path id="XMLID_15_" d="M68.3,79.3c.9,1.5,2,2.7,3.9,2.7a3.848,3.848,0,0,0,2.7-.9A10.027,10.027,0,0,0,77.2,78a1.7,1.7,0,0,0,.1-.7c.1-3.7-.2-7.5-.1-11.2a15.417,15.417,0,0,0-.3-3.7,5.038,5.038,0,0,0-1.3-2.5,1.763,1.763,0,0,1,1.5.8,10.1,10.1,0,0,1,1.8,5c.1.9.3,1.7.4,2.6.3,2.8.8,5.6.4,8.4a10.938,10.938,0,0,1-1.2,4,7.734,7.734,0,0,1-4.7,3.8,8.054,8.054,0,0,1-5.7-.4c-.9-.4-.9-.4-.6-1.3a8.755,8.755,0,0,0,.6-2.8C68.2,79.8,68.2,79.5,68.3,79.3Z" fill="#eba170" fill-rule="evenodd"/>
              <path id="XMLID_14_" d="M73.3,88.1h-.1c-.4-1.8-.4-1.7,1.4-2.2a9.942,9.942,0,0,0,4.9-3.4,13.164,13.164,0,0,0,2.4-6.3,2.36,2.36,0,0,1,1.7-1.9,3.811,3.811,0,0,0,2-1c.2-.3.5-.2.7.1.3.4.6.9.9,1.3v.1A9.376,9.376,0,0,1,83.3,78a.745.745,0,0,0-.3.7,11.179,11.179,0,0,1-4.4,6.8,10.758,10.758,0,0,1-2.9,1.3C75,87.3,74,87.4,73.3,88.1Z" fill="#cd7f4d" fill-rule="evenodd"/>
              <path id="XMLID_13_" d="M35.8,52.2a4.284,4.284,0,0,0-1.6.5,8.342,8.342,0,0,0-1.2.8c-.3,0-.2-.1-.3-.3a7.887,7.887,0,0,1,.5-3,43.15,43.15,0,0,1,4.3-11.5,54.8,54.8,0,0,1,4.6-7.2,63.247,63.247,0,0,1,7-8.5C61,12,72.5,6.9,73.8,5.9c.4-.3,1.3,0,1.8-.1a12,12,0,0,0,3.7-1.5A18.481,18.481,0,0,0,82,2.4,1.284,1.284,0,0,1,83,2,65.007,65.007,0,0,1,98.2,3.7a6.373,6.373,0,0,0,.7.2c-.3.7-.8,1.3-1.1,2-.7,1.5,1.8,5.8,1.1,5C98.8,10.7,88,16.5,67,31.8c-2.4,1.7-4.2,4.2-6.2,6.3-2,2.2-3.8,4.6-5.6,6.9A44.778,44.778,0,0,0,47,66.7a27.494,27.494,0,0,0,.1,8.1c.2,1.1.2,2.3.3,3.4,0,.4,0,.5-.5.5-1.2-.1-1.2-1-1.5-1.7-.5-1.1-.8-2.2-1.3-3.3a12.306,12.306,0,0,1-.3-3.3,59.832,59.832,0,0,0-.7-7.4,34.566,34.566,0,0,0-1.9-7,6,6,0,0,0-3.6-3.7A2.787,2.787,0,0,0,35.8,52.2Z" fill="#1fb3b8" fill-rule="evenodd"/>
              <path id="XMLID_12_" d="M81.1,58.3l.1.1c0,.1-.1.1-.1.2l-.1-.1C81,58.4,81,58.3,81.1,58.3Z" fill="#df9055" fill-rule="evenodd"/>
              <path id="XMLID_11_" d="M46.3,33.7a7.833,7.833,0,0,1,4.8-9.2,7.89,7.89,0,0,1,2.9-.8,6.016,6.016,0,0,1,5.3,3.1,5.583,5.583,0,0,1-.2,6.3,13.962,13.962,0,0,1-2.8,3.6,8.764,8.764,0,0,1-4.4,2.2c-1.7.3-3.7-.9-4.7-2.7A18.411,18.411,0,0,1,46.3,33.7Z" fill="#019197" fill-rule="evenodd"/>
              <path id="XMLID_10_" d="M61.4,22.5a2.516,2.516,0,0,1,.3-1.9,2.94,2.94,0,0,1,1.2-1c.3-.1.6-.3.9-.2a2.062,2.062,0,0,1,1.7,1,1.822,1.822,0,0,1-.1,2,3.126,3.126,0,0,1-.9,1.1,3.088,3.088,0,0,1-1.4.7,1.659,1.659,0,0,1-1.5-.8A3.711,3.711,0,0,1,61.4,22.5Z" fill="#019197" fill-rule="evenodd"/>
              <path id="XMLID_9_" d="M43.8,43.4a2.51,2.51,0,0,1-.1-1.9,2.335,2.335,0,0,1,1-1.2,1.489,1.489,0,0,1,.9-.4,2.016,2.016,0,0,1,1.8.6,1.682,1.682,0,0,1,.3,1.9,7.539,7.539,0,0,1-.6,1.3,2.73,2.73,0,0,1-1.2.9,1.47,1.47,0,0,1-1.6-.5C44.1,43.8,43.9,43.6,43.8,43.4Z" fill="#019197" fill-rule="evenodd"/>
            </g>
          </g>
          <path id="XMLID_8_" d="M78.8.3s14.2-2,35.7,3.4l-6.1,1.7L99.7,3.3,82.4,1.6,76.8,3.7Z" fill="#019197" fill-rule="evenodd"/>
          <path id="XMLID_7_" d="M115.3,17.7s6.6-4,7.5-4.5l-8-2.6-3.9,2.9.3,2.1,1.2.8Z" fill="#127b83" fill-rule="evenodd"/>
          <path id="XMLID_6_" d="M117,24.2s7.1-3.5,8-4.1l-8.7-3.5L112.7,20l.3,2,1.2.8Z" fill="#127b83" fill-rule="evenodd"/>
          <path id="XMLID_5_" d="M46.4,131l39.4-6.8.8,7.8s-9.4,4.3-10.2,3.7c-.8-.5-11.9.1-11.9.1s-12.6.5-12.5-.2C52,135,46.4,131,46.4,131Z" fill="#eba170" fill-rule="evenodd"/>
          <path id="XMLID_4_" d="M117.7,29.6s7.5-2.7,8.6-3.1l-8.1-4.9-4.1,2.7v2.1l1.1,1Z" fill="#127b83" fill-rule="evenodd"/>
          <g id="XMLID_31_">
            <path id="XMLID_3_" d="M101.3,129.6l-57,1.1-.1,19h57.1Z" fill="#dfecf0"/>
            <path id="XMLID_2_" d="M71.1,149.6l.2-19.4-27.1.5-.1,18.9Z" fill="#dfecf0" fill-rule="evenodd" opacity="0.4"/>
          </g>
          <path id="XMLID_1_" d="M101.3,129.6s-.7,15.5-19.8,20h19.7Z" fill="#849fb7"/>
        </g>
      </g>
    </g>
  </g>
</svg>
