<svg xmlns="http://www.w3.org/2000/svg" width="93.864" height="97.865" viewBox="0 0 93.864 97.865">
  <g id="Group_4003" data-name="Group 4003" transform="translate(1824.364 1408.279)">
    <path id="Path_4271" data-name="Path 4271" d="M79.956,223.814H.316A.321.321,0,0,1,0,223.49V169H80.272v54.49A.321.321,0,0,1,79.956,223.814Z" transform="translate(-1824.364 -1534.228)" fill="#d8d8d8"/>
    <path id="Path_4272" data-name="Path 4272" d="M76.922,56.4H3.35A3.352,3.352,0,0,0,0,59.75V74.193H80.272V59.75A3.352,3.352,0,0,0,76.922,56.4Z" transform="translate(-1824.364 -1439.421)" fill="#80ae6e"/>
    <g id="Group_1888" data-name="Group 1888" transform="translate(-1818.676 -1357.375)">
      <rect id="Rectangle_1241" data-name="Rectangle 1241" width="11.298" height="11.298" transform="translate(0 0)" fill="#edf2f3"/>
      <rect id="Rectangle_1242" data-name="Rectangle 1242" width="11.298" height="11.298" transform="translate(0 28.79)" fill="#edf2f3"/>
      <rect id="Rectangle_1243" data-name="Rectangle 1243" width="11.298" height="11.298" transform="translate(0 14.395)" fill="#edf2f3"/>
      <rect id="Rectangle_1244" data-name="Rectangle 1244" width="11.298" height="11.298" transform="translate(14.395 0)" fill="#edf2f3"/>
      <rect id="Rectangle_1245" data-name="Rectangle 1245" width="11.298" height="11.298" transform="translate(14.395 28.79)" fill="#edf2f3"/>
      <rect id="Rectangle_1246" data-name="Rectangle 1246" width="11.298" height="11.298" transform="translate(14.395 14.395)" fill="#edf2f3"/>
      <rect id="Rectangle_1247" data-name="Rectangle 1247" width="11.298" height="11.298" transform="translate(28.79 0)" fill="#edf2f3"/>
      <rect id="Rectangle_1248" data-name="Rectangle 1248" width="11.298" height="11.298" transform="translate(28.79 28.79)" fill="#edf2f3"/>
      <rect id="Rectangle_1249" data-name="Rectangle 1249" width="11.298" height="11.298" transform="translate(28.79 14.395)" fill="#edf2f3"/>
      <rect id="Rectangle_1250" data-name="Rectangle 1250" width="11.298" height="11.298" transform="translate(43.186 0)" fill="#edf2f3"/>
      <rect id="Rectangle_1251" data-name="Rectangle 1251" width="11.298" height="11.298" transform="translate(43.186 28.79)" fill="#edf2f3"/>
    </g>
    <rect id="Rectangle_1252" data-name="Rectangle 1252" width="11.298" height="11.298" transform="translate(-1775.49 -1342.98)" fill="#fbde69"/>
    <g id="Group_1889" data-name="Group 1889" transform="translate(-1761.095 -1357.375)">
      <rect id="Rectangle_1253" data-name="Rectangle 1253" width="11.298" height="11.298" transform="translate(0 0)" fill="#edf2f3"/>
      <rect id="Rectangle_1254" data-name="Rectangle 1254" width="11.298" height="11.298" transform="translate(0 28.79)" fill="#edf2f3"/>
      <rect id="Rectangle_1255" data-name="Rectangle 1255" width="11.298" height="11.298" transform="translate(0 14.395)" fill="#edf2f3"/>
    </g>
    <rect id="Rectangle_1256" data-name="Rectangle 1256" width="9.007" height="17.856" rx="4.503" transform="translate(-1811.249 -1391.933)" fill="#548242"/>
    <rect id="Rectangle_1257" data-name="Rectangle 1257" width="9.007" height="17.856" rx="4.503" transform="translate(-1766.214 -1391.933)" fill="#548242"/>
    <path id="Path_2252" data-name="Path 2252" d="M1309.976,117.612a17.835,17.835,0,1,0-6.525,24.364A17.825,17.825,0,0,0,1309.976,117.612Z" transform="translate(-3042.869 -1483.823)" fill="#ffd577"/>
    <path id="Path_2253" data-name="Path 2253" d="M1288.232,132.332a17.811,17.811,0,0,1,2.36-21.032,17.842,17.842,0,1,0,17.041,29.518A17.858,17.858,0,0,1,1288.232,132.332Z" transform="translate(-3042.869 -1485.979)" fill="#f4a61f"/>
    <path id="Path_2254" data-name="Path 2254" d="M1328.276,142.415a13.147,13.147,0,1,0-4.807,17.961A13.156,13.156,0,0,0,1328.276,142.415Z" transform="translate(-3065.23 -1506.266)" fill="#ecebed"/>
    <g id="Group_891" data-name="Group 891" transform="translate(-1755.643 -1366.245)">
      <path id="Path_2256" data-name="Path 2256" d="M1351.612,172.655a7.9,7.9,0,0,1-5.032,4.894,4.346,4.346,0,0,1-5.067-1.492,2.4,2.4,0,0,1-.607-1.614c.017-.816.017-2.065.017-3.714v-1.666c-.677,0-1.2,0-1.51-.017a.575.575,0,0,1-.451-.191c-.243-.226-.607-.607-1.111-1.145l-.451-.451h3.523v-3.419a1.4,1.4,0,0,0-.469-1.111.6.6,0,0,0-.156-.1.266.266,0,0,0-.1-.035.626.626,0,0,1-.191-.035l-.226-.017-1.284-.035a6.678,6.678,0,0,1-.121-1.319,6.217,6.217,0,0,1,.121-1.284h1.822c.087,0,.226.017.382.035a1.869,1.869,0,0,1,1.215.694,3.557,3.557,0,0,1,.816,1.874,3.03,3.03,0,0,1,.07.59c.035.625.035,1.562.017,2.811v1.336a.711.711,0,0,0,.191.017,1.484,1.484,0,0,1,1.51.659c.139.156.364.4.677.711l.451.451h-2.828v4.876a1.6,1.6,0,0,0,1.683,1.787,2.425,2.425,0,0,0,1.475-.312,6.067,6.067,0,0,0,3.019-3.592,1.494,1.494,0,0,0,.07-.364l.035-.226h-.59a2.4,2.4,0,0,1-1.6-.555,2.3,2.3,0,0,1-.642-1.544,2.763,2.763,0,0,1,.069-1.007,1.87,1.87,0,0,1,.659-1.163,2.04,2.04,0,0,1,1.284-.469,3.191,3.191,0,0,1,2.169.59,3.836,3.836,0,0,1,1.319,1.961A5.326,5.326,0,0,1,1351.612,172.655Z" transform="translate(-1337.4 -159.9)" fill="#f4a61f"/>
    </g>
    <path id="Path_4576" data-name="Path 4576" d="M-1942.42-3004.411a5.886,5.886,0,0,1-4.706-4.706c0-.062-.062-.124-.124-.062a.061.061,0,0,0-.062.063,5.887,5.887,0,0,1-4.706,4.706c-.062,0-.124.062-.062.124a.06.06,0,0,0,.062.061,5.886,5.886,0,0,1,4.706,4.706c0,.061.062.124.124.061a.06.06,0,0,0,.062-.061,5.886,5.886,0,0,1,4.706-4.706c.062,0,.124-.061.062-.124C-1942.292-3004.411-1942.354-3004.411-1942.42-3004.411Z" transform="translate(204.242 1607.3)" fill="#80ae6e"/>
    <path id="Path_4577" data-name="Path 4577" d="M2043.364-1676.507h-.415v-.415a.572.572,0,0,0-.578-.578.572.572,0,0,0-.578.578v.415h-.415a.572.572,0,0,0-.578.578.572.572,0,0,0,.578.578h.415v.415a.572.572,0,0,0,.578.578.572.572,0,0,0,.578-.578v-.415h.415a.573.573,0,0,0,.578-.578.573.573,0,0,0-.578-.578Z" transform="translate(-3860.221 284.865)" fill="#548242"/>
    <path id="Path_4578" data-name="Path 4578" d="M2357-2584.47a.412.412,0,0,0-.121-.091.234.234,0,0,0-.121-.062.234.234,0,0,0-.153-.03.532.532,0,0,0-.3,0c-.062,0-.091.03-.153.03-.03.03-.091.03-.121.062s-.091.061-.121.091a.792.792,0,0,0,0,1.065.441.441,0,0,0,.121.092,1.049,1.049,0,0,0,.274.121.532.532,0,0,0,.3,0c.062,0,.092-.03.153-.03.062-.03.092-.03.121-.062s.091-.062.121-.091a.8.8,0,0,0,0-1.095Z" transform="translate(-4128.948 1193.384)" fill="#80ae6e"/>
    <path id="Path_4579" data-name="Path 4579" d="M1690.321-2968.953a.369.369,0,0,0-.1-.078.2.2,0,0,0-.1-.051.2.2,0,0,0-.128-.025.44.44,0,0,0-.256,0c-.05,0-.078.025-.128.025-.025.025-.078.025-.1.051s-.078.05-.1.078a.662.662,0,0,0,0,.893.367.367,0,0,0,.1.078.919.919,0,0,0,.231.1.44.44,0,0,0,.256,0c.05,0,.077-.025.128-.025.05-.025.078-.025.1-.05s.077-.05.1-.078a.674.674,0,0,0,0-.92Z" transform="translate(-3476.345 1560.846)" fill="#54acd4"/>
  </g>
</svg>
