<?xml version="1.0" encoding="utf-8"?>
<!-- Generator: Adobe Illustrator 19.0.0, SVG Export Plug-In . SVG Version: 6.00 Build 0)  -->
<svg version="1.1" id="Layer_1" xmlns="http://www.w3.org/2000/svg" xmlns:xlink="http://www.w3.org/1999/xlink" x="0px" y="0px"
	 viewBox="0 0 1905 921" style="enable-background:new 0 0 1905 921;" xml:space="preserve">
<style type="text/css">
	.st0{fill:#224D55;}
	.st1{fill:#D8826C;}
	.st2{fill:#2C697A;}
	.st3{fill:#EFAB93;}
	.st4{fill:#F5AE94;}
	.st5{fill:#DD876C;}
	.st6{fill:#0D0D0C;}
	.st7{fill:#FFFFFF;}
	.st8{fill:#5C8696;}
	.st9{fill:#712311;}
	.st10{fill:#D5503B;}
	.st11{fill:#242422;}
	.st12{fill:#F0A98F;}
	.st13{opacity:0.4;fill:#EAECED;enable-background:new    ;}
	.st14{fill:#5C311E;}
	.st15{fill:#54ACD4;}
	.st16{fill:#6DCC6D;}
	.st17{fill:#DBAF4F;}
	.st18{fill:#939348;}
</style>
<g id="XMLID_13_">
	<g id="XMLID_21_">
		<path id="XMLID_11_" class="st0" d="M275.3,729.3c0,0,25.6,64.1,192.4,2.7c5.7-43.6,0-50.2,0-50.2l-132.2-23.4"/>
		<path id="Path_2182_2_" class="st0" d="M328.5,541.2c0,0,128.1-24,249.8-3.1c0,0-27.2,232.3-36.9,281.9c0,0-96.1,24-179.3-1.6
			C362.1,818.2,326.9,585.9,328.5,541.2z"/>
		<polygon id="XMLID_10_" class="st0" points="333.9,639.6 365,668.9 321.2,668.9 		"/>
		<path id="XMLID_9_" class="st0" d="M331.2,749l8.4-81.8c0,0,8-85.4-11.1-125.2c0,0-36.5,34-57,148.3
			C270.2,697.7,261.5,763.3,331.2,749z"/>
	</g>
	<polyline id="XMLID_8_" class="st0" points="561.1,679.7 557.2,920.9 346,920.9 339.6,667.4 405.2,643.5 	"/>
	<path id="XMLID_7_" class="st0" d="M555.6,721.9c0,0-2.1,156.9,1.6,199.2c-211.2,0-211.2,0-211.2,0s5.3-176.4,1.4-205.3"/>
	<path id="Path_2183_2_" class="st1" d="M488.2,526.3c0.4,20.9-16.2,38.3-37.3,38.7c-0.2,0-0.4,0-0.4,0l0,0
		c-20.9-0.2-37.9-17.4-37.7-38.3c0-0.2,0-0.4,0-0.4v-49c-0.4-20.9,16.2-38.3,37.3-38.7c0.2,0,0.4,0,0.4,0l0,0
		c20.9,0.2,37.9,17.4,37.7,38.3c0,0.2,0,0.4,0,0.4L488.2,526.3L488.2,526.3z"/>
	<g id="Group_870_2_" transform="translate(176.516 201.5)">
		<path id="Path_2184_2_" class="st2" d="M279.5,394c0,3.1-2.5,5.5-5.5,5.5c-3.1,0-5.5-2.5-5.5-5.5c0-3.1,2.5-5.5,5.5-5.5
			C277,388.5,279.5,391.1,279.5,394L279.5,394z"/>
		<path id="Path_2185_2_" class="st2" d="M279.5,451.4c0,3.1-2.5,5.5-5.5,5.5s-5.5-2.5-5.5-5.5c0-3.1,2.5-5.5,5.5-5.5
			C277,446,279.5,448.5,279.5,451.4L279.5,451.4z"/>
		<path id="Path_2186_2_" class="st2" d="M279.1,566.3c0,3.1-2.5,5.5-5.5,5.5c-3.1,0-5.5-2.5-5.5-5.5c0-3.1,2.5-5.5,5.5-5.5
			S279.1,563.4,279.1,566.3L279.1,566.3z"/>
		<path id="Path_2187_2_" class="st2" d="M279.5,508.7c0,3.1-2.5,5.5-5.5,5.5s-5.5-2.5-5.5-5.5c0-3.1,2.5-5.5,5.5-5.5
			S279.5,505.5,279.5,508.7z"/>
	</g>
	<g id="Group_870_3_" transform="translate(176.516 201.5)">
		<path id="Path_2184_5_" class="st2" d="M279.7,625.5c0,3.1-2.5,5.5-5.5,5.5c-3.1,0-5.5-2.5-5.5-5.5c0-3.1,2.5-5.5,5.5-5.5
			C277.2,619.8,279.7,622.3,279.7,625.5L279.7,625.5z"/>
		<path id="Path_2185_5_" class="st2" d="M279.7,682.9c0,3.1-2.5,5.5-5.5,5.5c-3.1,0-5.5-2.5-5.5-5.5c0-3.1,2.5-5.5,5.5-5.5
			C277.2,677.2,279.7,679.8,279.7,682.9L279.7,682.9z"/>
	</g>
	<path id="Path_2188_2_" class="st3" d="M779.7,590.6c-0.8-0.6-2-0.6-2.7,0.2c-7,10.2-8,30.3-19.5,36.7c2.7-9.6,7-16.8,5.9-27.5
		c-0.8-7.4-4.1-14.5-11.7-16.4c-1-0.2-2,0.6-2.1,1.6c0,0.2,0,0.4,0,0.6c2.7,11.9,3.1,34.6-6.6,43.6c-4.1,3.7-1.4-6.3-1-7.8
		c1-3.5,1.8-7,2.1-10.7c0.2-5.9-3.7-11.3-9.4-12.9c-0.8-0.4-2,0-2.3,0.8c-2.3-2-5.3-2.9-8.4-3.1c-10.5-1-17.8,7.8-19.7,17.4
		c-1,7-0.8,14.3,0.2,21.5c0.8,10.5-2,21.1-7.6,30.1c-0.4,0.4-0.4,1,0,1.6c-6.6,15,19.9,28.3,28.7,12.7c0.2-0.2,0.2-0.6,0.2-1
		c9.6-6.1,18-13.9,24.8-23.1c5.7-7.2,12.1-13.5,18.4-20.1C777.6,624.4,797.9,601.7,779.7,590.6z M731.6,604.5c0,1.6,0,3.1,0.2,4.7
		c0.6,4.3-0.4,8.8-2.7,12.5l-2.7,2.5c-4.9,3.5-8.2,1.8-10.2-5.5c1-4.7,2.5-11.5,9-11.3c2,0.2,3.9-0.4,5.3-1.8
		C730.9,605.3,731.3,604.9,731.6,604.5L731.6,604.5z"/>
	<g id="Group_883_2_" transform="translate(150.793 117.026)">
		<g id="Group_871_2_" transform="translate(6.944 11.84)">
			<path id="Path_2189_2_" class="st4" d="M368.3,295.4c0.2,25.6-27.2,46.3-45.3,56.1c-10.4,5.9-22.3,8-34,6.4
				c-72.1-16.4-67-50.6-70.9-79.1c-3.1-24-2.3-48.4,2.3-72.3c0.8-4.1,2.1-8.2,3.9-11.9c11.1-23.2,37.5-32.2,37.5-32.2
				c16-5.5,33.4-6.8,50-3.7c23.6,4.3,42.2,16.6,48.2,40.8c1.8,7.8,3.1,15.8,3.9,23.8c2,16.4,3.1,33,3.7,49.4
				C368.1,280.2,368.3,287.8,368.3,295.4z"/>
		</g>
		<path id="Path_2190_2_" class="st5" d="M299.5,235.7c0,0-5.5-4.9-5.3,13.9c0.2,18.8,2.5,38.5,2.5,38.5s-12.9-6.4-8,3.7
			c2.9,5.1,8,8.4,13.7,9.2c4.3,1,8.8-0.8,11.3-4.3c1.4-1.6,8.6-9.8,6.1-12.1c-1.2-1.2-7.8,2.1-9.6,2.7
			C310.3,287.3,308.5,231,299.5,235.7z"/>
		<path id="Path_2191_2_" class="st6" d="M321,222.6c0,0,32.6-6.6,43,17.4c0,0-36.5-10.9-43.4-5.5L321,222.6z"/>
		<path id="Path_2192_2_" class="st6" d="M282,225.4c0,0-32.2-8.6-44,14.8c0,0,37.1-8.6,43.8-2.7L282,225.4z"/>
		<g id="Group_873_2_" transform="translate(12.748 31.41)">
			<path id="Path_2193_2_" class="st7" d="M233,232.1c-0.4,10.4,7.8,19.1,18.4,19.5c10.4,0.4,19.1-7.8,19.5-18.4
				c0.4-10.4-7.8-19.1-18.4-19.5c-0.6,0-1.2,0-2,0C240.8,214.1,232.8,222.1,233,232.1z"/>
			<g id="Group_872_2_" transform="translate(2.02 0.338)">
				<path id="Path_2194_2_" class="st8" d="M262.3,229.1c0.6,8.4-4.3,15.4-10.7,15.8c-6.4,0.4-12.1-5.9-12.7-14.3
					c-0.6-8.4,4.3-15.4,10.7-15.8C256,214.2,261.7,220.7,262.3,229.1z"/>
				<path id="Path_2195_2_" class="st6" d="M258.9,229.3c0.4,5.9-2.9,10.9-7.6,11.3c-4.7,0.4-8.6-4.3-9-10.2
					c-1.4-4.5,1-9.4,5.5-10.9c4.5-1.4,9.4,1,10.9,5.5C259.1,226.3,259.1,227.9,258.9,229.3L258.9,229.3z"/>
				<path id="Path_2196_2_" class="st7" d="M258.7,219.1c0.2,1.6-1.8,3.1-4.1,3.1c-2.3,0.2-4.3-1-4.5-2.5c-0.2-1.6,1.8-3.1,4.1-3.1
					S258.7,217.5,258.7,219.1z"/>
			</g>
		</g>
		<g id="Group_875_2_" transform="translate(32.058 30.81)">
			<path id="Path_2197_2_" class="st7" d="M288.9,230.5c-0.2,10.4,8,19.1,18.6,19.3c10.5,0.2,19.1-8,19.3-18.6
				c0.2-10.5-8-19.1-18.6-19.3c-0.6,0-1.2,0-1.6,0C296.5,212.3,288.7,220.5,288.9,230.5z"/>
			<g id="Group_874_2_" transform="translate(1.333 0.435)">
				<path id="Path_2198_2_" class="st8" d="M316.1,227.6c0.6,8.4-4.3,15.4-10.7,15.8c-6.4,0.4-12.1-5.9-12.7-14.3
					c-0.6-8.4,4.3-15.4,10.7-15.8C309.9,212.9,315.6,219.2,316.1,227.6z"/>
				<path id="Path_2199_2_" class="st6" d="M312.8,227.8c-0.8,4.7-5.3,7.8-10,7c-4.7-0.8-7.8-5.3-7-10c0.8-3.9,3.9-6.8,7.8-7
					C308.9,218,313,222.5,312.8,227.8z"/>
				<path id="Path_2200_2_" class="st7" d="M312.6,217.6c0.2,1.6-1.8,3.1-4.1,3.1c-2.3,0.2-4.3-1-4.5-2.5c-0.2-1.6,1.8-3.1,4.1-3.1
					C310.5,214.9,312.4,216.1,312.6,217.6z"/>
			</g>
		</g>
		<g id="Group_876_2_" transform="translate(16.652 46.372)">
			<path id="Path_2201_2_" class="st9" d="M326.2,259.8c-2.1,6.3-4.9,12.3-8.2,18.2c-2.7,5.1-6.1,9.8-9.8,14.1
				c-9.8,10.7-23.2,16.4-39.7,1.2c-6.8-6.8-12.7-14.5-17.2-22.9c-2.3-3.9-4.7-8.4-7-13.1C244.3,257.1,315,269.4,326.2,259.8z"/>
			<path id="Path_2202_2_" class="st7" d="M326.2,259.8c-2.1,6.3-4.9,12.3-8.2,18.2c-21.9,7.8-50.4-1-66.8-7.6
				c-2.3-3.9-4.7-8.4-7-13.1C244.3,257.1,315,269.4,326.2,259.8z"/>
			<path id="Path_2203_2_" class="st10" d="M308.2,292c-9.8,10.7-23.2,16.4-39.7,1.2C280.8,286,295.7,285.6,308.2,292z"/>
		</g>
		<path id="Path_2204_2_" class="st11" d="M398.8,158.7c-4.5,6.4-11.1,11.1-18.8,13.3c6.1-6.4,11.9-15.2,10.9-24.4
			c0-0.4-0.4-0.6-0.8-0.6H390c-1.2,0.8-2.3,1.6-3.3,2.5c-5.7,5.1-14.8,4.9-21.5,2.5c-11.7-4.3-21.5-12.5-32-18.9
			c-11.3-7.2-24.6-10.9-38.1-10.5c-7.4,0.4-14.7,1.8-21.5,4.3c-17,6.3-37.1,18.2-41.6,36.9c-0.6,2.5-1,5.3-0.8,8
			c0,1.8,1.4,6.6,0.8,8c-0.4,0.6,0.4,1.4,1,1c0.2,0,0.6-0.2,0.8-0.4s0.2-0.4,0.2-0.6c8-6.4,21.3,18.8,26.2,22.9
			c18.6,15.4,45.1,17.6,67.2,11.7c24.8-6.8,52.2-23.8,66.4-44.7c2.3-3.3,4.5-6.8,6.4-10.5c0.2-0.4-0.2-0.8-0.4-0.8
			C399.2,158.5,399,158.5,398.8,158.7z"/>
		<g id="Group_878_2_" transform="translate(44.928 28.928)">
			<g id="Group_877_2_">
				<path id="Path_2205_2_" class="st12" d="M327.3,225c0,0,15.8-35.6,28.7-7.6c10.4,22.3-6.8,44.1-20.9,42.8
					C321.3,258.4,327.3,225,327.3,225z"/>
				<path id="Path_2206_2_" class="st1" d="M328.3,230.5c0,0,11.7-22.9,17.8-14.7c3.7,5.9,5.9,12.5,6.1,19.5c0,0-4.3-11.9-12.9-4.1
					c0,0,11.3,18.6-7.6,14.8C326.8,242.4,325.2,235.7,328.3,230.5z"/>
			</g>
		</g>
		<path id="Path_2207_2_" class="st11" d="M250.5,178.7c0,0,1.8,29.1-10.4,43.4s-13.3,43-13.3,43s-44.3-56.6,6.1-89.5
			C239,173,245.8,174.2,250.5,178.7z"/>
		<path id="Path_2208_2_" class="st11" d="M348.2,190c13.5,19.9,22.1,42.8,24.8,66.6c0,0,28.9-43,1.4-79.3
			C374.4,177.3,344.1,164.4,348.2,190z"/>
		<g id="Group_880_2_" transform="translate(0 30.31)">
			<g id="Group_879_2_">
				<path id="Path_2209_2_" class="st12" d="M228.1,228.9c0,0-15.8-35.6-28.7-7.6c-10.4,22.3,6.8,44.1,20.9,42.8
					C233.9,262.5,228.1,228.9,228.1,228.9z"/>
				<path id="Path_2210_2_" class="st1" d="M227.1,234.5c0,0-11.7-22.9-17.8-14.7c-3.7,5.9-5.9,12.5-6.1,19.5c0,0,4.3-11.9,12.9-4.1
					c0,0-11.3,18.6,7.6,14.8C228.6,246.4,230.2,239.6,227.1,234.5z"/>
			</g>
		</g>
		<g id="Group_882_2_" transform="translate(7.892 29.039)">
			<g id="Group_881_2_" transform="translate(3.599 1.212)">
				<path id="Path_2211_2_" class="st13" d="M264.4,212c-6.4-1-12.9-1.4-19.3-1c-3.9,6.4-7.4,13.3-10.5,20.5
					c-2.3,5.3-4.1,10.5-5.3,16.2c6.1,5.1,14.1,7.8,22.1,7.4C254.4,240.5,256.4,224.3,264.4,212z"/>
				<path id="Path_2212_2_" class="st13" d="M346.4,210.6c-6.4-0.4-12.9,0-19.3,0.8c-3.3,6.8-6.3,14.1-8.4,21.3
					c-1.8,5.5-2.9,10.9-3.7,16.6c6.6,4.5,14.7,6.4,22.7,5.3C339.4,239.7,339.8,223.5,346.4,210.6z"/>
			</g>
			<path id="Path_2213_2_" class="st14" d="M366.3,241.1c6.4-18.8,4.5-26.8,4.3-27.7l-0.4-1.6l-1.6-0.6c-18.9-6.6-39.7-5.9-58,2.1
				c-3.1,1.4-6.3,3.1-9,5.1v-0.6l-10.9,0.4l-0.2-0.4l-1.6-0.8c-3.1-1.8-6.4-3.3-9.8-4.5c-18.9-6.8-39.8-6.3-58.2,1.6l-1.4,0.6
				l-0.4,1.6c-0.2,0.8-1.6,9,6.1,27.3c2.7,6.6,8.4,11.9,15.2,14.3c6.1,2.1,12.3,2.9,18.6,2.5c21.3-2.3,25.2-12.7,27.5-19.5
				c0.2-0.4,0.2-0.8,0.4-1.2c1.6-3.9,2.5-8,3.1-12.1c3.1-1.2,6.6-1.2,9.6,0.2c0.8,4.7,2.1,9.2,4.1,13.3c0.2,0.4,0.4,0.8,0.4,1.2
				c2.9,6.6,7.4,16.6,28.9,17.6c6.3,0,12.5-1.2,18.4-3.7C358.4,253.6,363.7,248.2,366.3,241.1z M258.4,254.2
				c-5.3,0.4-10.7-0.4-15.6-2.1c-5.3-1.8-9.6-5.7-11.7-10.7c-3.3-7-5.3-14.5-5.9-22.1c16.6-6.4,35-6.6,51.6-0.6
				c2.5,1,5.1,2.1,7.4,3.3c0,5.5-1.2,10.7-3.1,15.8c-0.2,0.4-0.2,0.8-0.4,1.2C278.6,245.2,275.8,252.3,258.4,254.2L258.4,254.2z
				 M349.3,250.5c-4.9,2.1-10.2,3.1-15.6,3.1c-17.6-0.8-20.5-7.8-23.2-13.9c-0.2-0.4-0.4-0.8-0.6-1.2c-2.3-4.9-3.7-10.2-4.1-15.6
				c2.3-1.4,4.7-2.7,7.2-3.7c16.4-7,34.6-8,51.6-2.7c0,7.6-1.6,15.2-4.3,22.5C358.3,244.3,354.3,248.5,349.3,250.5L349.3,250.5z"/>
		</g>
	</g>
	<g id="Group_884_2_" transform="translate(162.86 182.65)">
		<path id="Path_2214_2_" class="st2" d="M248.9,320.2l-30.5,32l25.6,67.2l43.2-36.9C287.2,382.5,253.6,347.3,248.9,320.2z"/>
		<path id="Path_2215_2_" class="st2" d="M325.7,320.2l30.5,32l-25.6,67.2l-43.2-36.9C287.2,382.5,321,347.3,325.7,320.2z"/>
	</g>
	<path id="Path_2216_2_" class="st0" d="M557.4,656.4c0,0,9.6,118.6,62.5,164.9c0,0,89.7-57.6,115.3-142.6l-40-27.2l-57.6,60.9
		c0,0-25.6-144.2-59.2-174.4C578.3,537.9,554.3,642,557.4,656.4z"/>
</g>
<path id="XMLID_12_" class="st15" d="M295.7,209c-0.1-0.1-0.3-0.3-0.6-0.4c-0.1-0.1-0.4-0.3-0.6-0.3c-0.1-0.1-0.4-0.1-0.6-0.1
	c-0.4-0.1-0.8-0.1-1.3,0c-0.3,0-0.4,0.1-0.6,0.1c-0.1,0.1-0.4,0.1-0.6,0.3c-0.1,0.1-0.4,0.3-0.6,0.4c-1.1,1.3-1.1,3.1,0,4.3
	c0.1,0.1,0.3,0.3,0.6,0.4c0.4,0.3,0.7,0.4,1.1,0.6c0.4,0.1,0.8,0.1,1.3,0c0.3,0,0.4-0.1,0.6-0.1c0.3-0.1,0.4-0.1,0.6-0.3
	c0.1-0.1,0.4-0.3,0.6-0.4C296.8,212.2,296.9,210.3,295.7,209L295.7,209z"/>
<path id="XMLID_15_" class="st16" d="M333.4,279.8c-0.2-0.2-0.3-0.3-0.6-0.5c-0.2-0.2-0.5-0.3-0.6-0.3c-0.2-0.2-0.5-0.2-0.8-0.2
	c-0.5-0.2-1.1-0.2-1.6,0c-0.3,0-0.5,0.2-0.8,0.2c-0.2,0.2-0.5,0.2-0.6,0.3c-0.2,0.2-0.5,0.3-0.6,0.5c-1.5,1.6-1.5,4.2,0,6
	c0.2,0.2,0.3,0.3,0.6,0.5c0.5,0.3,1,0.5,1.5,0.6c0.5,0.2,1.1,0.2,1.6,0c0.3,0,0.5-0.2,0.8-0.2c0.3-0.2,0.5-0.2,0.6-0.3
	s0.5-0.3,0.6-0.5C335,284.2,335.1,281.5,333.4,279.8L333.4,279.8z"/>
<path id="Path_2180_2_" class="st17" d="M285.1,357.6c0,0,18.3-2.6,20.1-21c0,0,2.6,19.7,19.2,19.2c-0.9,1.3-17.9,2.2-18.8,19.2
	C305.5,375.1,305.9,356.3,285.1,357.6z"/>
<path id="Path_2180_1_" class="st18" d="M1476.1,212.6c0,0,24.5-3.5,26.8-28c0,0,3.5,26.2,25.6,25.6c-1.2,1.7-23.9,2.9-25.1,25.6
	C1503.3,235.9,1503.9,210.8,1476.1,212.6z"/>
</svg>
