<svg xmlns="http://www.w3.org/2000/svg" width="91.079" height="98.374" viewBox="0 0 91.079 98.374">
  <g id="Group_3972" data-name="Group 3972" transform="translate(-49.921 -469.688)">
    <g id="Group_1817" data-name="Group 1817" transform="translate(52.091 516.315)">
      <path id="Path_4188" data-name="Path 4188" d="M956.2,1788.807s4.4,11.028,33.117.471c.975-7.5,0-8.641,0-8.641l-22.762-4.035" transform="translate(-955.358 -1754.421)" fill="#00728e"/>
      <path id="Path_2182" data-name="Path 2182" d="M983.38,1712.637s22.056-4.135,43-.538c0,0-4.673,39.976-6.354,48.516,0,0-16.542,4.135-30.865-.269C989.163,1760.312,983.111,1720.336,983.38,1712.637Z" transform="translate(-973.395 -1710.629)" fill="#00728e"/>
      <path id="Path_4189" data-name="Path 4189" d="M981.882,1767l5.346,5.043H979.7Z" transform="translate(-970.956 -1748.049)" fill="#00728e"/>
      <path id="Path_4190" data-name="Path 4190" d="M964.156,1752.641l1.446-14.087s1.378-14.693-1.917-21.552c0,0-6.287,5.85-9.818,25.519C953.666,1743.8,952.153,1755.1,964.156,1752.641Z" transform="translate(-953.7 -1714.859)" fill="#00728e"/>
    </g>
    <path id="Path_4191" data-name="Path 4191" d="M1027.224,1773.187l-.673,27.936H990.206l-1.11-29.361,11.3-2.76" transform="translate(-925.105 -1233.061)" fill="#00728e"/>
    <path id="Path_4192" data-name="Path 4192" d="M1028.473,1806.538s-.37,13.871.269,17.62H992.4s.908-15.6.235-18.156" transform="translate(-927.296 -1257.621)" fill="#00728e"/>
    <path id="Path_2183" data-name="Path 2183" d="M1039.573,1679.2a6.537,6.537,0,0,1-6.422,6.657h-.067a6.558,6.558,0,0,1-6.489-6.59v-8.506a6.536,6.536,0,0,1,6.422-6.657h.067a6.558,6.558,0,0,1,6.489,6.59v8.506Z" transform="translate(-949.995 -1163.43)" fill="#f2a18c"/>
    <g id="Group_870" data-name="Group 870" transform="translate(82.085 526.729)">
      <path id="Path_2184" data-name="Path 2184" d="M1045,1742.543a.941.941,0,1,1-.941-.942.962.962,0,0,1,.941.942Z" transform="translate(-1043.046 -1741.602)" fill="#0099bf"/>
      <path id="Path_2185" data-name="Path 2185" d="M1045,1771.943a.94.94,0,0,1-.941.942.962.962,0,0,1-.941-.942.94.94,0,0,1,.941-.941.962.962,0,0,1,.941.941Z" transform="translate(-1043.046 -1761.117)" fill="#0099bf"/>
      <path id="Path_2186" data-name="Path 2186" d="M1044.8,1830.744a.941.941,0,1,1-.942-.942.962.962,0,0,1,.942.942Z" transform="translate(-1042.913 -1800.148)" fill="#0099bf"/>
      <path id="Path_2187" data-name="Path 2187" d="M1045,1801.244a.939.939,0,0,1-.941.941.962.962,0,0,1-.941-.941.941.941,0,1,1,1.883,0Z" transform="translate(-1043.046 -1780.566)" fill="#0099bf"/>
    </g>
    <path id="Path_2188" data-name="Path 2188" d="M1185.828,1739.5a.36.36,0,0,0-.471.034c-1.21,1.748-1.379,5.211-3.362,6.321.471-1.648,1.21-2.891,1.009-4.741a2.95,2.95,0,0,0-2.017-2.824.333.333,0,0,0-.37.269v.1c.471,2.051.538,5.951-1.143,7.5-.706.639-.235-1.076-.168-1.345a11.276,11.276,0,0,0,.37-1.849,2.241,2.241,0,0,0-1.614-2.219.323.323,0,0,0-.4.135,2.461,2.461,0,0,0-1.446-.538c-1.816-.168-3.06,1.345-3.4,2.992a13.632,13.632,0,0,0,.034,3.7,8.544,8.544,0,0,1-1.311,5.178.2.2,0,0,0,0,.269c-1.143,2.589,3.429,4.875,4.942,2.185a.252.252,0,0,0,.034-.168,15.983,15.983,0,0,0,4.27-3.967c.975-1.244,2.085-2.32,3.161-3.463C1185.458,1745.319,1188.955,1741.418,1185.828,1739.5Zm-8.271,2.387a6.509,6.509,0,0,0,.033.807,3.241,3.241,0,0,1-.471,2.152l-.47.437c-.841.605-1.412.3-1.748-.942.168-.807.437-1.984,1.547-1.95a1.116,1.116,0,0,0,.908-.3l.2-.2Z" transform="translate(-1046.087 -1212.672)" fill="#ffc5b1"/>
    <path id="Path_2189" data-name="Path 2189" d="M1032.852,1609.743c.033,4.4-4.673,7.968-7.8,9.65a9.339,9.339,0,0,1-5.85,1.109c-12.406-2.824-11.532-8.708-12.2-13.617a38.635,38.635,0,0,1,.4-12.44,8.622,8.622,0,0,1,.672-2.051c1.916-4,6.455-5.547,6.455-5.547a17.023,17.023,0,0,1,8.607-.639c4.068.74,7.262,2.858,8.3,7.027a33.53,33.53,0,0,1,.672,4.1c.336,2.824.538,5.682.639,8.506C1032.818,1607.121,1032.852,1608.432,1032.852,1609.743Z" transform="translate(-936.773 -1108.264)" fill="#fcbea8"/>
    <path id="Path_2190" data-name="Path 2190" d="M1041.764,1619.933s-.941-.841-.908,2.387.437,6.624.437,6.624-2.219-1.11-1.378.639a3.22,3.22,0,0,0,2.354,1.58,1.9,1.9,0,0,0,1.95-.74c.235-.269,1.479-1.681,1.042-2.085-.2-.2-1.345.37-1.647.471C1043.614,1628.809,1043.311,1619.126,1041.764,1619.933Z" transform="translate(-958.712 -1130.773)" fill="#f19e85"/>
    <path id="Path_2191" data-name="Path 2191" d="M1056.657,1613.142s5.615-1.143,7.4,2.992c0,0-6.287-1.883-7.464-.941Z" transform="translate(-969.906 -1126.235)" fill="#0d0d0c"/>
    <path id="Path_2192" data-name="Path 2192" d="M1021.855,1614.3s-5.548-1.479-7.565,2.555c0,0,6.388-1.479,7.531-.471Z" transform="translate(-941.828 -1126.927)" fill="#0d0d0c"/>
    <g id="Group_873" data-name="Group 873" transform="translate(73.787 490.777)">
      <path id="Path_2193" data-name="Path 2193" d="M1018.233,1628.1a3.263,3.263,0,1,0,3.362-3.161h-.336A3.13,3.13,0,0,0,1018.233,1628.1Z" transform="translate(-1018.231 -1624.938)" fill="#fff"/>
      <g id="Group_872" data-name="Group 872" transform="translate(1.346 0.242)">
        <path id="Path_2194" data-name="Path 2194" d="M1026.276,1628.118a2.085,2.085,0,1,1-2.185-2.454C1025.2,1625.563,1026.176,1626.672,1026.276,1628.118Z" transform="translate(-1022.234 -1625.657)" fill="#5c8696"/>
        <path id="Path_2195" data-name="Path 2195" d="M1026.784,1629.625a1.7,1.7,0,0,1-1.311,1.95c-.807.067-1.479-.74-1.547-1.748a1.489,1.489,0,1,1,2.824-.942,1.835,1.835,0,0,1,.034.74Z" transform="translate(-1023.313 -1627.131)" fill="#0d0d0c"/>
        <path id="Path_2196" data-name="Path 2196" d="M1029.533,1627.013c.033.269-.3.538-.706.538-.4.034-.74-.168-.773-.437s.3-.538.706-.538S1029.533,1626.744,1029.533,1627.013Z" transform="translate(-1026.095 -1626.267)" fill="#fff"/>
      </g>
    </g>
    <g id="Group_875" data-name="Group 875" transform="translate(86.736 490.374)">
      <path id="Path_2197" data-name="Path 2197" d="M1056.747,1626.932a3.262,3.262,0,1,0,3.328-3.194h-.269A3.142,3.142,0,0,0,1056.747,1626.932Z" transform="translate(-1056.746 -1623.738)" fill="#fff"/>
      <g id="Group_874" data-name="Group 874" transform="translate(0.878 0.311)">
        <path id="Path_2198" data-name="Path 2198" d="M1063.4,1627.122a2.085,2.085,0,1,1-2.185-2.454A2.351,2.351,0,0,1,1063.4,1627.122Z" transform="translate(-1059.357 -1624.664)" fill="#5c8696"/>
        <path id="Path_2199" data-name="Path 2199" d="M1063.865,1628.688a1.484,1.484,0,0,1-2.925-.5,1.464,1.464,0,0,1,1.345-1.21A1.651,1.651,0,0,1,1063.865,1628.688Z" transform="translate(-1060.394 -1626.197)" fill="#0d0d0c"/>
        <path id="Path_2200" data-name="Path 2200" d="M1066.656,1626c.033.269-.3.538-.706.538-.4.034-.74-.168-.773-.437s.3-.538.706-.538C1066.286,1625.532,1066.623,1625.734,1066.656,1626Z" transform="translate(-1063.219 -1625.26)" fill="#fff"/>
      </g>
    </g>
    <g id="Group_876" data-name="Group 876" transform="translate(76.379 500.85)">
      <path id="Path_2201" data-name="Path 2201" d="M1040.129,1655.336a18.594,18.594,0,0,1-1.412,3.127,13.516,13.516,0,0,1-1.681,2.421c-1.681,1.849-4,2.824-6.825.2a16.761,16.761,0,0,1-2.959-3.934c-.4-.672-.807-1.446-1.21-2.252C1026.042,1654.866,1038.213,1656.984,1040.129,1655.336Z" transform="translate(-1026.008 -1654.899)" fill="#712311"/>
      <path id="Path_2202" data-name="Path 2202" d="M1040.063,1655.336a18.6,18.6,0,0,1-1.412,3.127c-3.766,1.345-8.674-.168-11.5-1.311-.4-.672-.807-1.446-1.21-2.252C1025.976,1654.866,1038.147,1656.984,1040.063,1655.336Z" transform="translate(-1025.942 -1654.899)" fill="#fff"/>
      <path id="Path_2203" data-name="Path 2203" d="M1045.267,1671.151c-1.681,1.849-4,2.824-6.825.2A7.045,7.045,0,0,1,1045.267,1671.151Z" transform="translate(-1034.239 -1665.166)" fill="#d5503b"/>
    </g>
    <path id="Path_2204" data-name="Path 2204" d="M1039.62,1568.439a5.875,5.875,0,0,1-3.228,2.286c1.042-1.109,2.051-2.623,1.883-4.2,0-.067-.067-.1-.135-.1h-.034a3.66,3.66,0,0,0-.572.437,3.829,3.829,0,0,1-3.7.437c-2.017-.74-3.7-2.152-5.514-3.261a11.577,11.577,0,0,0-6.556-1.816,12.461,12.461,0,0,0-3.7.74c-2.925,1.076-6.388,3.127-7.161,6.354a4.685,4.685,0,0,0-.135,1.378,6.826,6.826,0,0,1,.135,1.379.124.124,0,0,0,.168.168.255.255,0,0,0,.134-.067.124.124,0,0,0,.034-.1c1.379-1.109,3.665,3.228,4.505,3.934,3.194,2.656,7.767,3.026,11.566,2.017,4.27-1.177,8.977-4.1,11.432-7.7a16.4,16.4,0,0,0,1.109-1.815.1.1,0,0,0-.067-.135C1039.687,1568.4,1039.654,1568.4,1039.62,1568.439Z" transform="translate(-939.488 -1092.525)" fill="#242422"/>
    <g id="Group_878" data-name="Group 878" transform="translate(95.343 489.142)">
      <g id="Group_877" data-name="Group 877">
        <path id="Path_2205" data-name="Path 2205" d="M1082.571,1623.229s2.723-6.119,4.943-1.311c1.782,3.833-1.177,7.6-3.6,7.363C1081.528,1628.978,1082.571,1623.229,1082.571,1623.229Z" transform="translate(-1082.344 -1620.075)" fill="#f0a98f"/>
        <path id="Path_2206" data-name="Path 2206" d="M1082.968,1626.674s2.017-3.934,3.06-2.522a6.6,6.6,0,0,1,1.042,3.362s-.74-2.051-2.219-.706c0,0,1.95,3.194-1.311,2.555A2.058,2.058,0,0,1,1082.968,1626.674Z" transform="translate(-1082.574 -1622.578)" fill="#d8826c"/>
      </g>
    </g>
    <path id="Path_2207" data-name="Path 2207" d="M1006.532,1589.418s.3,5.01-1.782,7.464-2.286,7.4-2.286,7.4-7.632-9.75,1.042-15.4A2.786,2.786,0,0,1,1006.532,1589.418Z" transform="translate(-931.918 -1110.075)" fill="#242422"/>
    <path id="Path_2208" data-name="Path 2208" d="M1070.56,1591.31a25.723,25.723,0,0,1,4.27,11.465s4.976-7.4.235-13.651C1075.066,1589.124,1069.854,1586.906,1070.56,1591.31Z" transform="translate(-979.136 -1110.017)" fill="#242422"/>
    <g id="Group_880" data-name="Group 880" transform="translate(65.26 490.044)">
      <g id="Group_879" data-name="Group 879">
        <path id="Path_2209" data-name="Path 2209" d="M998.358,1625.911s-2.723-6.119-4.942-1.311c-1.782,3.833,1.177,7.6,3.6,7.363C999.366,1631.694,998.358,1625.911,998.358,1625.911Z" transform="translate(-992.871 -1622.757)" fill="#f0a98f"/>
        <path id="Path_2210" data-name="Path 2210" d="M1000.592,1629.456s-2.017-3.934-3.06-2.522a6.6,6.6,0,0,0-1.042,3.362s.74-2.051,2.219-.706c0,0-1.95,3.194,1.311,2.555A2.066,2.066,0,0,0,1000.592,1629.456Z" transform="translate(-995.273 -1625.326)" fill="#d8826c"/>
      </g>
    </g>
    <g id="Group_882" data-name="Group 882" transform="translate(70.539 489.176)">
      <g id="Group_881" data-name="Group 881" transform="translate(2.391 0.849)">
        <path id="Path_2211" data-name="Path 2211" d="M1021.733,1623.1a15.811,15.811,0,0,0-3.328-.168,29.057,29.057,0,0,0-1.816,3.53,13.552,13.552,0,0,0-.908,2.791,5.546,5.546,0,0,0,3.8,1.277C1020.018,1628,1020.354,1625.214,1021.733,1623.1Z" transform="translate(-1015.681 -1622.835)" fill="#eaeced" opacity="0.4"/>
        <path id="Path_2212" data-name="Path 2212" d="M1064.994,1622.727a18.372,18.372,0,0,0-3.328.135,24.385,24.385,0,0,0-1.446,3.665,16.734,16.734,0,0,0-.639,2.858,5.518,5.518,0,0,0,3.9.908C1063.784,1627.737,1063.851,1624.946,1064.994,1622.727Z" transform="translate(-1044.821 -1622.701)" fill="#eaeced" opacity="0.4"/>
      </g>
      <path id="Path_2213" data-name="Path 2213" d="M1033.925,1626.091c1.109-3.228.773-4.606.74-4.774l-.067-.269-.269-.1a13.662,13.662,0,0,0-9.986.37,8.727,8.727,0,0,0-1.547.874v-.1l-1.883.067-.034-.067-.269-.134a10.82,10.82,0,0,0-1.681-.773,13.743,13.743,0,0,0-10.019.269l-.235.1-.067.269c-.034.135-.269,1.547,1.042,4.707a4.4,4.4,0,0,0,2.623,2.454,8,8,0,0,0,3.194.437c3.665-.4,4.337-2.185,4.741-3.362.034-.068.034-.135.067-.2a9.072,9.072,0,0,0,.538-2.085,2.148,2.148,0,0,1,1.647.034,8.616,8.616,0,0,0,.706,2.286.479.479,0,0,1,.067.2c.5,1.143,1.278,2.858,4.976,3.026a7.931,7.931,0,0,0,3.16-.639A4.239,4.239,0,0,0,1033.925,1626.091Zm-18.559,2.253a6.61,6.61,0,0,1-2.69-.37,3.328,3.328,0,0,1-2.017-1.849,10.8,10.8,0,0,1-1.009-3.8,12.61,12.61,0,0,1,8.876-.1c.437.168.874.37,1.278.572a7.556,7.556,0,0,1-.538,2.723c-.034.067-.034.135-.067.2-.37,1.076-.841,2.286-3.833,2.622ZM1031,1627.7a6.628,6.628,0,0,1-2.69.538c-3.026-.135-3.53-1.345-4-2.387l-.1-.2a7.412,7.412,0,0,1-.706-2.69,8.691,8.691,0,0,1,1.244-.639,12.817,12.817,0,0,1,8.876-.471,10.963,10.963,0,0,1-.74,3.867A3.328,3.328,0,0,1,1031,1627.7Z" transform="translate(-1008.57 -1620.177)" fill="#5c311e"/>
    </g>
    <g id="Group_884" data-name="Group 884" transform="translate(71.173 511.717)">
      <path id="Path_2214" data-name="Path 2214" d="M1015.7,1696.952l-5.245,5.514,4.4,11.566,7.43-6.354S1016.509,1701.626,1015.7,1696.952Z" transform="translate(-1010.457 -1696.952)" fill="#2594af"/>
      <path id="Path_2215" data-name="Path 2215" d="M1052.347,1696.952l5.245,5.514-4.4,11.566-7.43-6.354C1045.723,1707.677,1051.54,1701.626,1052.347,1696.952Z" transform="translate(-1033.889 -1696.952)" fill="#2594af"/>
    </g>
    <path id="Path_2216" data-name="Path 2216" d="M1100.5,1735.377s1.647,20.408,10.759,28.376c0,0,15.432-9.918,19.837-24.544l-6.892-4.673-9.918,10.49s-4.4-24.813-10.187-30.024C1104.1,1714.968,1099.964,1732.889,1100.5,1735.377Z" transform="translate(-999.022 -1197.217)" fill="#00728e"/>
    <path id="Path_5336" data-name="Path 5336" d="M-1940.648-3003.534a6.964,6.964,0,0,1-5.567-5.567c0-.074-.073-.146-.146-.074a.072.072,0,0,0-.073.074,6.965,6.965,0,0,1-5.567,5.567c-.073,0-.146.073-.073.146a.071.071,0,0,0,.073.073,6.963,6.963,0,0,1,5.567,5.567c0,.073.073.146.146.073a.071.071,0,0,0,.073-.073,6.963,6.963,0,0,1,5.567-5.567c.073,0,.146-.073.073-.146C-1940.5-3003.534-1940.571-3003.534-1940.648-3003.534Z" transform="translate(2002.025 3496.5)" fill="#2594af"/>
    <path id="Path_5334" data-name="Path 5334" d="M2043.833-1676.326h-.491v-.491a.677.677,0,0,0-.683-.684.677.677,0,0,0-.684.684v.491h-.491a.677.677,0,0,0-.684.684.677.677,0,0,0,.684.684h.491v.491a.677.677,0,0,0,.684.684.677.677,0,0,0,.683-.684v-.491h.491a.677.677,0,0,0,.684-.684.677.677,0,0,0-.684-.684Z" transform="translate(-1912.272 2161.948)" fill="#8dce74"/>
    <path id="Path_5335" data-name="Path 5335" d="M1690.521-2968.922a.44.44,0,0,0-.121-.092.234.234,0,0,0-.122-.06.233.233,0,0,0-.151-.029.525.525,0,0,0-.3,0c-.059,0-.092.029-.151.029-.03.03-.092.03-.121.06s-.092.059-.122.092a.784.784,0,0,0,0,1.057.431.431,0,0,0,.122.092,1.1,1.1,0,0,0,.273.122.525.525,0,0,0,.3,0c.06,0,.092-.03.151-.03.059-.029.092-.029.122-.06s.092-.059.121-.092a.8.8,0,0,0,0-1.089Z" transform="translate(-1572.691 3473.383)" fill="#54acd4"/>
  </g>
</svg>
