<svg xmlns="http://www.w3.org/2000/svg" width="113.4" height="148.3" viewBox="0 0 113.4 148.3">
  <g id="Prize_Bond" data-name="Prize Bond" transform="translate(-9.8 -1.7)">
    <g id="XMLID_23_">
      <path id="XMLID_24_" d="M118.1,149.4V92.6c.2-.2.5-.4.7-.6h0c2.8-2.4,4.4-5,4.4-7.6v-.7a12.311,12.311,0,0,0-.2-2,8.194,8.194,0,0,0-2.9-5c-.6-.6-1.3-1.2-2-1.8V16.5c0-8.1-13.8-14.8-30.8-14.8-17.1,0-30.9,6.6-30.9,14.8V75.1c-3.4,2.6-5.2,5.6-5.2,8.8s1.8,6.2,5.2,8.8v7.2a202.273,202.273,0,0,1-21.8-2.8c-13.8-2.6-20.1-5.7-21.4-7.8a1.668,1.668,0,0,0-2.4-.5,1.9,1.9,0,0,0-.8,1.5,1.689,1.689,0,0,0,.3,1c3.3,5.2,18.1,8.9,34.1,11-16,2-30.8,5.8-34.1,11a1.929,1.929,0,0,0-.3,1,1.763,1.763,0,0,0,.8,1.5,1.609,1.609,0,0,0,2.4-.5c1.3-2.1,7.6-5.2,21.4-7.8a202.274,202.274,0,0,1,21.8-2.8v45.2H118A.749.749,0,0,0,118.1,149.4ZM118,80a7.35,7.35,0,0,1,1.6,3,4.869,4.869,0,0,1,.1,1.2,6.612,6.612,0,0,1-1.7,3.6ZM56.3,87.7a5.324,5.324,0,0,1,0-7.8Z" fill="#e8c879"/>
    </g>
    <path id="XMLID_5_" d="M88.7,1.8H87.5C70.4,1.8,57,8.4,57,16.5V149.4c0,.2-.7.4-.7.6H95.1Z" fill="#bfa25f"/>
    <path id="XMLID_1033_" d="M87.2,1.8c-17.1,0-30.9,6.6-30.9,14.8S70.1,31.4,87.2,31.4,118,24.7,118,16.5C118,8.4,104.2,1.8,87.2,1.8Z" fill="#a18a54"/>
    <path id="XMLID_1028_" d="M63.1,23.9a7.612,7.612,0,0,0,.3,2.1c5.7,3.2,14.2,5.3,23.7,5.3,17.1,0,30.9-6.6,30.9-14.8a7.612,7.612,0,0,0-.3-2.1C112,11.2,103.5,9.1,94,9.1,77,9.1,63.1,15.7,63.1,23.9Z" fill="#61472f"/>
    <path id="XMLID_4_" d="M87,20.2c-14,6.6-30,4.4-30-3.7V150H87Z" fill="#e8c879"/>
    <path id="XMLID_1_" d="M71.7,104.2c20,0,38.7-5.2,47-12.1h0c2.8-2.4,4.4-4.9,4.4-7.6v-.7a12.311,12.311,0,0,0-.2-2,8.194,8.194,0,0,0-2.9-5,18.032,18.032,0,0,0-2-1.8v5a6.781,6.781,0,0,1,1.6,3,4.869,4.869,0,0,1,.1,1.2c-.4,6-13.7,12.6-32.6,12.6-19.2,0-32.6-6.8-32.6-12.9A6.139,6.139,0,0,1,56.2,80V75.1h.1c-3.3,2.6-5.2,5.5-5.2,8.8,0,4.7,3.9,9.1,11.1,12.2A60.431,60.431,0,0,0,80,100.3c-2.8.2-5.5.3-8.4.3a218.071,218.071,0,0,1-37.2-3.4C20.6,94.6,14.3,91.5,13,89.4a1.668,1.668,0,0,0-2.4-.5,1.9,1.9,0,0,0-.8,1.5,1.689,1.689,0,0,0,.3,1c3.3,5.2,18.1,8.9,34.1,11-16,2-30.8,5.8-34.1,11a1.929,1.929,0,0,0-.3,1,1.763,1.763,0,0,0,.8,1.5,1.609,1.609,0,0,0,2.4-.5c1.3-2.1,7.6-5.2,21.4-7.8" fill="#634b36"/>
    <g id="XMLID_13_">
      <path id="XMLID_983_" d="M89.6,82.6c-6.7,0-12.1,7.3-12.1,16.3s5.4,16.3,12.1,16.3,12.1-7.3,12.1-16.3S96.3,82.6,89.6,82.6Z" fill="#843d32"/>
      <path id="XMLID_982_" d="M89.6,86.7c-5.2,0-9.4,5.7-9.4,12.7s4.2,12.7,9.4,12.7S99,106.4,99,99.4,94.8,86.7,89.6,86.7Z" fill="#c34f3c"/>
      <path id="XMLID_905_" d="M89.6,90.3c-3.7,0-6.7,4-6.7,9s3,9,6.7,9,6.7-4,6.7-9C96.4,94.3,93.4,90.3,89.6,90.3Z" fill="#973424"/>
      <path id="XMLID_516_" d="M87.7,90.7c-2.8,1.1-4.8,4.6-4.8,8.7,0,5,3,9,6.7,9,2.5,0,4.7-1.9,5.8-4.6a4.333,4.333,0,0,1-1.9.4c-3.7,0-6.7-4-6.7-9A10.632,10.632,0,0,1,87.7,90.7Z" fill="#78281f"/>
    </g>
    <path id="XMLID_3_" d="M119.6,82.9c-.2-1-1.6-2-1.6-3v7.8a6.612,6.612,0,0,0,1.7-3.6A4.869,4.869,0,0,0,119.6,82.9Z" fill="none"/>
    <path id="XMLID_2_" d="M57,87.7V80c-2,1.3-1.7,2.6-1.7,3.9S55,86.4,57,87.7Z" fill="none"/>
  </g>
</svg>
