<svg xmlns="http://www.w3.org/2000/svg" width="36.982" height="28.605" viewBox="0 0 36.982 28.605">
  <g id="Group_1225" data-name="Group 1225" transform="translate(0)">
    <path id="Path_2956" data-name="Path 2956" d="M74.921,122.81l-8.693-8.693L68.04,112.9l-1.789-1.789a5.06,5.06,0,0,0-5.8-.963L57.9,107.534l-8.351,8.351,6.86,6.86-.817,2.606,6.608,6.608a2.058,2.058,0,0,0,2.736.149,1.933,1.933,0,0,0,.075-2.805l.475.475a2.058,2.058,0,0,0,2.736.149,1.933,1.933,0,0,0,.075-2.805l.5.5a2.058,2.058,0,0,0,2.736.149,1.933,1.933,0,0,0,.075-2.805l.5.5a2.058,2.058,0,0,0,2.736.149A1.933,1.933,0,0,0,74.921,122.81Z" transform="translate(-45.97 -103.955)" fill="#f6d190"/>
    <path id="Path_2957" data-name="Path 2957" d="M67.7,130.248,57.15,119.7a5.965,5.965,0,0,1,0-8.436l2.221-2.221L57.9,107.534l-8.351,8.351,6.86,6.86-.817,2.606,6.608,6.608a2.059,2.059,0,0,0,2.732.153,1.932,1.932,0,0,0,.094-2.792l.464.464A2.121,2.121,0,0,0,67.7,130.248Z" transform="translate(-45.97 -103.955)" fill="#ecbd83"/>
    <path id="Path_2958" data-name="Path 2958" d="M95.485,304.8h0a1.933,1.933,0,0,1,0-2.734l1.122-1.122a1.933,1.933,0,0,1,2.734,0h0a1.933,1.933,0,0,1,0,2.734L98.219,304.8A1.933,1.933,0,0,1,95.485,304.8Z" transform="translate(-88.063 -282.866)" fill="#d19a6e"/>
    <path id="Path_2959" data-name="Path 2959" d="M133.334,349.5h0a1.933,1.933,0,0,1,0-2.734l.589-.589a1.933,1.933,0,0,1,2.734,0h0a1.933,1.933,0,0,1,0,2.734l-.589.589A1.933,1.933,0,0,1,133.334,349.5Z" transform="translate(-123.178 -324.834)" fill="#d19a6e"/>
    <path id="Path_2960" data-name="Path 2960" d="M175.914,390.181h0a1.933,1.933,0,0,1,0-2.734h0a1.933,1.933,0,0,1,2.734,0h0a1.933,1.933,0,0,1,0,2.734h0A1.933,1.933,0,0,1,175.914,390.181Z" transform="translate(-162.683 -363.125)" fill="#d19a6e"/>
    <path id="Path_2961" data-name="Path 2961" d="M196.77,108.316l-2.431,2.432a4.818,4.818,0,0,0-5.686.827l-3.06,3.06a1.933,1.933,0,0,0,0,2.734h0a1.933,1.933,0,0,0,2.734,0l2.216-2.216a1.193,1.193,0,0,1,1.687,0l7.146,7.147,6.583-6.583Z" transform="translate(-171.662 -104.681)" fill="#d19a6e"/>
    <path id="Path_2962" data-name="Path 2962" d="M205.961,115.716l-8.254-6.647-.935-.753-2.431,2.432a4.818,4.818,0,0,0-5.687.827l-3.06,3.06a1.934,1.934,0,0,0-.42,2.107l4.323-4.323a3.608,3.608,0,0,1,3.353-.966,3.8,3.8,0,0,1,.985.378h0a1.1,1.1,0,0,0,1.3-.193l.047-.047h0a1.418,1.418,0,0,1,2.006,0l6.448,6.448Z" transform="translate(-171.663 -104.681)" fill="#c38c66"/>
    <path id="Path_2963" data-name="Path 2963" d="M12.786,61.035,9.912,58.161a.6.6,0,0,0-.844,0L.175,67.054a.6.6,0,0,0,0,.844l2.874,2.874a.6.6,0,0,0,.844,0l8.893-8.893A.6.6,0,0,0,12.786,61.035Z" transform="translate(0 -57.986)" fill="#4c94c1"/>
    <path id="Path_2964" data-name="Path 2964" d="M2.808,68.741a1.789,1.789,0,0,1,0-2.531l7.576-7.577-.473-.473a.6.6,0,0,0-.844,0L.175,67.054a.6.6,0,0,0,0,.844l2.874,2.874a.6.6,0,0,0,.844,0l.473-.473Z" transform="translate(0 -57.986)" fill="#3b79b2"/>
    <path id="Path_2965" data-name="Path 2965" d="M345.355,67.9l-2.874,2.874a.6.6,0,0,1-.844,0l-8.893-8.893a.6.6,0,0,1,0-.844l2.874-2.874a.6.6,0,0,1,.843,0l8.893,8.893A.6.6,0,0,1,345.355,67.9Z" transform="translate(-308.548 -57.986)" fill="#6f9b57"/>
    <path id="Path_2966" data-name="Path 2966" d="M335.377,60.192a1.789,1.789,0,0,0,0,2.531l7.576,7.577-.473.473a.6.6,0,0,1-.844,0l-8.893-8.893a.6.6,0,0,1,0-.844l2.874-2.874a.6.6,0,0,1,.843,0l.473.473Z" transform="translate(-308.548 -57.986)" fill="#76a85e"/>
    <path id="Path_2967" data-name="Path 2967" d="M290.448,347.99h0a.617.617,0,0,0,0,.872l1.683,1.682a2.133,2.133,0,0,0,2.212.469l-3.023-3.023A.617.617,0,0,0,290.448,347.99Z" transform="translate(-269.302 -326.875)" fill="#ecbd83"/>
    <path id="Path_2968" data-name="Path 2968" d="M336.357,318.216h0a.617.617,0,0,0,0,.872l1.683,1.682a2.12,2.12,0,0,0,2.206.463l-3.017-3.017A.617.617,0,0,0,336.357,318.216Z" transform="translate(-311.895 -299.252)" fill="#ecbd83"/>
    <path id="Path_2969" data-name="Path 2969" d="M96.467,303.045l1.122-1.122a1.937,1.937,0,0,1,2.153-.4,1.933,1.933,0,0,0-3.134-.585l-1.122,1.122a1.933,1.933,0,0,0,0,2.734,1.971,1.971,0,0,0,.592.4A1.94,1.94,0,0,1,96.467,303.045Z" transform="translate(-88.063 -282.866)" fill="#c38c66"/>
    <path id="Path_2970" data-name="Path 2970" d="M134.315,347.746l.589-.589a1.94,1.94,0,0,1,2.155-.393,1.955,1.955,0,0,0-.4-.589h0a1.933,1.933,0,0,0-2.734,0l-.589.589a1.933,1.933,0,0,0,0,2.734,1.969,1.969,0,0,0,.591.4A1.94,1.94,0,0,1,134.315,347.746Z" transform="translate(-123.177 -324.834)" fill="#c38c66"/>
    <path id="Path_2971" data-name="Path 2971" d="M176.9,388.43a1.944,1.944,0,0,1,2.16-.385,2.008,2.008,0,0,0-.408-.6,1.933,1.933,0,0,0-2.734,2.734,1.976,1.976,0,0,0,.593.4A1.94,1.94,0,0,1,176.9,388.43Z" transform="translate(-162.683 -363.126)" fill="#c38c66"/>
    <path id="Path_2972" data-name="Path 2972" d="M297.1,209.274l-5.983-5.983a1.164,1.164,0,0,0-1.647,0h0l6.806,6.806Z" transform="translate(-268.561 -192.479)" fill="#c38c66"/>
  </g>
</svg>
