<?xml version="1.0" encoding="utf-8"?>
<!-- Generator: Adobe Illustrator 19.0.0, SVG Export Plug-In . SVG Version: 6.00 Build 0)  -->
<svg version="1.1" id="Layer_1" xmlns="http://www.w3.org/2000/svg" xmlns:xlink="http://www.w3.org/1999/xlink" x="0px" y="0px"
	 viewBox="-272 395.9 50 50" style="enable-background:new -272 395.9 50 50;" xml:space="preserve">
<style type="text/css">
	.st0{fill:#D8D8D8;}
</style>
<path class="st0" d="M-250.9,441.7H-262c-2.1,0-3.9-1.7-3.9-3.9v-29.3c0-2.1,1.8-3.9,3.9-3.9h6.1v1c0,3.2,2.6,5.8,5.8,5.8
	c3.2,0,5.8-2.6,5.8-5.8v-1h6.1c2.1,0,3.9,1.7,3.9,3.9v14.9c0,1.1,0.9,1.9,1.9,1.9c1.1,0,1.9-0.9,1.9-1.9v-14.9
	c0-4.3-3.5-7.8-7.8-7.8h-6.1v-2.9c0-1.1-0.9-1.9-1.9-1.9h-7.8c-1.1,0-1.9,0.9-1.9,1.9v2.9h-6.1c-4.3,0-7.8,3.5-7.8,7.8v29.3
	c0,4.3,3.5,7.8,7.8,7.8h11.1c1.1,0,1.9-0.9,1.9-1.9S-249.8,441.7-250.9,441.7z M-252,399.8h3.9v5.8c0,1.1-0.9,1.9-1.9,1.9
	c-1.1,0-1.9-0.9-1.9-1.9V399.8z M-225.6,430.2l-9.6,13.4c0,0,0,0.1-0.1,0.1c-0.9,1.1-2.2,1.8-3.6,1.9c-0.1,0-0.2,0-0.3,0
	c-1.3,0-2.5-0.5-3.4-1.4l-6.2-5.9c-0.8-0.7-0.8-2-0.1-2.7c0.7-0.8,2-0.8,2.7-0.1l6.2,5.9c0.3,0.3,0.7,0.3,0.8,0.3
	c0.2,0,0.5-0.1,0.8-0.4l9.6-13.4c0.6-0.9,1.8-1.1,2.7-0.4C-225.2,428.1-225,429.3-225.6,430.2z M-256.4,419.1c0,1.1-0.9,1.9-1.9,1.9
	h-1c-1.1,0-1.9-0.9-1.9-1.9c0-1.1,0.9-1.9,1.9-1.9h1C-257.3,417.1-256.4,418-256.4,419.1z M-238.7,419.1c0,1.1-0.9,1.9-1.9,1.9
	h-10.9c-1.1,0-1.9-0.9-1.9-1.9c0-1.1,0.9-1.9,1.9-1.9h10.9C-239.6,417.1-238.7,418-238.7,419.1z M-256.4,426.8
	c0,1.1-0.9,1.9-1.9,1.9h-1c-1.1,0-1.9-0.9-1.9-1.9s0.9-1.9,1.9-1.9h1C-257.3,424.9-256.4,425.8-256.4,426.8z M-238.7,426.8
	c0,1.1-0.9,1.9-1.9,1.9h-10.9c-1.1,0-1.9-0.9-1.9-1.9s0.9-1.9,1.9-1.9h10.9C-239.6,424.9-238.7,425.8-238.7,426.8z"/>
</svg>
