<?xml version="1.0" encoding="utf-8"?>
<!-- Generator: Adobe Illustrator 19.0.0, SVG Export Plug-In . SVG Version: 6.00 Build 0)  -->
<svg version="1.1" id="Layer_1" xmlns="http://www.w3.org/2000/svg" xmlns:xlink="http://www.w3.org/1999/xlink" x="0px" y="0px"
	 viewBox="-272 395.9 50 50" style="enable-background:new -272 395.9 50 50;" xml:space="preserve">
<style type="text/css">
	.st0{fill:#D8D8D8;}
</style>
<g>
	<path class="st0" d="M-233.4,409.6c0,2.2,1.8,4,4,4c2.2,0,4-1.8,4-4c0-2.2-1.8-4-4-4S-233.4,407.4-233.4,409.6L-233.4,409.6z"/>
	<path class="st0" d="M-225.4,414.8c0,0-1-0.3-1-0.3c-0.4-0.1-0.8,0-1.1,0.2l-2,1.5l-2-1.5c-0.3-0.2-0.7-0.3-1.1-0.2
		c0,0-1,0.3-1,0.3c-1.6,0.5-2.7,2-2.7,3.7v6c0,0.2,0.1,0.5,0.2,0.6l2,3v8c0,0.7,0.5,1.2,1.2,1.2h6.7c0.7,0,1.2-0.5,1.2-1.2v-8l2-3
		c0.1-0.2,0.2-0.4,0.2-0.6v-6C-222.8,416.8-223.8,415.3-225.4,414.8L-225.4,414.8z"/>
	<path class="st0" d="M-264.3,413.5c2.2,0,4-1.8,4-4c0-2.2-1.8-4-4-4c-2.2,0-4,1.8-4,4C-268.2,411.7-266.5,413.5-264.3,413.5z"/>
	<path class="st0" d="M-260.2,414.8c0,0-1-0.3-1-0.3c-0.4-0.1-0.8,0-1.1,0.2l-2,1.5l-2-1.5c-0.3-0.2-0.7-0.3-1.1-0.2
		c0,0-1,0.3-1,0.3c-1.6,0.5-2.7,2-2.7,3.7v6c0,0.2,0.1,0.5,0.2,0.6l2,3v8c0,0.7,0.5,1.2,1.2,1.2h6.7c0.7,0,1.2-0.5,1.2-1.2v-8l2-3
		c0.1-0.2,0.2-0.4,0.2-0.6v-6C-257.6,416.8-258.6,415.3-260.2,414.8z"/>
	<path class="st0" d="M-241.8,404c0-2.8-2.3-5.1-5.1-5.1c-2.8,0-5.1,2.3-5.1,5.1c0,2.8,2.3,5.1,5.1,5.1
		C-244.1,409.1-241.8,406.8-241.8,404z"/>
	<path class="st0" d="M-241.3,411.6L-241.3,411.6l-1.5-0.4c-0.2-0.1-0.5,0.1-0.6,0.3l-3.1,8.4c-0.2,0.5-0.9,0.5-1,0l-3.1-8.4
		c-0.1-0.2-0.2-0.3-0.4-0.3c0,0-1.6,0.5-1.6,0.5c-1.9,0.6-3.1,2.3-3.1,4.3v8.9c0,0.1,0,0.2,0.1,0.2l3.2,4.9v12.3
		c0,0.2,0.2,0.5,0.5,0.5h9.9c0.2,0,0.5-0.2,0.5-0.5v-12.3l3.2-4.9c0-0.1,0.1-0.2,0.1-0.2v-8.9C-238.2,413.9-239.4,412.2-241.3,411.6
		L-241.3,411.6z"/>
	<path class="st0" d="M-245.7,411.4c-0.1-0.1-0.3-0.2-0.5-0.2h-1.4c-0.2,0-0.4,0.1-0.5,0.2c-0.2,0.2-0.2,0.5-0.1,0.8l0.7,1.1
		l-0.3,2.9l0.7,1.8c0.1,0.2,0.3,0.2,0.4,0l0.7-1.8l-0.3-2.9l0.7-1.1C-245.5,411.9-245.5,411.6-245.7,411.4z"/>
</g>
</svg>
