<?xml version="1.0" encoding="iso-8859-1"?>
<!-- Generator: Adobe Illustrator 19.0.0, SVG Export Plug-In . SVG Version: 6.00 Build 0)  -->
<svg version="1.1" id="Capa_1" xmlns="http://www.w3.org/2000/svg" xmlns:xlink="http://www.w3.org/1999/xlink" x="0px" y="0px"
	 viewBox="0 0 485.656 485.656" style="enable-background:new 0 0 485.656 485.656;" xml:space="preserve">
<g>
	<g>
		<path d="M477.656,300.064h-32c-4.424,0-8,3.584-8,8h-80c-2.128,0-4.16,0.84-5.656,2.344l-45.064,45.064L148.28,327.88
			c-7.608-1.312-15.384,0.768-21.312,5.752c-5.912,4.976-9.312,12.272-9.312,20.008c0,9.256,4.968,17.912,12.968,22.584
			l174.52,101.8c4.072,2.376,8.616,3.576,13.168,3.568c4,0,8-0.92,11.704-2.768l85.528-42.76h22.112c0,4.416,3.576,8,8,8h32
			c4.424,0,8-3.584,8-8v-128C485.656,303.648,482.08,300.064,477.656,300.064z M437.656,420.064h-24c-1.24,0-2.472,0.288-3.576,0.84
			l-87.224,43.616c-3.088,1.536-6.696,1.416-9.648-0.312l-174.512-101.8c-3.112-1.816-5.04-5.176-5.04-8.768
			c0-3,1.32-5.832,3.616-7.768c2.296-1.928,5.304-2.736,8.272-2.232l147.552,25.664l-6.48,6.48
			c-5.776,5.784-8.96,13.472-8.96,21.648c0,16.896,13.744,30.632,30.624,30.632c8.184,0,15.872-3.184,21.656-8.976l41.376-41.368
			L360,366.408l-41.376,41.376c-2.728,2.72-6.488,4.28-10.344,4.28c-8.064,0-14.624-6.56-14.624-14.632
			c0-3.904,1.52-7.584,4.28-10.344l63.032-63.024h76.688V420.064z M469.656,428.064h-16v-112h16V428.064z"/>
	</g>
</g>
<g>
	<g>
		<path d="M285.656,124.064c-26.472,0-48,21.528-48,48s21.528,48,48,48s48-21.528,48-48S312.128,124.064,285.656,124.064z
			 M285.656,204.064c-17.648,0-32-14.352-32-32s14.352-32,32-32s32,14.352,32,32S303.304,204.064,285.656,204.064z"/>
	</g>
</g>
<g>
	<g>
		<path d="M437.656,4.064h-304c-4.424,0-8,3.584-8,8v32v32h-64c-2.128,0-4.16,0.84-5.656,2.344l-56,56l11.312,11.312l53.656-53.656
			h60.688v24v24h-40v16h48h56c8.824,0,16,7.176,16,16c0,4.264-1.664,8.28-4.696,11.304c-3.032,3.024-7.048,4.696-11.304,4.696h-56
			c-1.072,0-2.112,0.216-3.08,0.624c-0.976,0.408-1.848,0.992-2.584,1.728L104,214.408l11.312,11.312l10.344-10.344v12.688v32h-120
			v16h128h40h224h40c4.424,0,8-3.584,8-8v-40v-112v-40v-32v-32C445.656,7.648,442.08,4.064,437.656,4.064z M141.656,84.064h22.984
			c-2.896,11.232-11.76,20.088-22.984,22.992V84.064z M141.656,260.064v-22.992c11.224,2.904,20.088,11.76,22.984,22.992H141.656z
			 M429.656,260.064h-22.984c2.896-11.232,11.76-20.088,22.984-22.992V260.064z M429.656,220.784
			c-20.056,3.384-35.888,19.224-39.28,39.28h-209.44c-3.384-20.056-19.224-35.888-39.28-39.28v-16.72h48
			c8.528,0,16.568-3.336,22.616-9.384c6.056-6.048,9.384-14.08,9.384-22.616c0-17.648-14.352-32-32-32h-48v-16.72
			c20.056-3.384,35.888-19.224,39.28-39.28h209.44c3.384,20.056,19.224,35.888,39.28,39.28V220.784z M429.656,107.056
			c-11.224-2.904-20.088-11.76-22.984-22.992h22.984V107.056z M429.656,68.064h-32h-224h-32v-16h288V68.064z M429.656,36.064h-288
			v-16h288V36.064z"/>
	</g>
</g>
<g>
</g>
<g>
</g>
<g>
</g>
<g>
</g>
<g>
</g>
<g>
</g>
<g>
</g>
<g>
</g>
<g>
</g>
<g>
</g>
<g>
</g>
<g>
</g>
<g>
</g>
<g>
</g>
<g>
</g>
</svg>
