<?xml version="1.0" encoding="utf-8"?>
<!-- Generator: Adobe Illustrator 16.0.0, SVG Export Plug-In . SVG Version: 6.00 Build 0)  -->
<!DOCTYPE svg PUBLIC "-//W3C//DTD SVG 1.1//EN" "http://www.w3.org/Graphics/SVG/1.1/DTD/svg11.dtd">
<svg version="1.1" id="Layer_1" xmlns="http://www.w3.org/2000/svg" xmlns:xlink="http://www.w3.org/1999/xlink" x="0px" y="0px"
	 width="24px" height="24px" viewBox="0 0 24 24" enable-background="new 0 0 24 24" xml:space="preserve">
<g>
	<path d="M12,2c5.514,0,10,4.486,10,10s-4.486,10-10,10S2,17.514,2,12S6.486,2,12,2 M12,0C5.373,0,0,5.373,0,12s5.373,12,12,12
		s12-5.373,12-12S18.627,0,12,0L12,0z"/>
	<g>
		<path d="M11.408,13.41c0,0-0.252,0.647-0.251,0.65l0.401,0.568h0.883l0.4-0.568c-0.003-0.01-0.25-0.65-0.25-0.65
			C12.563,13.415,11.438,13.415,11.408,13.41z"/>
		<path d="M9.133,9.633c0.516,1.507,1.486,2.653,2.868,2.653c1.33,0,2.314-1.129,2.848-2.635c1.074-1.083,0.82-1.894,0.572-2.28
			C16.005,4.576,14.221,3,11.898,3C7.737,3,8.463,7.561,8.463,7.561c0.005,0,0.01,0,0.014,0.001C8.286,7.991,8.23,8.712,9.133,9.633
			z M10.871,6.248l-0.304,1.131c1.486-0.453,1.686-0.701,1.919-0.872c0.243-0.177,0.448-0.355,0.615-0.519
			c0.076,0.138,0.174,0.264,0.283,0.378c0.11,0.116,0.273-1.048,0.273-1.048s0.411,0.707,0.468,0.936
			c0.04,0.161,0.3,0.817,0.439,0.877c-0.053,2.163-1.023,4.425-2.564,4.425c-1.437,0-2.377-1.961-2.542-3.978
			C9.853,7.555,10.871,6.248,10.871,6.248z"/>
		<path d="M19.463,15.748c-0.864-2.271-2.835-3.209-2.861-3.222l-2.094-0.771l-0.277,0.676l0.585,0.215l-2.131,7.031l-0.27-4.721
			h-0.83l-0.266,4.635l-2.107-6.955l0.561-0.206l-0.279-0.675l-2.068,0.761l-0.026,0.011c-0.026,0.013-1.998,0.95-2.861,3.222
			c-0.176,0.463-0.306,0.98-0.363,1.558c1.857,2.254,4.671,3.692,7.82,3.694c0.004,0,0.009,0,0.014,0
			c0.17,0,0.339-0.005,0.507-0.014c0.004,0,0.008,0,0.011,0c2.938-0.15,5.546-1.551,7.301-3.681
			C19.768,16.729,19.639,16.21,19.463,15.748z M14.063,18.082c0.023,0.002,1.495,0.175,2.642-0.416v0.455
			c-0.865,0.348-1.754,0.409-2.268,0.409c-0.173,0-0.302-0.008-0.374-0.012V18.082z"/>
	</g>
</g>
</svg>
